<?xml version="1.0" encoding="iso-8859-1"?>
<!-- Generator: Adobe Illustrator 17.0.0, SVG Export Plug-In . SVG Version: 6.00 Build 0)  -->
<!DOCTYPE svg PUBLIC "-//W3C//DTD SVG 1.1//EN" "http://www.w3.org/Graphics/SVG/1.1/DTD/svg11.dtd">
<svg version="1.1" id="&#x421;&#x43B;&#x43E;&#x439;_1"
	 xmlns="http://www.w3.org/2000/svg" xmlns:xlink="http://www.w3.org/1999/xlink" x="0px" y="0px" width="48px" height="48px"
	 viewBox="0 0 48 48" style="enable-background:new 0 0 48 48;" xml:space="preserve">
<path d="M34.926,6.188H13.072c-3.795,0-6.885,3.09-6.885,6.883v7.271v14.588c0,3.797,3.09,6.883,6.885,6.883h21.855
	c3.797,0,6.887-3.086,6.887-6.883V20.341v-7.271C41.813,9.278,38.723,6.188,34.926,6.188z M36.904,10.295l0.787-0.008v0.791v5.251
	l-6.021,0.019L31.65,10.31L36.904,10.295z M18.916,20.341c1.138-1.578,2.991-2.614,5.083-2.614c2.092,0,3.944,1.036,5.083,2.614
	c0.747,1.033,1.188,2.292,1.188,3.659c0,3.455-2.814,6.269-6.271,6.269c-3.457,0-6.269-2.814-6.269-6.269
	C17.73,22.633,18.174,21.374,18.916,20.341z M38.341,34.929c0,1.881-1.53,3.413-3.415,3.413H13.072
	c-1.885,0-3.415-1.532-3.415-3.413V20.341h5.319c-0.461,1.133-0.718,2.365-0.718,3.659c0,5.371,4.369,9.739,9.741,9.739
	S33.74,29.371,33.74,24c0-1.294-0.259-2.526-0.718-3.659h5.319V34.929z"/>
</svg>
