<?xml version="1.0" encoding="iso-8859-1"?>
<!-- Generator: Adobe Illustrator 17.0.0, SVG Export Plug-In . SVG Version: 6.00 Build 0)  -->
<!DOCTYPE svg PUBLIC "-//W3C//DTD SVG 1.1//EN" "http://www.w3.org/Graphics/SVG/1.1/DTD/svg11.dtd">
<svg version="1.1" id="&#x421;&#x43B;&#x43E;&#x439;_3"
	 xmlns="http://www.w3.org/2000/svg" xmlns:xlink="http://www.w3.org/1999/xlink" x="0px" y="0px" width="30px" height="30px"
	 viewBox="0 0 30 30" style="enable-background:new 0 0 30 30;" xml:space="preserve">
<path d="M22.612,2.926H7.796c-2.573,0-4.668,2.095-4.668,4.666v4.929v9.89c0,2.574,2.095,4.666,4.668,4.666h14.816
	c2.574,0,4.669-2.092,4.669-4.666v-9.89V7.592C27.281,5.021,25.186,2.926,22.612,2.926z M23.952,5.71l0.534-0.005v0.536v3.56
	l-4.082,0.013l-0.013-4.094L23.952,5.71z M11.758,12.521c0.772-1.07,2.027-1.772,3.446-1.772c1.418,0,2.674,0.703,3.446,1.772
	c0.506,0.7,0.805,1.554,0.805,2.48c0,2.342-1.908,4.25-4.251,4.25c-2.344,0-4.25-1.908-4.25-4.25
	C10.954,14.075,11.255,13.221,11.758,12.521z M24.927,22.411c0,1.275-1.037,2.314-2.315,2.314H7.796
	c-1.278,0-2.315-1.038-2.315-2.314v-9.89h3.606C8.774,13.289,8.6,14.124,8.6,15.001c0,3.641,2.962,6.603,6.604,6.603
	s6.604-2.962,6.604-6.603c0-0.877-0.176-1.713-0.487-2.48h3.606V22.411z"/>
</svg>
