<?xml version="1.0" encoding="iso-8859-1"?>
<!-- Generator: Adobe Illustrator 17.0.0, SVG Export Plug-In . SVG Version: 6.00 Build 0)  -->
<!DOCTYPE svg PUBLIC "-//W3C//DTD SVG 1.1//EN" "http://www.w3.org/Graphics/SVG/1.1/DTD/svg11.dtd">
<svg version="1.1" id="&#x421;&#x43B;&#x43E;&#x439;_2"
	 xmlns="http://www.w3.org/2000/svg" xmlns:xlink="http://www.w3.org/1999/xlink" x="0px" y="0px" width="48px" height="48px"
	 viewBox="0 0 48 48" style="enable-background:new 0 0 48 48;" xml:space="preserve">
<path d="M44.77,14.408c-0.183,4.021-2.998,9.521-8.433,16.5c-5.624,7.298-10.39,10.945-14.284,10.945c-2.41,0-4.45-2.22-6.117-6.672
	c-1.117-4.084-2.227-8.168-3.342-12.243c-1.239-4.452-2.566-6.676-3.986-6.676c-0.312,0-1.389,0.649-3.248,1.951l-1.946-2.508
	c2.042-1.788,4.05-3.584,6.032-5.375c2.713-2.352,4.755-3.584,6.119-3.712c3.208-0.314,5.189,1.886,5.936,6.58
	c0.794,5.074,1.355,8.226,1.663,9.463c0.932,4.202,1.948,6.3,3.063,6.3c0.86,0,2.162-1.355,3.892-4.073
	c1.734-2.724,2.657-4.793,2.782-6.217c0.247-2.35-0.678-3.52-2.782-3.52c-0.985,0-2.009,0.21-3.058,0.649
	c2.042-6.616,5.936-9.831,11.685-9.643C43.009,6.279,45.019,9.034,44.77,14.408z"/>
</svg>
