<?xml version="1.0" encoding="iso-8859-1"?>
<!-- Generator: Adobe Illustrator 17.0.0, SVG Export Plug-In . SVG Version: 6.00 Build 0)  -->
<!DOCTYPE svg PUBLIC "-//W3C//DTD SVG 1.1//EN" "http://www.w3.org/Graphics/SVG/1.1/DTD/svg11.dtd">
<svg version="1.1" id="&#x421;&#x43B;&#x43E;&#x439;_2"
	 xmlns="http://www.w3.org/2000/svg" xmlns:xlink="http://www.w3.org/1999/xlink" x="0px" y="0px" width="30px" height="30px"
	 viewBox="0 0 30 30" style="enable-background:new 0 0 30 30;" xml:space="preserve">
<path d="M26.494,9.714c-0.101,2.217-1.653,5.248-4.648,9.095c-3.1,4.023-5.727,6.033-7.874,6.033c-1.328,0-2.453-1.224-3.372-3.678
	c-0.616-2.251-1.228-4.502-1.842-6.748c-0.683-2.454-1.414-3.68-2.197-3.68c-0.172,0-0.766,0.358-1.79,1.075l-1.073-1.382
	c1.125-0.985,2.233-1.976,3.325-2.963c1.495-1.296,2.621-1.976,3.373-2.046c1.768-0.173,2.86,1.04,3.272,3.627
	c0.437,2.797,0.747,4.534,0.917,5.216c0.514,2.316,1.074,3.473,1.688,3.473c0.474,0,1.192-0.747,2.145-2.245
	c0.956-1.501,1.465-2.642,1.534-3.427c0.136-1.295-0.374-1.94-1.534-1.94c-0.543,0-1.107,0.116-1.686,0.358
	c1.125-3.647,3.272-5.419,6.441-5.316C25.524,5.233,26.632,6.751,26.494,9.714z"/>
</svg>
