<?xml version="1.0" standalone="no"?>
<!DOCTYPE svg PUBLIC "-//W3C//DTD SVG 1.1//EN" "http://www.w3.org/Graphics/SVG/1.1/DTD/svg11.dtd" >
<svg xmlns="http://www.w3.org/2000/svg">
<metadata></metadata>
<defs>
<font id="gt_pressurabold" horiz-adv-x="1191" >
<font-face units-per-em="2048" ascent="1638" descent="-410" />
<missing-glyph horiz-adv-x="471" />
<glyph unicode="&#xfb01;" horiz-adv-x="1290" d="M10 813v164q0 17 12 29t29 12h164q21 0 21 20v41q0 158 114 266.5t275 108.5h481q17 0 29 -12t12 -29v-184q0 -17 -12 -29t-29 -12h-481q-52 0 -87.5 -31.5t-35.5 -81.5v-37q0 -20 20 -20h592q13 0 23 -10.5t10 -22.5v-952q0 -12 -10 -22.5t-23 -10.5h-201 q-13 0 -22.5 10.5t-9.5 22.5v719q0 20 -21 20h-338q-20 0 -20 -20v-711q0 -17 -12 -29t-29 -12h-185q-17 0 -28.5 12t-11.5 29v711q0 20 -21 20h-164q-17 0 -29 12t-12 29z" />
<glyph unicode="&#xfb02;" horiz-adv-x="1310" d="M10 813v164q0 17 12 29t29 12h164q21 0 21 20v41q0 158 114 266.5t275 108.5h102q17 0 29 -12t12 -29v-184q0 -17 -12 -29t-29 -12h-102q-52 0 -87.5 -31.5t-35.5 -81.5v-37q0 -20 20 -20h369q20 0 20 20v375q0 17 12 29t29 12h185q17 0 29 -12t12 -29v-1372 q0 -17 -12 -29t-29 -12h-185q-17 0 -29 12t-12 29v711q0 20 -20 20h-369q-20 0 -20 -20v-711q0 -17 -12 -29t-29 -12h-185q-17 0 -28.5 12t-11.5 29v711q0 20 -21 20h-164q-17 0 -29 12t-12 29z" />
<glyph horiz-adv-x="2048" />
<glyph horiz-adv-x="2048" />
<glyph unicode="&#xd;" horiz-adv-x="2048" />
<glyph unicode=" "  horiz-adv-x="471" />
<glyph unicode="&#x09;" horiz-adv-x="471" />
<glyph unicode="&#xa0;" horiz-adv-x="471" />
<glyph unicode="!" horiz-adv-x="538" d="M104 41v246q0 17 12 29t29 12h246q17 0 29 -12t12 -29v-246q0 -17 -12 -29t-29 -12h-246q-17 0 -29 12t-12 29zM127 477v924q0 12 10 22.5t23 10.5h221q13 0 23 -10.5t10 -22.5v-924q0 -12 -10 -22.5t-23 -10.5h-221q-13 0 -23 10.5t-10 22.5z" />
<glyph unicode="&#x22;" horiz-adv-x="976" d="M98.5 824q-13.5 25 1.5 53l111 202q6 10 -1 18.5t-17 8.5h-50q-17 0 -29 12t-12 29v246q0 17 12 29t29 12h246q17 0 29 -12t12 -29v-240q0 -83 -45 -141l-131 -172q-27 -41 -70 -41h-41q-31 0 -44.5 25zM549.5 824q-13.5 25 1.5 53l111 202q6 10 -1.5 18.5t-17.5 8.5h-49 q-17 0 -29 12t-12 29v246q0 17 12 29t29 12h246q17 0 29 -12t12 -29v-240q0 -83 -45 -141l-131 -172q-27 -41 -70 -41h-41q-31 0 -44.5 25z" />
<glyph unicode="#" horiz-adv-x="1232" d="M63 344l23 141q3 17 17.5 29t31.5 12h103q20 0 24 21l55 313q3 21 -16 21h-102q-17 0 -27.5 12t-7.5 29l22 135q3 17 18 29t32 12h102q21 0 24 20l50 275q3 17 16.5 29t30.5 12h137q17 0 27.5 -12t7.5 -29l-49 -275q-3 -20 16 -20h176q22 0 25 20l49 275q3 17 16.5 29 t30.5 12h137q17 0 27.5 -12t7.5 -29l-49 -275q-3 -20 16 -20h103q17 0 26 -12t6 -29l-22 -135q-3 -17 -16.5 -29t-30.5 -12h-103q-9 0 -15.5 -6t-8.5 -15l-55 -313q-4 -21 16 -21h102q17 0 26.5 -12t6.5 -29l-22 -141q-3 -17 -17 -29t-31 -12h-102q-22 0 -25 -20l-45 -242 q-3 -17 -16.5 -29t-30.5 -12h-137q-17 0 -27.5 12t-7.5 29l45 242q3 20 -16 20h-176q-22 0 -25 -20l-45 -242q-3 -17 -16.5 -29t-30.5 -12h-137q-17 0 -27.5 12t-7.5 29l45 242q3 20 -16 20h-103q-17 0 -27.5 12t-7.5 29zM481 547q-3 -21 17 -21h176q20 0 24 21l56 313 q2 9 -3 15t-14 6h-176q-9 0 -15.5 -6t-8.5 -15z" />
<glyph unicode="$" horiz-adv-x="1150" d="M82 426v61q0 17 12 29t29 12h207q17 0 29 -12t12 -29v-61q0 -73 53 -120.5t145 -47.5q94 0 148.5 47t54.5 121q0 65 -48 101t-165 63q-81 18 -146.5 41.5t-125 60t-100 82t-64 109.5t-23.5 141q0 142 85 253.5t225 154.5q16 5 24 11.5t8 18.5v74q0 17 12 29t29 12h174 q17 0 29 -12t12 -29v-70q0 -22 31 -32q140 -43 225.5 -155.5t85.5 -254.5v-31q0 -17 -12 -29t-29 -12h-206q-17 0 -29 12t-12 29v31q0 65 -49.5 109.5t-133.5 44.5q-83 0 -130.5 -44.5t-47.5 -109.5q0 -103 182 -137q113 -23 198.5 -57t155 -87.5t106 -133t36.5 -183.5 q0 -161 -93 -274t-247 -154q-31 -9 -31 -31v-69q0 -17 -12 -29t-29 -12h-174q-17 0 -29 12t-12 29v71q0 20 -32 31q-148 44 -238 160t-90 266z" />
<glyph unicode="%" horiz-adv-x="1392" d="M111 897q-17 147 0 295q11 96 76 160.5t167 64.5t167.5 -64.5t76.5 -160.5q17 -148 0 -295q-11 -97 -76.5 -162t-167.5 -65t-167 65t-76 162zM231 18q-12 18 0 39l750 1346q19 31 45 31h100q21 0 33 -18.5t0 -39.5l-745 -1345q-19 -31 -43 -31h-107q-21 0 -33 18z M285 1044.5q0 -94.5 6 -135.5q2 -23 18 -38t45 -15q28 0 44 15t18 38q4 41 4 135.5t-4 135.5q-2 23 -18 38t-44 15q-29 0 -45 -15t-18 -38q-6 -41 -6 -135.5zM795 242q-17 147 0 295q11 96 76 160.5t167 64.5t167.5 -64.5t76.5 -160.5q17 -148 0 -295q-11 -97 -76.5 -162.5 t-167.5 -65.5t-167 65.5t-76 162.5zM969 389q0 -94 6 -135q2 -23 18 -38t45 -15q28 0 44 15t18 38q3 41 3 135t-3 135q-2 23 -18 38.5t-44 15.5q-29 0 -45 -15.5t-18 -38.5q-6 -41 -6 -135z" />
<glyph unicode="&#x26;" horiz-adv-x="1198" d="M57 422q0 86 43 170t113 137q23 17 2 45q-42 51 -68 124t-26 140q0 111 56.5 202.5t152.5 142.5t209 51q157 0 272 -109.5t115 -267.5q0 -37 -16 -49.5t-46 -12.5h-151q-58 0 -64 60q-5 49 -36.5 79.5t-82.5 30.5q-64 0 -100.5 -34t-36.5 -93q0 -50 30 -104.5t60 -89.5 l305 -363q10 -10 19 4q12 19 12 170q0 17 12 29t29 12h139q17 0 29 -12t12 -29q0 -275 -53 -368q-8 -13 2 -25l158 -186q19 -20 7 -48t-44 -28h-162q-9 0 -15.5 1t-11.5 4t-7 4t-6 6l-5 5l-45 48q-17 17 -39 0q-116 -91 -291 -91q-124 0 -232 58t-173.5 161t-65.5 226z M338 422q0 -76 68.5 -137.5t146.5 -61.5q44 0 92 31q7 7 2 12l-241 287q-6 7 -13 0q-55 -52 -55 -131z" />
<glyph unicode="'" horiz-adv-x="526" d="M98.5 824q-13.5 25 1.5 53l111 202q6 10 -1 18.5t-17 8.5h-50q-17 0 -29 12t-12 29v246q0 17 12 29t29 12h246q17 0 29 -12t12 -29v-240q0 -83 -45 -141l-131 -172q-27 -41 -70 -41h-41q-31 0 -44.5 25z" />
<glyph unicode="(" horiz-adv-x="739" d="M104 646q0 275 15 398q10 85 46 161.5t93 137t140.5 96.5t181.5 36h86q17 0 29 -12t12 -29v-181q0 -17 -12 -29t-29 -12h-86q-162 0 -195 -168q-24 -128 -24 -399t24 -399q31 -168 195 -168h86q17 0 29 -12t12 -29v-180q0 -17 -12 -29t-29 -12h-86q-185 0 -310.5 116.5 t-150.5 313.5q-15 125 -15 400z" />
<glyph unicode=")" horiz-adv-x="747" d="M41 37q0 17 12 29t29 12h86q163 0 194 168q24 128 24 399t-24 399q-33 168 -194 168h-86q-17 0 -29 12t-12 29v181q0 17 12 29t29 12h86q98 0 181.5 -36t140.5 -96.5t93 -137t46 -161.5q15 -123 15 -398.5t-15 -399.5q-25 -197 -150.5 -313.5t-310.5 -116.5h-86 q-17 0 -29 12t-12 29v180z" />
<glyph unicode="*" horiz-adv-x="804" d="M104 1249.5q-6 25.5 7 48.5l51 86q12 24 37 31t47 -8l49 -35l-4 62q-1 26 16.5 43.5t44.5 17.5h101q27 0 45.5 -17.5t15.5 -43.5l-6 -62l53 35q20 14 45.5 7t38.5 -30l47 -86q14 -23 8 -47.5t-30 -36.5l-56 -26l58 -27q23 -10 29 -35.5t-7 -48.5l-51 -86q-12 -23 -37 -30 t-47 8l-51 35l6 -62q3 -26 -15.5 -43.5t-45.5 -17.5h-101q-27 0 -44.5 17.5t-16.5 43.5l4 62l-51 -35q-20 -14 -45.5 -7.5t-38.5 29.5l-47 86q-14 23 -8 47.5t30 36.5l55 27l-57 26q-23 10 -29 35.5z" />
<glyph unicode="+" horiz-adv-x="1105" d="M102 422v182q0 17 12 29t29 12h256q9 0 15 6t6 15v256q0 17 12 29t29 12h182q17 0 29 -12t12 -29v-256q0 -9 6 -15t15 -6h258q17 0 29 -12t12 -29v-182q0 -17 -12 -29t-29 -12h-258q-9 0 -15 -6t-6 -15v-258q0 -17 -12 -29t-29 -12h-182q-17 0 -29 12t-12 29v258 q0 9 -6 15t-15 6h-256q-17 0 -29 12t-12 29z" />
<glyph unicode="," horiz-adv-x="540" d="M105 -282q-14 25 1 53l111 202q6 10 -1 18.5t-17 8.5h-49q-17 0 -29 12t-12 29v246q0 17 12 29t29 12h245q17 0 29 -12t12 -29v-240q0 -74 -45 -141l-131 -172q-27 -41 -70 -41h-40q-31 0 -45 25z" />
<glyph unicode="-" horiz-adv-x="845" d="M102 446v203q0 17 12 29t29 12h559q17 0 29 -12t12 -29v-203q0 -17 -12 -28.5t-29 -11.5h-559q-17 0 -29 11.5t-12 28.5z" />
<glyph unicode="." horiz-adv-x="538" d="M106 41v246q0 17 12 29t29 12h246q17 0 29 -12t12 -29v-246q0 -17 -12 -29t-29 -12h-246q-17 0 -29 12t-12 29z" />
<glyph unicode="/" horiz-adv-x="978" d="M86 33l545 1390q11 31 39 31h188q21 0 31.5 -17t1.5 -40l-541 -1391q-11 -31 -43 -31h-188q-21 0 -31.5 17.5t-1.5 40.5z" />
<glyph unicode="0" horiz-adv-x="1130" d="M94 717q0 158 15 287q23 191 148 321.5t308 130.5t308.5 -130.5t148.5 -321.5q15 -129 15 -287t-15 -287q-23 -191 -148.5 -322t-308.5 -131t-308 131t-148 322q-15 129 -15 287zM378 717q0 -162 15 -295q8 -71 55 -118.5t117 -47.5t117 47.5t55 118.5q15 134 15 295.5 t-15 294.5q-8 71 -55 118.5t-117 47.5t-117 -47.5t-55 -118.5q-15 -133 -15 -295z" />
<glyph unicode="1" horiz-adv-x="884" d="M31 758v205q0 56 32 90l308 331q45 50 102 50h227q17 0 29 -12t12 -29v-1352q0 -17 -12 -29t-29 -12h-202q-17 0 -29 12t-12 29v983q0 19 -15 22.5t-24 -6.5l-318 -315q-19 -19 -44 -8t-25 41z" />
<glyph unicode="2" horiz-adv-x="1069" d="M92 41v242q0 32 19 51l530 563q19 21 38 62t19 71q0 64 -40 107t-107 43q-76 0 -122 -41t-46 -109v-35q0 -17 -12 -29t-29 -12h-195q-17 0 -29 12t-12 29v33q0 179 128 303.5t309 124.5q182 0 307 -124t125 -304q0 -166 -127 -303l-385 -408q-12 -9 -8 -25t28 -16h453 q17 0 29 -11.5t12 -28.5v-195q0 -17 -12 -29t-29 -12h-803q-17 0 -29 12t-12 29z" />
<glyph unicode="3" horiz-adv-x="1087" d="M82 426v20q0 17 12 29t29 12h196q17 0 29 -12t12 -29v-20q0 -79 48.5 -124.5t130.5 -45.5q80 0 129 45.5t49 124.5t-49 124.5t-129 45.5h-25q-17 0 -29 12t-12 29v192q0 17 12 29t29 12h25q71 0 115 43t44 113q0 69 -44 110.5t-115 41.5q-70 0 -115 -42t-45 -110v-31 q0 -17 -12 -29t-29 -12h-197q-17 0 -29 12t-12 29v31q0 179 129 304.5t310 125.5q182 0 309 -125t127 -305q0 -73 -30 -143.5t-79 -124.5q-20 -20 0 -37q60 -49 94.5 -129.5t34.5 -165.5q0 -188 -133 -318.5t-323 -130.5t-323.5 130.5t-133.5 318.5z" />
<glyph unicode="4" horiz-adv-x="1058" d="M51 297v213q0 8 1.5 16t6 17t7 13.5t9.5 16t9 15.5l473 817q9 17 17.5 23t25.5 6h219q17 0 29 -12t12 -29v-858q0 -9 6 -15t15 -6h75q17 0 29 -12t12 -29v-176q0 -17 -12 -29t-29 -12h-75q-21 0 -21 -20v-195q0 -17 -12 -29t-29 -12h-184q-17 0 -29 12t-12 29v195 q0 20 -21 20h-481q-17 0 -29 12t-12 29zM333.5 521q3.5 -7 14.5 -7h225q9 0 15 6t6 15v434q0 10 -9 12t-14 -6l-235 -436q-6 -11 -2.5 -18z" />
<glyph unicode="5" horiz-adv-x="1134" d="M133 385q0 20 11.5 30.5t29.5 10.5h193q17 0 29 -12t12 -29q0 -64 52 -96.5t126 -32.5q89 0 134.5 58t45.5 155q0 41 -10 80.5t-30 74.5t-56 56.5t-84 21.5q-88 0 -135 -65q-16 -23 -50 -23h-198q-17 0 -29 12t-12 29v738q0 17 12 29t29 12h739q17 0 29 -12t12 -29v-197 q0 -17 -12 -29t-29 -12h-487q-21 0 -21 -20v-191q0 -19 13 -23.5t26 5.5q52 35 139 35q187 0 308.5 -138t121.5 -354q0 -94 -31 -181.5t-87.5 -157t-144.5 -111.5t-193 -42q-92 0 -172.5 25.5t-144 74.5t-100 128.5t-36.5 179.5z" />
<glyph unicode="6" horiz-adv-x="1114" d="M94 717q0 166 15 295q22 189 145.5 316.5t300.5 127.5q84 0 164 -29t142.5 -79.5t100 -126.5t37.5 -164q0 -17 -12 -29t-29 -12h-174q-47 0 -57 41q-13 57 -56 94t-116 37q-109 0 -156 -92q-30 -58 -30 -148q0 -21 15 -28.5t32 2.5q62 32 149 32q189 0 323 -133.5 t134 -322.5v-72q0 -188 -133.5 -318.5t-323.5 -130.5q-184 0 -309 127.5t-147 317.5q-15 129 -15 295zM383 422q6 -80 54.5 -128t127.5 -48t128 48t55 128q3 39 0 80q-6 81 -55.5 132.5t-127.5 51.5t-127 -51.5t-55 -132.5q-3 -41 0 -80z" />
<glyph unicode="7" horiz-adv-x="960" d="M51 1198v195q0 17 12 29t29 12h787q17 0 29 -12t12 -29v-246q0 -16 -11 -41l-467 -1075q-14 -31 -39 -31h-219q-25 0 -34.5 16.5t-2.5 32.5l482 1088q3 8 -1.5 14t-13.5 6h-522q-17 0 -29 12t-12 29z" />
<glyph unicode="8" horiz-adv-x="1126" d="M98 426q0 163 109 291q10 12 9.5 21.5t-11.5 23.5q-88 114 -88 264q0 180 130 305t318 125q189 0 318 -125t129 -305q0 -154 -90 -264q-21 -24 0 -45q110 -110 110 -291q0 -189 -135 -319t-332 -130t-332 130t-135 319zM369 426q0 -79 53.5 -127.5t142.5 -48.5t143 49 t54 127q0 79 -54.5 131.5t-142.5 52.5t-142 -52.5t-54 -131.5zM389 1026q0 -69 50.5 -117.5t125.5 -48.5q76 0 126 48t50 118q0 68 -50 113t-126 45q-75 0 -125.5 -45.5t-50.5 -112.5z" />
<glyph unicode="9" horiz-adv-x="1112" d="M92 381q0 17 12 29t29 12h166q47 0 57 -41q13 -59 58 -97t123 -38q156 0 198 131q17 53 17 115q0 20 -16.5 26.5t-33.5 -0.5q-90 -31 -167 -31q-178 0 -302 127t-135 312q-2 46 0 100q9 182 134 306t305 124q188 0 314 -126.5t148 -317.5q15 -129 15 -295t-15 -295 q-22 -190 -147 -317.5t-309 -127.5q-192 0 -321.5 116t-129.5 288zM379 920q8 -74 53.5 -122t114.5 -48t114.5 48t53.5 122q5 55 0 112q-6 71 -52 116.5t-116 45.5t-116 -45.5t-52 -116.5q-5 -57 0 -112z" />
<glyph unicode=":" horiz-adv-x="620" d="M147 41v246q0 17 12 29t29 12h246q17 0 29 -12t12 -29v-246q0 -17 -12 -29t-29 -12h-246q-17 0 -29 12t-12 29zM147 737v246q0 17 12 29t29 12h246q17 0 29 -12t12 -29v-246q0 -17 -12 -29t-29 -12h-246q-17 0 -29 12t-12 29z" />
<glyph unicode=";" horiz-adv-x="622" d="M143.5 -282q-13.5 25 1.5 53l111 202q6 10 -1 18.5t-17 8.5h-50q-17 0 -29 12t-12 29v246q0 17 12 29t29 12h246q17 0 29 -12t12 -29v-240q0 -83 -45 -141l-131 -172q-27 -41 -70 -41h-41q-31 0 -44.5 25zM147 737v246q0 17 12 29t29 12h246q17 0 29 -12t12 -29v-246 q0 -17 -12 -29t-29 -12h-246q-17 0 -29 12t-12 29z" />
<glyph unicode="&#x3c;" horiz-adv-x="983" d="M61 483v60q0 48 31 65l742 416q14 8 30.5 -3.5t16.5 -35.5v-215q0 -24 -31 -43l-414 -207q-6 -3 -6 -8t6 -8l414 -207q31 -15 31 -43v-215q0 -24 -16.5 -35.5t-30.5 -3.5l-742 418q-31 17 -31 65z" />
<glyph unicode="=" horiz-adv-x="1105" d="M102 219v178q0 17 12 29t29 12h820q17 0 29 -12t12 -29v-178q0 -17 -12 -29t-29 -12h-820q-17 0 -29 12t-12 29zM102 627v178q0 17 12 29t29 12h820q17 0 29 -12t12 -29v-178q0 -17 -12 -29t-29 -12h-820q-17 0 -29 12t-12 29z" />
<glyph unicode="&#x3e;" horiz-adv-x="983" d="M102 39v215q0 28 31 43l414 207q6 3 6 8t-6 8l-414 207q-31 15 -31 43v215q0 23 16.5 35t31.5 4l741 -416q31 -17 31 -65v-60q0 -48 -31 -65l-741 -418q-15 -8 -31.5 4t-16.5 35z" />
<glyph unicode="?" horiz-adv-x="989" d="M61 995v31q0 181 128 309.5t307 128.5q183 0 307.5 -116.5t124.5 -296.5q0 -115 -58.5 -206t-140.5 -151q-58 -42 -76 -78.5t-18 -109.5v-21q0 -17 -12 -29t-29 -12h-205q-17 0 -29 12t-12 29v21q0 5 -0.5 28.5t0 34.5t2 34.5t5.5 40t10 38t16.5 41t24.5 37.5 q26 33 85 77t72 56q78 74 78 143q0 65 -41 104.5t-104 39.5q-66 0 -107 -44.5t-41 -105.5v-35q0 -17 -12 -29t-29 -12h-205q-17 0 -29 12t-12 29zM328 41v246q0 17 12 29t29 12h245q17 0 29 -12t12 -29v-246q0 -17 -12 -29t-29 -12h-245q-17 0 -29 12t-12 29z" />
<glyph unicode="@" horiz-adv-x="1710" d="M123 553q0 213 96 386t267.5 272.5t383.5 99.5q220 0 384.5 -92t248.5 -249t84 -356q0 -212 -80 -341.5t-217 -129.5q-83 0 -145 41q-58 38 -117 0q-71 -41 -160 -41q-99 0 -174 32t-119 89.5t-65 129t-21 157.5q0 182 103.5 300t275.5 118q145 0 241.5 -81.5 t96.5 -211.5v-246q0 -42 23 -62t51 -20q50 0 76 61t26 205q0 234 -140 371t-372 137q-108 0 -205 -40t-169.5 -112t-115 -181t-42.5 -238q0 -239 149 -393t381 -154q125 0 217 43q20 9 35 -0.5t15 -30.5v-98q0 -6 -1.5 -11.5t-3 -9.5t-5 -8t-6 -6.5t-8 -6t-8 -5t-9.5 -5.5 t-9 -5q-32 -19 -95.5 -32t-121.5 -13q-177 0 -319.5 57.5t-235 158t-141.5 234t-49 287.5zM709 551q0 -100 40 -161.5t119 -61.5q57 0 98.5 31t41.5 85v191q0 79 -39 113t-101 34q-68 0 -113.5 -64.5t-45.5 -166.5z" />
<glyph unicode="A" horiz-adv-x="1099" d="M8 41l367 1362q3 13 14 22t25 9h274q14 0 25 -9t14 -22l365 -1362q1 -3 1 -7q-1 -11 -9 -21q-10 -13 -33 -13h-215q-29 0 -39 31l-64 211q-7 30 -31 30h-311q-24 0 -31 -30l-57 -211q-3 -13 -14 -22t-25 -9h-215q-23 0 -33 13q-8 10 -9 21q0 4 1 7zM438 582q-1 -5 -1 -9 q0 -14 18 -14h188q17 0 17 14q0 4 -1 9l-98 491q-3 8 -10 8h-4q-7 0 -10 -8z" />
<glyph unicode="B" horiz-adv-x="1128" d="M133 41v1352q0 17 12 29t29 12h483q171 0 287.5 -122t116.5 -296q0 -67 -30 -140t-75 -118q-20 -20 0 -37q52 -43 86.5 -122.5t34.5 -156.5q0 -200 -115.5 -321t-304.5 -121h-483q-17 0 -29 12t-12 29zM414 307q0 -20 20 -20h213q64 0 104 45.5t40 109.5q0 62 -40.5 108 t-103.5 46h-213q-20 0 -20 -21v-268zM414 903q0 -20 20 -20h213q54 0 94.5 39.5t40.5 93.5t-40.5 92.5t-94.5 38.5h-213q-20 0 -20 -21v-223z" />
<glyph unicode="C" horiz-adv-x="1165" d="M94 717q0 158 15 287q11 93 49 174.5t98.5 143.5t148.5 98t191 36q212 0 349.5 -131.5t137.5 -335.5v-2q0 -16 -12 -28.5t-29 -12.5h-204q-17 0 -29 12t-12 29v2q0 69 -55 123.5t-146 54.5q-89 0 -140 -45.5t-59 -117.5q-15 -129 -15 -287t15 -287q8 -72 59 -118t140 -46 q87 0 144 53.5t57 122.5v2q0 17 12 30t29 13h204q17 0 29 -12t12 -29v-2q0 -205 -137 -336t-350 -131q-103 0 -191 36t-148.5 98.5t-98.5 144t-49 174.5q-15 129 -15 287z" />
<glyph unicode="D" horiz-adv-x="1169" d="M133 41v1352q0 17 12 29t29 12h430q183 0 308.5 -131t148.5 -322q16 -132 16 -264t-16 -264q-23 -191 -148.5 -322t-308.5 -131h-430q-17 0 -29 12t-12 29zM420 307q0 -20 20 -20h164q68 0 114 48t54 118q16 132 16 264t-16 264q-8 70 -54 118t-114 48h-164 q-20 0 -20 -21v-819z" />
<glyph unicode="E" horiz-adv-x="1048" d="M133 41v1352q0 17 12 29t29 12h744q17 0 28.5 -12t11.5 -29v-205q0 -17 -11.5 -29t-28.5 -12h-478q-20 0 -20 -21v-245q0 -21 20 -21h461q17 0 29 -12t12 -29v-205q0 -17 -12 -29t-29 -12h-461q-20 0 -20 -20v-246q0 -20 20 -20h486q17 0 29 -12t12 -29v-205 q0 -17 -12 -29t-29 -12h-752q-17 0 -29 12t-12 29z" />
<glyph unicode="F" horiz-adv-x="972" d="M133 41v1352q0 17 12 29t29 12h717q17 0 29 -12t12 -29v-205q0 -17 -12 -29t-29 -12h-451q-20 0 -20 -21v-245q0 -21 20 -21h430q17 0 29 -12t12 -29v-205q0 -17 -12 -29t-29 -12h-430q-20 0 -20 -20v-512q0 -17 -12 -29t-29 -12h-205q-17 0 -29 12t-12 29z" />
<glyph unicode="G" horiz-adv-x="1171" d="M94 717q0 158 15 287q11 93 49 174.5t98.5 143.5t148.5 98t191 36q212 0 349.5 -131.5t137.5 -335.5v-2q0 -16 -12 -28.5t-29 -12.5h-204q-17 0 -29 12t-12 29v2q0 69 -55 123.5t-146 54.5q-89 0 -140 -45.5t-59 -117.5q-15 -129 -15 -287t15 -287q8 -72 59 -118t140 -46 q92 0 149.5 45t57.5 115v88q0 9 -6 15t-15 6h-139q-17 0 -29 11.5t-12 28.5v195q0 17 12 29t29 12h399q17 0 29 -12t12 -29v-344q0 -187 -139.5 -318t-347.5 -131q-103 0 -191 36t-148.5 98.5t-98.5 144t-49 174.5q-15 129 -15 287z" />
<glyph unicode="H" d="M133 41v1352q0 17 12 29t29 12h205q17 0 29 -12t12 -29v-512q0 -21 20 -21h312q20 0 20 21v512q0 17 12 29t29 12h205q17 0 29 -12t12 -29v-1352q0 -17 -12 -29t-29 -12h-205q-17 0 -29 12t-12 29v512q0 20 -20 20h-312q-20 0 -20 -20v-512q0 -17 -16.5 -29t-34.5 -12 h-195q-17 0 -29 12t-12 29z" />
<glyph unicode="I" horiz-adv-x="552" d="M133 41v1352q0 17 12 29t29 12h205q17 0 29 -12t12 -29v-1352q0 -17 -12 -29t-29 -12h-205q-17 0 -29 12t-12 29z" />
<glyph unicode="J" horiz-adv-x="1069" d="M10 432v57q0 17 12 29t29 12h207q17 0 29 -12t12 -29v-57q0 -71 51.5 -118.5t134.5 -47.5q84 0 134.5 50.5t50.5 136.5v940q0 17 12 29t29 12h207q17 0 28.5 -12t11.5 -29v-961q0 -93 -34 -176.5t-94.5 -145t-150 -97.5t-194.5 -36q-201 0 -338 133t-137 322z" />
<glyph unicode="K" horiz-adv-x="1128" d="M133 41v1352q0 17 12 29t29 12h203q17 0 29 -12t12 -29v-471q0 -9 8 -11t12 4l338 498q16 21 45 21h207q29 0 40 -25.5t-5 -48.5l-383 -565q-13 -21 -12.5 -35t12.5 -33l420 -649q8 -12 8 -25q0 -12 -6 -25q-13 -28 -45 -28h-221q-33 0 -48 25l-350 559q-4 6 -12 4.5 t-8 -10.5v-537q0 -17 -12 -29t-29 -12h-203q-17 0 -29 12t-12 29z" />
<glyph unicode="L" horiz-adv-x="931" d="M133 41v1352q0 17 12 29t29 12h205q17 0 29 -12t12 -29v-1086q0 -20 20 -20h430q17 0 29 -12t12 -29v-205q0 -17 -12 -29t-29 -12h-696q-17 0 -29 12t-12 29z" />
<glyph unicode="M" horiz-adv-x="1488" d="M133 41v1352q0 17 12 29t29 12h303q35 0 43 -35l209 -897q3 -10 12.5 -10t12.5 10l217 897q8 35 43 35h301q17 0 29 -12t12 -29v-1352q0 -17 -12 -29t-29 -12h-180q-17 0 -29 12t-12 29v772q0 9 -8 11t-11 -7l-209 -782q-8 -35 -43 -35h-161q-36 0 -44 35l-204 782 q-3 9 -11 7t-8 -11v-772q0 -17 -12 -29t-29 -12h-180q-17 0 -29 12t-12 29z" />
<glyph unicode="N" horiz-adv-x="1187" d="M133 41v1352q0 17 12 29t29 12h244q39 0 51 -37l281 -779q3 -9 10.5 -6.5t7.5 11.5v770q0 17 12 29t29 12h205q17 0 29 -12t12 -29v-1352q0 -17 -12 -29t-29 -12h-242q-42 0 -55 35l-279 719q-3 9 -10.5 7t-7.5 -11v-709q0 -17 -12 -29t-29 -12h-205q-17 0 -29 12t-12 29 z" />
<glyph unicode="O" d="M94 717q0 158 15 287q11 93 49 174.5t98.5 143.5t148.5 98t191 36t191 -36t148.5 -98t98.5 -143.5t49 -174.5q15 -129 15 -287t-15 -287q-11 -93 -49 -174.5t-98.5 -144t-148.5 -98.5t-191 -36t-191 36t-148.5 98.5t-98.5 144t-49 174.5q-15 129 -15 287zM382 717 q0 -158 15 -287q8 -72 59 -118t140 -46t140 46t59 118q15 129 15 287t-15 287q-8 72 -59 117.5t-140 45.5t-140 -45.5t-59 -117.5q-15 -129 -15 -287z" />
<glyph unicode="P" horiz-adv-x="1075" d="M133 41v1352q0 17 12 29t29 12h451q177 0 303.5 -126.5t126.5 -303.5q0 -178 -126.5 -304.5t-303.5 -126.5h-185q-20 0 -20 -20v-512q0 -17 -12 -29t-29 -12h-205q-17 0 -29 12t-12 29zM420 881q0 -21 20 -21h185q59 0 101 42t42 102q0 58 -42 100.5t-101 42.5h-185 q-20 0 -20 -21v-245z" />
<glyph unicode="Q" d="M94 717q0 158 15 287q11 93 49 174.5t98.5 143.5t148.5 98t191 36t191 -36t148.5 -98t98.5 -143.5t49 -174.5q15 -129 15 -287t-15 -287q-11 -90 -48 -174.5t-91 -138.5q-20 -20 -8 -45l92 -183q6 -16 7 -32t-13.5 -28.5t-42.5 -12.5h-188q-17 0 -28.5 7t-17.5 15.5 t-16 26.5l-47 92q-11 20 -37 20h-49q-103 0 -191 36t-148.5 98.5t-98.5 144t-49 174.5q-15 129 -15 287zM382 717q0 -158 15 -287q8 -72 59 -118t140 -46t140 46t59 118q15 129 15 287t-15 287q-8 72 -59 117.5t-140 45.5t-140 -45.5t-59 -117.5q-15 -129 -15 -287z" />
<glyph unicode="R" horiz-adv-x="1146" d="M133 41v1352q0 17 12 29t29 12h451q177 0 303.5 -126.5t126.5 -303.5q0 -117 -51.5 -202.5t-161.5 -160.5q-21 -14 -23 -30t10 -38l220 -512q6 -12 6 -23q-1 -10 -5 -19q-10 -19 -40 -19h-211q-44 0 -60 41l-209 506q-10 26 -36 26h-54q-20 0 -20 -20v-512q0 -17 -12 -29 t-29 -12h-205q-17 0 -29 12t-12 29zM420 881q0 -21 20 -21h185q59 0 101 42t42 102q0 58 -42 100.5t-101 42.5h-185q-20 0 -20 -21v-245z" />
<glyph unicode="S" horiz-adv-x="1110" d="M61 426v61q0 17 12 29t29 12h207q17 0 29 -12t12 -29v-61q0 -73 53 -120.5t146 -47.5q91 0 147 47.5t56 120.5q0 65 -48 101t-165 63q-81 18 -146.5 41.5t-125 60t-100 82t-64 109.5t-23.5 141q0 183 134 307.5t335 124.5q204 0 337.5 -124.5t133.5 -307.5v-31 q0 -17 -12 -29t-29 -12h-207q-17 0 -29 12t-12 29v31q0 65 -49 109.5t-133 44.5t-131 -40t-47 -104q0 -56 49.5 -93.5t132.5 -53.5q113 -23 198.5 -57t155 -87.5t106 -133t36.5 -183.5q0 -199 -140.5 -324t-359.5 -125q-210 0 -349 130t-139 319z" />
<glyph unicode="T" horiz-adv-x="929" d="M4 1188v205q0 17 12 29t29 12h840q17 0 29 -12t12 -29v-205q0 -17 -12 -29t-29 -12h-256q-9 0 -15 -6t-6 -15v-1085q0 -17 -12 -29t-29 -12h-205q-17 0 -28.5 12t-11.5 29v1085q0 9 -6 15t-15 6h-256q-17 0 -29 12t-12 29z" />
<glyph unicode="U" d="M111 430v963q0 17 12 29t29 12h206q17 0 29 -12t12 -29v-963q0 -70 53.5 -117t141.5 -47q91 0 145 47t54 117v963q0 17 12 29t29 12h206q17 0 29 -12t12 -29v-963q0 -189 -139 -321t-348 -132q-207 0 -345 132.5t-138 320.5z" />
<glyph unicode="V" horiz-adv-x="1120" d="M12 1384q-2 5 -2 11q0 11 8 23q10 16 33 16h225q34 0 39 -31l226 -961q3 -14 14 -14h12q11 0 15 14l223 961q5 31 39 31h225q23 0 33 -16q7 -11 8 -23q0 -5 -2 -11l-354 -1353q-9 -31 -39 -31h-309q-30 0 -39 31z" />
<glyph unicode="W" horiz-adv-x="1550" d="M12 1393q-1 4 -1 7q1 12 9 22q10 12 33 12h205q34 0 39 -31l168 -903q3 -15 14 -15h13q11 0 14 15l137 903q6 31 39 31h184q33 0 39 -31l139 -903q3 -15 15 -15h12q11 0 14 15l168 903q5 31 39 31h205q23 0 33 -12q8 -10 9 -22q0 -3 -1 -7l-276 -1362q-6 -31 -39 -31 h-285q-33 0 -39 31l-113 665q-2 12 -12 12t-12 -12l-113 -665q-6 -31 -39 -31h-284q-33 0 -39 31z" />
<glyph unicode="X" horiz-adv-x="1110" d="M35 57l301 682q6 13 6 21.5t-6 23.5l-266 592q-9 22 1.5 40t30.5 18h232q26 0 39 -31l170 -424q3 -9 12 -9t12 9l170 424q13 31 39 31h232q20 0 30.5 -18t1.5 -40l-266 -594q-6 -15 -6 -23t6 -22l301 -680q4 -10 4 -19q1 -11 -5 -20q-10 -18 -32 -18h-241q-32 0 -43 31 l-191 485q-3 9 -12 9t-12 -9l-191 -485q-11 -31 -43 -31h-241q-22 0 -32 18q-6 10 -5 20q0 9 4 19z" />
<glyph unicode="Y" horiz-adv-x="1060" d="M25 1376q-4 11 -4 21t5 19q10 18 31 18h226q28 0 39 -31l196 -567q3 -9 12.5 -9t12.5 9l196 567q11 31 39 31h226q21 0 31 -18q5 -9 5 -19t-4 -21l-362 -913v-422q0 -17 -12 -29t-29 -12h-205q-17 0 -29 12t-12 29v422z" />
<glyph unicode="Z" horiz-adv-x="1069" d="M70 41v244q0 15 10 32l565 816q5 7 1.5 13.5t-13.5 6.5h-492q-17 0 -29 12t-12 29v199q0 17 12 29t29 12h797q17 0 29 -12t12 -29v-238q0 -16 -10 -33l-563 -821q-5 -7 -1.5 -13.5t13.5 -6.5h540q17 0 29 -12t12 -29v-199q0 -17 -12 -29t-29 -12h-847q-17 0 -29 12 t-12 29z" />
<glyph unicode="[" horiz-adv-x="679" d="M143 -143v1577q0 17 12 29t29 12h414q17 0 29 -12t12 -29v-168q0 -17 -12 -29t-29 -12h-184q-9 0 -15 -6t-6 -15v-1118q0 -20 21 -20h184q17 0 29 -12t12 -29v-168q0 -17 -12 -29t-29 -12h-414q-17 0 -29 12t-12 29z" />
<glyph unicode="\" horiz-adv-x="974" d="M100 1397q-9 23 1.5 40t31.5 17h189q27 0 38 -31l545 -1390q9 -23 -1.5 -40.5t-31.5 -17.5h-188q-32 0 -43 31z" />
<glyph unicode="]" horiz-adv-x="679" d="M41 25q0 17 12 29t29 12h184q21 0 21 20v1118q0 9 -6 15t-15 6h-184q-17 0 -29 12t-12 29v168q0 17 12 29t29 12h414q17 0 29 -12t12 -29v-1577q0 -17 -12 -29t-29 -12h-414q-17 0 -29 12t-12 29v168z" />
<glyph unicode="^" horiz-adv-x="1050" d="M165.5 1188.5q-5.5 21.5 6.5 30.5l244 251q25 25 61 25h127q35 0 60 -25l243 -251q12 -9 5.5 -30.5t-31.5 -21.5h-193q-39 0 -63 33l-72 90q-6 9 -14.5 9t-14.5 -9l-71 -90q-24 -33 -64 -33h-194q-24 0 -29.5 21.5z" />
<glyph unicode="_" horiz-adv-x="1304" d="M41 -41q0 17 12 29t29 12h1141q17 0 29 -12t12 -29v-121q0 -17 -12 -29t-29 -12h-1141q-17 0 -29 12t-12 29v121z" />
<glyph unicode="`" horiz-adv-x="739" d="M104 1477q7 18 35 18h219q30 0 54 -33l168 -233q17 -25 6 -43.5t-33 -18.5h-141q-37 0 -62 25l-235 248q-18 19 -11 37z" />
<glyph unicode="a" horiz-adv-x="1048" d="M88 315q0 55 22.5 110t64.5 102.5t111 77.5t154 30h209q21 0 21 20v33q0 61 -43.5 93t-114.5 32q-19 0 -38.5 -3t-42 -11t-39 -24.5t-21.5 -39.5q-6 -25 -16.5 -32t-39.5 -7h-147q-17 0 -29 12t-12 29q0 127 108.5 218.5t286.5 91.5q189 0 299.5 -97.5t110.5 -273.5v-635 q0 -17 -12 -29t-29 -12h-103q-17 0 -28 14q-3 4 -9 16.5t-13 18.5t-19 6q-11 0 -33 -12t-46.5 -27t-69.5 -27t-97 -12q-180 0 -282.5 89t-102.5 249zM338 315q0 -54 37.5 -81t97.5 -27q207 0 207 141v49q0 9 -6 15t-15 6h-217q-40 0 -65.5 -20.5t-32 -41.5t-6.5 -41z" />
<glyph unicode="b" horiz-adv-x="1064" d="M133 41v1372q0 17 12 29t29 12h184q17 0 29 -12t12 -29v-348q0 -32 18.5 -42.5t43.5 -0.5q60 25 123 25q159 0 268 -109t121 -272q6 -77 5.5 -154t-5.5 -154q-12 -163 -121 -272t-268 -109q-52 0 -91.5 11t-58 24t-39 24t-39.5 11q-23 0 -51 -33q-14 -14 -29 -14h-102 q-17 0 -29 12t-12 29zM397 358q5 -56 44 -89t112 -33q71 0 111 34t43 88q6 77 5.5 154t-5.5 154q-3 54 -43 88t-111 34q-147 0 -156 -122q-6 -77 -6 -154t6 -154z" />
<glyph unicode="c" horiz-adv-x="1019" d="M86 512q0 92 8 154q21 169 132.5 275t293.5 106q114 0 208 -46.5t152 -139.5t58 -216q0 -18 -9 -29.5t-26 -11.5h-182q-36 0 -39 33q-9 143 -164 143q-76 0 -113 -27.5t-45 -86.5q-8 -61 -8 -154t8 -154q13 -114 160 -114q72 0 111.5 31.5t50.5 111.5q6 33 39 33h182 q17 0 26 -11.5t9 -29.5q0 -121 -58 -214t-152 -140.5t-208 -47.5q-182 0 -293.5 106t-132.5 275q-8 62 -8 154z" />
<glyph unicode="d" horiz-adv-x="1064" d="M92 358q-6 77 -6 154t6 154q12 163 121 272t268 109q63 0 123 -25q25 -10 43.5 0.5t18.5 42.5v348q0 17 12 29t29 12h184q17 0 29 -12t12 -29v-1372q0 -17 -12 -29t-29 -12h-103q-14 0 -28 14q-28 33 -51 33q-19 0 -39.5 -11t-39 -24t-58 -24t-91.5 -11q-159 0 -268 109 t-121 272zM358 358q3 -54 43 -88t111 -34q73 0 112 33t44 89q6 77 6 154t-6 154q-9 122 -156 122q-71 0 -111 -34t-43 -88q-6 -77 -6 -154t6 -154z" />
<glyph unicode="e" horiz-adv-x="1021" d="M86 512q0 92 8 154q21 168 132 274.5t292 106.5q188 0 303 -107.5t115 -298.5v-170q0 -17 -12 -29t-29 -12h-526q-13 0 -22 -9t-9 -22q0 -82 51.5 -128t128.5 -46q64 0 103.5 19.5t58.5 66.5q13 35 47 35h170q18 0 29 -11t6 -34q-37 -148 -143 -236t-271 -88 q-181 0 -292 106.5t-132 274.5q-8 62 -8 154zM340 676q0 -19 20 -19h312q20 0 20 19q0 62 -51 95.5t-123 33.5q-86 0 -132 -34.5t-46 -94.5z" />
<glyph unicode="f" horiz-adv-x="829" d="M10 813v164q0 17 12 29t29 12h164q21 0 21 20v41q0 158 114 266.5t275 108.5h123q17 0 28.5 -12t11.5 -29v-184q0 -17 -11.5 -29t-28.5 -12h-123q-52 0 -87.5 -31.5t-35.5 -81.5v-37q0 -20 20 -20h246q17 0 29 -12t12 -29v-164q0 -17 -12 -29t-29 -12h-246q-20 0 -20 -20 v-711q0 -17 -12 -29t-29 -12h-185q-17 0 -28.5 12t-11.5 29v711q0 20 -21 20h-164q-17 0 -29 12t-12 29z" />
<glyph unicode="g" horiz-adv-x="1058" d="M92 358q-6 77 -6 154t6 154q12 163 121 272t268 109q52 0 91.5 -11t58 -24t39 -24t39.5 -11q23 0 51 33q14 14 28 14h103q17 0 29 -12t12 -29v-1044q0 -157 -116.5 -268t-287.5 -111q-166 0 -284.5 96t-118.5 242q0 17 12 29t29 12h153q8 0 14.5 -0.5t11.5 -2.5t8.5 -3 t6.5 -4.5t4.5 -5t3 -7t2 -7.5t2 -9t1.5 -9q8 -38 46 -63t97 -25q61 0 105.5 36t44.5 100v20q0 31 -16.5 42t-45.5 1q-72 -25 -123 -25q-159 0 -268 109t-121 272zM358 358q3 -54 43 -88t111 -34q73 0 112 33t44 89q6 77 6 154t-6 154q-9 122 -156 122q-71 0 -111 -34 t-43 -88q-6 -77 -6 -154t6 -154z" />
<glyph unicode="h" horiz-adv-x="1085" d="M133 41v1372q0 17 12 29t29 12h184q17 0 29 -12t12 -29v-348q0 -27 17 -40t45 -3q72 25 123 25q162 0 275.5 -110.5t113.5 -270.5v-625q0 -17 -12 -29t-29 -12h-184q-17 0 -29 12t-12 29v625q0 53 -41.5 87.5t-112.5 34.5t-112.5 -34.5t-41.5 -87.5v-625q0 -17 -12 -29 t-29 -12h-184q-17 0 -29 12t-12 29z" />
<glyph unicode="i" horiz-adv-x="532" d="M123 1200v221q0 12 10 22.5t23 10.5h221q13 0 23 -10.5t10 -22.5v-221q0 -14 -10 -23.5t-23 -9.5h-221q-14 0 -23.5 9.5t-9.5 23.5zM133 33v958q0 12 10 22.5t23 10.5h201q13 0 22.5 -10.5t9.5 -22.5v-958q0 -12 -9.5 -22.5t-22.5 -10.5h-201q-13 0 -23 10.5t-10 22.5z " />
<glyph unicode="j" horiz-adv-x="532" d="M-154 -238q0 17 12 29t29 12h86q61 0 105.5 36t44.5 100v1044q0 17 12 29t29 12h184q17 0 29 -12t12 -29v-1044q0 -157 -116 -268t-287 -111h-99q-17 0 -29 12t-12 29v161zM113 1200v221q0 12 9.5 22.5t22.5 10.5h222q13 0 22.5 -10.5t9.5 -22.5v-221q0 -14 -9.5 -23.5 t-22.5 -9.5h-222q-13 0 -22.5 9.5t-9.5 23.5z" />
<glyph unicode="k" horiz-adv-x="1005" d="M133 41v1372q0 17 12 29t29 12h184q17 0 29 -12t12 -29v-715q0 -9 8.5 -10.5t12.5 4.5l237 305q18 27 52 27h202q30 0 39.5 -25.5t-6.5 -42.5l-305 -378q-14 -17 -13.5 -29.5t15.5 -32.5l334 -448q11 -14 11 -28q0 -9 -4 -17q-11 -23 -40 -23h-213q-32 0 -53 31l-256 354 q-4 6 -12.5 4.5t-8.5 -10.5v-338q0 -17 -12 -29t-29 -12h-184q-17 0 -29 12t-12 29z" />
<glyph unicode="l" horiz-adv-x="532" d="M133 41v1372q0 17 12 29t29 12h184q17 0 29 -12t12 -29v-1372q0 -17 -12 -29t-29 -12h-184q-17 0 -29 12t-12 29z" />
<glyph unicode="m" horiz-adv-x="1576" d="M123 41v942q0 17 12 29t29 12h102q23 0 37 -14q2 -2 12.5 -15.5t19.5 -18.5t23 -5q23 0 53.5 19t73 38t93.5 19q66 0 112 -19.5t94 -56.5q22 -16 45 -16t48 16q113 76 219 76q161 0 270 -110t109 -271v-625q0 -17 -12 -29t-29 -12h-185q-17 0 -29 12t-12 29v627 q0 53 -34.5 86.5t-98.5 33.5q-65 0 -104 -35t-39 -87v-625q0 -17 -12 -29t-29 -12h-184q-17 0 -29 12t-12 29v627q0 53 -35 86.5t-99 33.5q-63 0 -103 -32.5t-40 -79.5v-635q0 -17 -12 -29t-29 -12h-184q-17 0 -29 12t-12 29z" />
<glyph unicode="n" horiz-adv-x="1075" d="M123 41v942q0 17 12 29t29 12h102q23 0 37 -14q2 -2 13 -14t20 -16.5t22 -4.5q23 0 54 18t75 36t97 18q161 0 270 -110t109 -271v-625q0 -17 -12 -29t-29 -12h-185q-17 0 -29 12t-12 29v627q0 53 -40.5 86.5t-112.5 33.5q-70 0 -112 -32.5t-42 -79.5v-635q0 -17 -12 -29 t-29 -12h-184q-17 0 -29 12t-12 29z" />
<glyph unicode="o" horiz-adv-x="1038" d="M86 512q0 92 8 154q21 168 132 274.5t292 106.5q182 0 293.5 -106t132.5 -275q8 -61 8 -154t-8 -154q-21 -168 -132 -274.5t-292 -106.5q-182 0 -293.5 106t-132.5 275q-8 62 -8 154zM351 511.5q0 -92.5 9 -153.5q16 -114 158 -114q143 0 160 114q9 61 9 154t-9 154 q-17 114 -160 114q-75 0 -112 -27.5t-46 -86.5q-9 -62 -9 -154.5z" />
<glyph unicode="p" horiz-adv-x="1054" d="M123 -369v1352q0 17 12 29t29 12h102q15 0 29 -14q28 -33 51 -33q19 0 39.5 11t39 24t57.5 24t91 11q159 0 268.5 -109t121.5 -272q5 -77 5 -154t-5 -154q-12 -163 -121.5 -272t-268.5 -109q-62 0 -122 25q-25 10 -43.5 -0.5t-18.5 -42.5v-328q0 -17 -12 -29t-29 -12 h-184q-17 0 -29 12t-12 29zM387 358q9 -122 156 -122q71 0 110.5 34t42.5 88q6 77 6 154t-6 154q-3 54 -42.5 88t-110.5 34q-73 0 -112 -33t-44 -89q-5 -77 -5 -154t5 -154z" />
<glyph unicode="q" horiz-adv-x="1071" d="M109 358q-5 77 -5 154t5 154q12 163 121 272t268 109q52 0 91 -11t57.5 -24t39 -24t39.5 -11q23 0 51 33q14 14 29 14h102q17 0 29 -12t12 -29v-1352q0 -17 -12 -29t-29 -12h-184q-17 0 -29 12t-12 29v328q0 32 -18 42.5t-43 0.5q-60 -25 -123 -25q-159 0 -268 109 t-121 272zM375 358q3 -54 42.5 -88t110.5 -34q147 0 156 122q6 77 6 154t-6 154q-5 56 -44 89t-112 33q-71 0 -110.5 -34t-42.5 -88q-5 -77 -5 -154t5 -154z" />
<glyph unicode="r" horiz-adv-x="778" d="M123 41v942q0 17 12 29t29 12h102q13 0 26 -7.5t17 -19.5q2 -5 7 -22t8 -24.5t9 -18.5t14 -16t18 -5q17 0 34.5 11.5t37.5 28t46.5 33.5t71.5 28.5t102 11.5h70q17 0 29 -12t12 -29v-164q0 -17 -12 -29t-29 -12h-72q-120 0 -193 -63.5t-73 -184.5v-489q0 -17 -12 -29 t-29 -12h-184q-17 0 -29 12t-12 29z" />
<glyph unicode="s" horiz-adv-x="1003" d="M66 336q0 17 11.5 29t28.5 12h156q35 0 47 -11.5t15 -39.5q11 -107 180 -107q86 0 137 25t51 71q0 20 -11.5 35.5t-26.5 24.5t-44 16.5t-49.5 10.5t-56.5 8q-412 56 -412 327q0 87 62 160t156 111.5t194 38.5q73 0 141.5 -19t129 -56.5t97.5 -103.5t37 -151 q0 -17 -12 -29t-29 -12h-153q-40 0 -47 51q-7 48 -54 71t-110 23q-73 0 -118.5 -21.5t-45.5 -62.5q0 -10 2.5 -18.5t9 -15t12.5 -11.5t17.5 -9.5t19.5 -7.5t23.5 -6.5t24.5 -5.5t27.5 -5t27.5 -5q149 -29 186 -40q173 -50 224 -170q24 -57 24 -132q0 -148 -127 -241 t-307 -93q-88 0 -164 20.5t-138.5 62t-99 112.5t-36.5 164z" />
<glyph unicode="t" horiz-adv-x="825" d="M10 813v164q0 17 12 29t29 12h160q20 0 20 20v314q0 17 12 29t29 12h185q17 0 29 -12t12 -29v-314q0 -20 20 -20h225q17 0 29 -12t12 -29v-164q0 -17 -12 -29t-29 -12h-225q-20 0 -20 -20v-373q0 -52 34.5 -87.5t88.5 -35.5h143q17 0 29 -12t12 -29v-174q0 -17 -12 -29 t-29 -12h-143q-176 0 -283 101t-107 274v377q0 20 -20 20h-160q-17 0 -29 12t-12 29z" />
<glyph unicode="u" horiz-adv-x="1075" d="M113 358v625q0 17 12 29t29 12h184q17 0 29 -12t12 -29v-627q0 -53 40.5 -86.5t112.5 -33.5q70 0 112 32.5t42 79.5v635q0 17 12 29t29 12h184q17 0 29 -12t12 -29v-942q0 -17 -12 -29t-29 -12h-102q-27 0 -47 20q-25 21 -45 21q-23 0 -51.5 -16t-69.5 -32t-94 -16 q-162 0 -275.5 110.5t-113.5 270.5z" />
<glyph unicode="v" horiz-adv-x="1064" d="M35 977q-2 6 -2 11q0 10 7 20q11 16 34 16h205q27 0 38 -31l201 -583q3 -10 12.5 -10t12.5 10l205 583q11 31 38 31h205q23 0 34 -16q7 -10 7 -20q0 -6 -2 -11l-348 -946q-12 -31 -39 -31h-217q-27 0 -39 31z" />
<glyph unicode="w" horiz-adv-x="1464" d="M33 977q-2 5 -2 11q-1 11 7 21q10 15 34 15h186q31 0 39 -31l152 -602q2 -9 11 -9.5t11 9.5l117 602q5 31 39 31h200q34 0 39 -31l127 -602q2 -9 11 -9.5t12 9.5l151 602q8 31 39 31h187q23 0 33 -15q7 -10 8 -21q0 -5 -2 -11l-281 -946q-9 -31 -39 -31h-221 q-33 0 -39 31l-113 475q-1 6 -11 6t-11 -6l-101 -475q-6 -31 -38 -31h-222q-30 0 -39 31z" />
<glyph unicode="x" horiz-adv-x="1030" d="M56 21q-4 8 -4 17q0 14 9 30l273 442q15 23 0 45l-238 401q-15 26 -5.5 47t38.5 21h190q34 0 46 -20l141 -256q12 -24 24 0l142 256q12 20 45 20h190q29 0 38.5 -21t-5.5 -47l-242 -401q-15 -22 0 -45l271 -442q9 -16 9 -30q0 -9 -4 -17q-10 -21 -38 -21h-207 q-33 0 -45 20l-154 291q-12 24 -24 0l-160 -291q-12 -20 -45 -20h-207q-28 0 -38 21z" />
<glyph unicode="y" horiz-adv-x="983" d="M14 977q-2 6 -2 11q0 10 7 20q11 16 34 16h211q28 0 39 -31l180 -581q5 -12 13.5 -12t11.5 12l166 581q8 31 39 31h207q23 0 34 -16q7 -9 7 -19q0 -6 -3 -12l-481 -1356q-11 -31 -39 -31h-188q-23 0 -34.5 16t-4.5 32l143 382q8 25 0 46z" />
<glyph unicode="z" horiz-adv-x="958" d="M61 41v184q0 23 4 34t23 30l465 469q6 8 2.5 14t-12.5 6h-420q-17 0 -29 12t-12 29v164q0 17 12 29t29 12h713q17 0 29 -12t12 -29v-178q0 -43 -41 -84l-439 -455q-6 -8 -2 -14t13 -6h448q17 0 29 -12t12 -29v-164q0 -17 -12 -29t-29 -12h-754q-17 0 -29 12t-12 29z" />
<glyph unicode="{" horiz-adv-x="851" d="M82 614v82q0 25 41 41l22 11q37 16 37 40v256q0 84 34.5 162.5t94.5 137.5t146.5 95t185.5 36h86q17 0 29 -12t12 -29v-181q0 -17 -12 -29t-29 -12h-86q-37 0 -69 -8t-60.5 -26.5t-45 -52.5t-17.5 -81l-2 -256q0 -47 -27 -81t-57 -52q30 -18 57 -52.5t27 -80.5v-276 q0 -76 52.5 -122t141.5 -46h86q17 0 29 -12t12 -29v-180q0 -17 -12 -29t-29 -12h-86q-124 0 -228 51t-168.5 150.5t-64.5 228.5v276q0 25 -37 41l-22 10q-41 16 -41 41z" />
<glyph unicode="|" horiz-adv-x="542" d="M143 -102v1536q0 17 12 29t29 12h174q17 0 29 -12t12 -29v-1536q0 -17 -12 -29t-29 -12h-174q-17 0 -29 12t-12 29z" />
<glyph unicode="}" horiz-adv-x="851" d="M82 37q0 17 12 29t29 12h86q89 0 141.5 46t52.5 122v276q0 46 27 80.5t57 52.5q-30 18 -57 52t-27 81l-2 256q-1 47 -17.5 81t-45 52.5t-60.5 26.5t-69 8h-86q-17 0 -29 12t-12 29v181q0 17 12 29t29 12h86q99 0 185.5 -36t146.5 -95t94.5 -137.5t34.5 -162.5v-256 q0 -24 37 -40l22 -11q41 -16 41 -41v-82q0 -25 -41 -41l-22 -10q-37 -16 -37 -41v-276q0 -129 -64.5 -228.5t-168.5 -150.5t-228 -51h-86q-17 0 -29 12t-12 29v180z" />
<glyph unicode="~" horiz-adv-x="1208" d="M143 416v164q0 53 73 89t155 36q71 0 132 -14.5t98.5 -32t100 -32t136.5 -14.5q38 0 95 17t73 37q15 21 37 16t22 -35v-164q0 -53 -72.5 -89t-154.5 -36q-71 0 -132 14.5t-98.5 32t-100 32t-136.5 14.5q-38 0 -95 -17t-73 -37q-15 -21 -37.5 -16t-22.5 35z" />
<glyph unicode="&#xa1;" horiz-adv-x="538" d="M102 737v246q0 17 12 29t29 12h246q17 0 29 -12t12 -29v-246q0 -17 -12 -29t-29 -12h-246q-17 0 -29 12t-12 29zM123 -377v924q0 12 10 22.5t23 10.5h221q13 0 23 -10.5t10 -22.5v-924q0 -12 -10 -22.5t-23 -10.5h-221q-13 0 -23 10.5t-10 22.5z" />
<glyph unicode="&#xa2;" horiz-adv-x="1050" d="M94 512q0 92 8 154q16 129 85 226t184 136q32 11 32 31v67q0 17 12 29t29 12h174q17 0 29 -12t12 -29v-67q0 -25 29 -35q117 -41 188.5 -141t71.5 -238q0 -18 -9 -29.5t-26 -11.5h-182q-36 0 -39 33q-4 73 -49 112t-117 39q-74 0 -111.5 -31t-45.5 -91q-7 -61 -7 -154 t7 -154q14 -122 159 -122q70 0 111 35.5t53 115.5q6 33 39 33h182q17 0 26 -11.5t9 -29.5q0 -135 -70.5 -235t-187.5 -146q-31 -12 -31 -35v-65q0 -17 -12 -29t-29 -12h-174q-17 0 -29 12t-12 29v67q0 20 -32 31q-114 39 -184 136.5t-85 225.5q-8 62 -8 154z" />
<glyph unicode="&#xa3;" horiz-adv-x="1124" d="M27 41v188q0 17 12 29t29 12q45 0 75 14t44 40t19 54t5 66v144q0 9 -6 16.5t-15 7.5h-84q-17 0 -28.5 12t-11.5 29v154q0 17 11.5 29t28.5 12h84q21 0 21 20v217q0 156 111 265.5t268 109.5t268 -109.5t111 -265.5v-41q0 -17 -12 -28.5t-29 -11.5h-187q-17 0 -29 11.5 t-12 28.5v41q0 43 -29 74t-81 31t-80.5 -31t-28.5 -74v-217q0 -20 21 -20h246q17 0 28.5 -12t11.5 -29v-154q0 -17 -11.5 -29t-28.5 -12h-244q-9 0 -15 -7.5t-6 -16.5v-88q0 -145 -34 -207q-6 -9 -2.5 -16t16.5 -7h485q17 0 29 -12t12 -29v-188q0 -17 -12 -29t-29 -12h-878 q-19 0 -31 12t-12 29z" />
<glyph unicode="&#xa4;" horiz-adv-x="1376" d="M124 1017q1 16 13 27l133 134q11 12 27.5 13t28.5 -11l155 -158q93 49 203 49q113 0 207 -51l158 158q12 12 28.5 11.5t28.5 -11.5l133 -134q11 -12 11.5 -28.5t-11.5 -28.5l-160 -162q47 -96 47 -196q0 -108 -49 -201l164 -164q12 -12 11 -28t-13 -27l-133 -133 q-11 -12 -27 -13t-28 11l-164 162q-98 -50 -203 -50q-110 0 -199 47l-157 -157q-12 -12 -29 -11.5t-29 11.5l-133 133q-11 12 -11.5 28.5t11.5 28.5l156 156q-51 94 -51 207q0 112 49 200l-156 160q-12 12 -11 28zM477 629q0 -85 61 -146t146 -61q86 0 147.5 61t61.5 146 q0 86 -61.5 147.5t-147.5 61.5q-85 0 -146 -61.5t-61 -147.5z" />
<glyph unicode="&#xa5;" horiz-adv-x="1052" d="M20 1376q-9 23 1.5 40.5t31.5 17.5h219q28 0 39 -31l203 -567q3 -9 10 -9h4q8 0 11 9l202 567q11 31 39 31h219q21 0 31.5 -17.5t1.5 -40.5l-168 -413h74q17 0 29 -12t12 -29v-138q0 -17 -12 -29t-29 -12h-162l-35 -86h197q17 0 29 -12t12 -29v-137q0 -17 -12 -29 t-29 -12h-274v-397q0 -17 -12 -29t-29 -12h-193q-17 0 -29 12t-12 29v397h-276q-17 0 -29 12t-12 29v137q0 17 12 29t29 12h196l-35 86h-161q-17 0 -29 12t-12 29v138q0 17 12 29t29 12h73z" />
<glyph unicode="&#xa6;" horiz-adv-x="501" d="M133 41v547q0 17 12 29t29 12h156q17 0 29 -12t12 -29v-547q0 -17 -12 -29t-29 -12h-156q-17 0 -29 12t-12 29zM133 860v547q0 17 12 29t29 12h156q17 0 29 -12t12 -29v-547q0 -17 -12 -29t-29 -12h-156q-17 0 -29 12t-12 29z" />
<glyph unicode="&#xa7;" horiz-adv-x="1099" d="M74 621q0 141 157 262q-65 91 -65 200t56.5 192t141 123t179.5 40q157 0 262.5 -100.5t105.5 -262.5v-28q0 -19 -12 -31t-29 -12h-172q-17 0 -29 12t-12 31v28q0 46 -31 76.5t-83 30.5q-49 0 -80 -24t-31 -66q0 -69 49 -109l367 -317q133 -118 133 -289q0 -79 -41 -150 t-106 -125q57 -75 57 -188q0 -107 -56 -187.5t-140.5 -119.5t-180.5 -39q-162 0 -269.5 93t-107.5 267v49q0 19 12 31t29 12h172q17 0 29 -12t12 -31v-49q0 -53 33 -79.5t90 -26.5q109 0 109 92q0 44 -56 96q-300 260 -366 320q-69 66 -98 131t-29 160zM338 610 q0 -46 45 -86l258 -223q22 -17 39 0q41 41 41 78q0 50 -45 90l-260 227q-22 17 -39 0q-39 -46 -39 -86z" />
<glyph unicode="&#xa8;" horiz-adv-x="1069" d="M201 1229v184q0 17 12 29t29 12h184q17 0 29 -12t12 -29v-184q0 -17 -12 -29t-29 -12h-184q-17 0 -29 12t-12 29zM610 1229v184q0 17 12 29t29 12h185q17 0 29 -12t12 -29v-184q0 -17 -12 -29t-29 -12h-185q-17 0 -29 12t-12 29z" />
<glyph unicode="&#xa9;" horiz-adv-x="1638" d="M102 717q0 145 57 278t153 229t229 153t278 57t278 -57t229 -153t153 -229t57 -278t-57 -278t-153 -229t-229 -153t-278 -57t-278 57t-229 153t-153 229t-57 278zM293 717q0 -143 70.5 -264.5t191.5 -192t264 -70.5t263.5 70.5t190.5 192t70 264.5t-70 263.5 t-190.5 190.5t-263.5 70t-264 -70t-191.5 -190.5t-70.5 -263.5zM477 712.5q0 72.5 6 118.5q18 135 104.5 220.5t229.5 85.5q135 0 230.5 -88.5t95.5 -233.5q0 -11 -8 -20t-21 -9h-139q-30 0 -33 25q-3 58 -36 87.5t-91 29.5q-61 0 -90 -24.5t-35 -72.5q-4 -46 -4 -118.5 t4 -118.5q10 -98 127 -98q55 0 85.5 27.5t39.5 90.5q1 10 11 17.5t22 7.5h139q13 0 21 -9t8 -20q0 -143 -95.5 -232t-230.5 -89q-143 0 -229.5 85t-104.5 220q-6 46 -6 118.5z" />
<glyph unicode="&#xaa;" horiz-adv-x="688" d="M90 1085q0 60 46.5 110t129.5 50h125q10 0 10 10v17q0 55 -77 55q-61 0 -78 -33q-6 -12 -11 -15t-18 -3h-88q-8 0 -14 5.5t-6 14.5q0 68 62.5 111t156.5 43q93 0 156 -46t63 -138v-318q0 -9 -6.5 -14.5t-14.5 -5.5h-65q-9 0 -15 6q-2 2 -4 6.5t-3.5 7t-5 4.5t-7.5 2 q-2 0 -50 -19.5t-93 -19.5q-90 0 -141.5 44.5t-51.5 125.5zM238 1085q0 -45 61 -45q40 0 71 14.5t31 43.5v20q0 8 -8 8h-110q-23 0 -34 -14.5t-11 -26.5z" />
<glyph unicode="&#xab;" horiz-adv-x="1079" d="M104 532.5q0 11.5 11 28.5l196 330q19 31 51 31h164q31 0 41.5 -18.5t-8.5 -49.5l-174 -297q-9 -13 -9 -23.5t9 -25.5l174 -297q17 -32 7.5 -50t-40.5 -18h-164q-32 0 -51 31l-196 330q-11 17 -11 28.5zM510 532.5q0 11.5 10 28.5l197 330q19 31 51 31h164q31 0 40.5 -18 t-7.5 -50l-174 -297q-9 -13 -9 -23.5t9 -25.5l174 -297q17 -32 7.5 -50t-40.5 -18h-164q-32 0 -51 31l-197 330q-10 17 -10 28.5z" />
<glyph unicode="&#xac;" horiz-adv-x="1085" d="M102 389v184q0 17 12 29t29 12h799q17 0 29 -12t12 -29v-389q0 -17 -12 -29t-29 -12h-184q-17 0 -29 12t-12 29v144q0 20 -21 20h-553q-17 0 -29 12t-12 29z" />
<glyph unicode="&#xad;" horiz-adv-x="845" d="M102 446v203q0 17 12 29t29 12h559q17 0 29 -12t12 -29v-203q0 -17 -12 -28.5t-29 -11.5h-559q-17 0 -29 11.5t-12 28.5z" />
<glyph unicode="&#xae;" horiz-adv-x="1638" d="M102 717q0 145 57 278t153 229t229 153t278 57t278 -57t229 -153t153 -229t57 -278t-57 -278t-153 -229t-229 -153t-278 -57t-278 57t-229 153t-153 229t-57 278zM293 717q0 -143 70.5 -264.5t191.5 -192t264 -70.5t263.5 70.5t190.5 192t70 264.5t-70 263.5 t-190.5 190.5t-263.5 70t-264 -70t-191.5 -190.5t-70.5 -263.5zM541 342v750q0 9 7.5 16.5t16.5 7.5h301q107 0 182.5 -76.5t75.5 -181.5q0 -71 -30 -122.5t-97 -96.5q-12 -8 -13 -18t5 -21l133 -246q8 -14 1 -25.5t-25 -11.5h-135q-26 0 -37 25l-115 242q-11 16 -23 16h-47 q-12 0 -12 -12v-246q0 -11 -7 -18t-17 -7h-140q-9 0 -16.5 7.5t-7.5 17.5zM729 784q0 -12 12 -12h115q36 0 61 25t25 61q0 35 -25.5 60.5t-60.5 25.5h-115q-12 0 -12 -12v-148z" />
<glyph unicode="&#xaf;" horiz-adv-x="1077" d="M229 1262v118q0 17 12 29t29 12h537q17 0 29 -12t12 -29v-118q0 -17 -12 -29t-29 -12h-537q-17 0 -29 12t-12 29z" />
<glyph unicode="&#xb0;" horiz-adv-x="774" d="M74 1198q0 126 89 214.5t216 88.5q126 0 214.5 -88.5t88.5 -214.5q0 -127 -88.5 -216t-214.5 -89q-127 0 -216 88.5t-89 216.5zM276 1198q0 -41 31 -71.5t72 -30.5t70.5 30.5t29.5 71.5t-29.5 70.5t-70.5 29.5q-42 0 -72.5 -29.5t-30.5 -70.5z" />
<glyph unicode="&#xb1;" horiz-adv-x="1105" d="M102 766v182q0 17 12 29t29 12h256q9 0 15 6t6 15v256q0 17 12 29t29 12h182q17 0 29 -12t12 -29v-256q0 -9 6 -15t15 -6h258q17 0 29 -12t12 -29v-182q0 -17 -12 -29t-29 -12h-258q-21 0 -21 -20v-259q0 -17 -12 -28.5t-29 -11.5h-182q-17 0 -29 11.5t-12 28.5v259 q0 20 -21 20h-256q-17 0 -29 12t-12 29zM109 41v182q0 17 12 29t29 12h806q17 0 29 -12t12 -29v-182q0 -17 -12 -29t-29 -12h-806q-17 0 -29 12t-12 29z" />
<glyph unicode="&#xb2;" horiz-adv-x="595" d="M68 737v162q0 17 8 25l219 217q67 64 67 92q0 20 -15 34.5t-40 14.5q-61 0 -61 -61v-19q0 -7 -6.5 -13.5t-14.5 -6.5h-131q-7 0 -13.5 7t-6.5 13v17q0 96 69.5 162.5t165.5 66.5q99 0 166.5 -58t67.5 -153q0 -41 -23.5 -83t-50.5 -69l-172 -172q-4 -4 -5 -8.5t2.5 -9 t14.5 -4.5h223q8 0 14.5 -7t6.5 -14v-133q0 -7 -6.5 -13.5t-14.5 -6.5h-444q-8 0 -14 6.5t-6 13.5z" />
<glyph unicode="&#xb3;" horiz-adv-x="591" d="M55 938v12q0 8 6.5 14.5t14.5 6.5h129q9 0 14.5 -6.5t5.5 -14.5v-12q0 -28 19 -46t49 -18q31 0 49 18.5t18 53.5q0 33 -22 50.5t-47 17.5h-12q-8 0 -14.5 6.5t-6.5 13.5v86q0 9 6.5 15t14.5 6h12q26 0 45.5 17.5t19.5 49.5q0 31 -17.5 49.5t-45.5 18.5q-26 0 -44 -17 t-18 -40v-17q0 -8 -6.5 -14t-13.5 -6h-131q-9 0 -15 6t-6 14v17q0 94 69.5 161.5t164.5 67.5t163 -67t68 -162q0 -72 -49 -132q-7 -11 0 -14q26 -21 40.5 -58.5t14.5 -76.5q0 -99 -69 -167.5t-168 -68.5q-98 0 -168 68.5t-70 167.5z" />
<glyph unicode="&#xb4;" horiz-adv-x="1052" d="M319.5 1185.5q-10.5 18.5 6.5 43.5l168 233q8 11 12 15.5t15.5 11t25.5 6.5h219q28 0 35.5 -18t-10.5 -37l-236 -248q-25 -25 -61 -25h-142q-22 0 -32.5 18.5z" />
<glyph unicode="&#xb5;" horiz-adv-x="1064" d="M102 -369l2 1352q0 17 11 29t28 12h185q17 0 29 -12t12 -29v-627q0 -53 40.5 -86.5t112.5 -33.5q70 0 112 32.5t42 79.5v635q0 17 12 29t29 12h184q17 0 29 -12t12 -29v-942q0 -17 -12 -29t-29 -12h-102q-25 0 -47.5 20.5t-44.5 20.5q-20 0 -44 -15t-60 -30.5t-87 -15.5 q-35 0 -86 22q-25 10 -43 -0.5t-18 -42.5v-328q0 -17 -12 -29t-29 -12h-185q-17 0 -29 12t-12 29z" />
<glyph unicode="&#xb6;" horiz-adv-x="1284" d="M102 1085q0 145 102 247t247 102h532q17 0 29 -12t12 -29v-1557q0 -17 -12 -29t-29 -12h-123q-17 0 -29 12t-12 29v1383q0 20 -20 20h-123q-21 0 -21 -20v-1383q0 -17 -12 -29t-29 -12h-122q-17 0 -29 12t-12 29v881q0 20 -21 20q-134 0 -231 104t-97 244z" />
<glyph unicode="&#xb7;" horiz-adv-x="890" d="M244 375v293q0 17 12 29t29 12h293q17 0 28.5 -12t11.5 -29v-293q0 -17 -11.5 -29t-28.5 -12h-293q-17 0 -29 12t-12 29z" />
<glyph unicode="&#xb8;" horiz-adv-x="882" d="M297.5 -364.5q-0.5 17.5 3.5 34.5l59 189q14 49 66 49h111q44 0 56.5 -24t4.5 -56l-43 -188q-11 -50 -66 -50h-127q-31 0 -47.5 14t-17 31.5z" />
<glyph unicode="&#xb9;" horiz-adv-x="514" d="M45 1085v127q0 27 23 56l102 125q31 41 82 41h164q8 0 14 -6t6 -15v-676q0 -7 -6 -13.5t-14 -6.5h-150q-8 0 -14 6.5t-6 13.5v439q0 14 -12 16.5t-19 -6.5l-123 -125q-12 -13 -29.5 -5t-17.5 29z" />
<glyph unicode="&#xba;" horiz-adv-x="1071" d="M102 1130q-7 60 0 105q13 106 82 163.5t154 57.5t153.5 -57.5t81.5 -163.5q7 -45 0 -105q-11 -100 -81 -159.5t-154 -59.5t-154.5 59.5t-81.5 159.5zM248 1139q6 -31 30.5 -50.5t59.5 -19.5t59.5 19.5t30.5 50.5q6 40 0 84q-13 75 -90 75t-90 -75q-6 -44 0 -84z" />
<glyph unicode="&#xbb;" horiz-adv-x="1079" d="M107 161q-10 18 8 50l174 297q9 15 9 25t-9 24l-174 297q-18 32 -8 50t40 18h164q32 0 51 -31l197 -330q11 -17 11 -28.5t-11 -28.5l-197 -330q-19 -31 -51 -31h-164q-30 0 -40 18zM512.5 161q-9.5 18 7.5 50l174 297q9 15 9 25t-9 24l-174 297q-17 32 -7.5 50t40.5 18 h164q32 0 51 -31l197 -330q11 -17 11 -28.5t-11 -28.5l-197 -330q-19 -31 -51 -31h-164q-31 0 -40.5 18z" />
<glyph unicode="&#xbc;" horiz-adv-x="1413" d="M49 1083v136q0 30 17 45l153 145q25 25 51 25h140q7 0 13.5 -6.5t6.5 -14.5v-676q0 -9 -6 -14.5t-14 -5.5h-148q-8 0 -14 5.5t-6 14.5v439q0 8 -7 10.5t-12 -2.5l-139 -117q-9 -9 -22 -4t-13 20zM124.5 17.5q-11.5 17.5 0.5 39.5l874 1346q19 31 45 31h134q21 0 33 -19 t-1 -39l-872 -1345q-19 -31 -43 -31h-137q-22 0 -33.5 17.5zM762 133v141q0 15 16 39l258 389q9 15 21 15h141q8 0 14.5 -6.5t6.5 -14.5v-409q0 -11 10 -11h45q20 0 20 -20v-123q0 -8 -5.5 -14t-14.5 -6h-45q-10 0 -10 -11v-82q0 -9 -6.5 -14.5t-14.5 -5.5h-123 q-20 0 -20 20v82q0 11 -11 11h-262q-8 0 -14 6.5t-6 13.5zM944.5 280q1.5 -4 7.5 -4h92q11 0 11 11v153q0 6 -5 6.5t-8 -2.5l-96 -155q-3 -5 -1.5 -9z" />
<glyph unicode="&#xbd;" horiz-adv-x="1454" d="M49 1083v136q0 30 17 45l153 145q25 25 51 25h140q7 0 13.5 -6.5t6.5 -14.5v-676q0 -9 -6 -14.5t-14 -5.5h-148q-8 0 -14 5.5t-6 14.5v439q0 8 -7 10.5t-12 -2.5l-139 -117q-9 -9 -22 -4t-13 20zM124.5 17.5q-11.5 17.5 0.5 39.5l874 1346q19 31 45 31h134q21 0 33 -19 t-1 -39l-872 -1345q-19 -31 -43 -31h-137q-22 0 -33.5 17.5zM838 477v37q0 95 75.5 154t171.5 59q99 0 172.5 -56.5t73.5 -156.5q0 -64 -45.5 -130t-175.5 -189q-6 -5 -4 -13t14 -8h193q20 0 20 -20v-134q0 -20 -20 -20h-443q-8 0 -14 5.5t-6 14.5v132q0 14 10 24 q194 203 240.5 257.5t46.5 80.5q0 27 -17 41t-40 14q-27 0 -46.5 -13.5t-19.5 -41.5v-37q0 -20 -20 -20h-146q-20 0 -20 20z" />
<glyph unicode="&#xbe;" horiz-adv-x="1433" d="M10 930v10q0 8 7 14.5t14 6.5h129q9 0 14.5 -6.5t5.5 -14.5v-10q0 -28 23.5 -48t56.5 -20q29 0 52.5 19.5t23.5 48.5q0 34 -19 56t-57 22h-12q-9 0 -15 6t-6 14v111q0 20 21 20h12q34 0 51 19t17 51q0 29 -19.5 45t-48.5 16q-27 0 -47 -17.5t-20 -43.5v-15 q0 -9 -6.5 -14.5t-14.5 -5.5h-131q-21 0 -21 20v15q0 94 64 154.5t176 60.5q98 0 168 -56.5t70 -158.5q0 -42 -22 -79.5t-52 -53.5q-6 -3 -5.5 -9.5t5.5 -9.5q84 -49 84 -147q0 -105 -73 -165t-175 -60q-121 0 -185.5 62.5t-64.5 162.5zM124.5 17.5q-11.5 17.5 0.5 39.5 l874 1346q19 31 45 31h134q21 0 33 -19t-1 -39l-872 -1345q-19 -31 -43 -31h-137q-22 0 -33.5 17.5zM762 133v141q0 15 16 39l258 389q9 15 21 15h141q8 0 14.5 -6.5t6.5 -14.5v-409q0 -11 10 -11h45q20 0 20 -20v-123q0 -8 -5.5 -14t-14.5 -6h-45q-10 0 -10 -11v-82 q0 -9 -6.5 -14.5t-14.5 -5.5h-123q-20 0 -20 20v82q0 11 -11 11h-262q-8 0 -14 6.5t-6 13.5zM944.5 280q1.5 -4 7.5 -4h92q11 0 11 11v153q0 6 -5 6.5t-8 -2.5l-96 -155q-3 -5 -1.5 -9z" />
<glyph unicode="&#xbf;" horiz-adv-x="989" d="M61 -27q0 115 58.5 206t140.5 151q58 42 76 78.5t18 109.5v21q0 17 12 29t29 12h205q17 0 29 -12t12 -29v-21q0 -3 0.5 -33.5t0 -42t-3.5 -41t-9 -48t-17.5 -43.5t-27.5 -46q-26 -33 -85.5 -76.5t-72.5 -56.5q-78 -74 -78 -143q0 -65 41.5 -104.5t104.5 -39.5 q66 0 106.5 44.5t40.5 105.5v35q0 17 12 29t29 12h205q17 0 29 -12t12 -29v-31q0 -181 -127.5 -309.5t-306.5 -128.5q-184 0 -308.5 116.5t-124.5 296.5zM334 737v246q0 17 12 29t29 12h246q17 0 29 -12t12 -29v-246q0 -17 -12 -29t-29 -12h-246q-17 0 -29 12t-12 29z" />
<glyph unicode="&#xc0;" horiz-adv-x="1099" d="M8 41l367 1362q3 13 14 22t25 9h274q14 0 25 -9t14 -22l365 -1362q3 -15 -7.5 -28t-33.5 -13h-215q-29 0 -39 31l-64 211q-7 30 -31 30h-311q-24 0 -31 -30l-57 -211q-3 -13 -14 -22t-25 -9h-215q-23 0 -33.5 13t-7.5 28zM220.5 1845.5q7.5 18.5 35.5 18.5h219 q14 0 25.5 -6.5t15.5 -11t12 -15.5l168 -234q17 -25 6.5 -43t-32.5 -18h-142q-36 0 -61 25l-236 247q-18 19 -10.5 37.5zM438 582q-6 -23 17 -23h188q22 0 16 23l-98 491q-3 8 -10 8h-4q-7 0 -10 -8z" />
<glyph unicode="&#xc1;" horiz-adv-x="1099" d="M8 41l367 1362q3 13 14 22t25 9h274q14 0 25 -9t14 -22l365 -1362q3 -15 -7.5 -28t-33.5 -13h-215q-29 0 -39 31l-64 211q-7 30 -31 30h-311q-24 0 -31 -30l-57 -211q-3 -13 -14 -22t-25 -9h-215q-23 0 -33.5 13t-7.5 28zM432 1554q-11 18 6 43l168 234q8 11 12 15.5 t15.5 11t25.5 6.5h220q28 0 35 -18.5t-11 -37.5l-235 -247q-25 -25 -62 -25h-141q-22 0 -33 18zM438 582q-6 -23 17 -23h188q22 0 16 23l-98 491q-3 8 -10 8h-4q-7 0 -10 -8z" />
<glyph unicode="&#xc2;" horiz-adv-x="1099" d="M8 41l367 1362q3 13 14 22t25 9h274q14 0 25 -9t14 -22l365 -1362q3 -15 -7.5 -28t-33.5 -13h-215q-29 0 -39 31l-64 211q-7 30 -31 30h-311q-24 0 -31 -30l-57 -211q-3 -13 -14 -22t-25 -9h-215q-23 0 -33.5 13t-7.5 28zM194 1557q-5 21 7 30l243 252q25 25 62 25h127 q34 0 59 -25l244 -252q12 -9 5 -30t-32 -21h-192q-40 0 -64 33l-71 90q-6 9 -14.5 9t-14.5 -9l-72 -90q-24 -33 -63 -33h-195q-24 0 -29 21zM438 582q-6 -23 17 -23h188q22 0 16 23l-98 491q-3 8 -10 8h-4q-7 0 -10 -8z" />
<glyph unicode="&#xc3;" horiz-adv-x="1099" d="M8 41l367 1362q3 13 14 22t25 9h274q14 0 25 -9t14 -22l365 -1362q3 -15 -7.5 -28t-33.5 -13h-215q-29 0 -39 31l-64 211q-7 30 -31 30h-311q-24 0 -31 -30l-57 -211q-3 -13 -14 -22t-25 -9h-215q-23 0 -33.5 13t-7.5 28zM238 1593v123q0 41 42.5 73t102.5 32 q65 0 182 -26t187 -26q60 0 94 43q12 17 31.5 8.5t19.5 -36.5v-123q0 -41 -42.5 -73t-102.5 -32q-64 0 -181 26t-188 26q-57 0 -94 -43q-12 -15 -31.5 -7t-19.5 35zM438 582q-6 -23 17 -23h188q22 0 16 23l-98 491q-3 8 -10 8h-4q-7 0 -10 -8z" />
<glyph unicode="&#xc4;" horiz-adv-x="1099" d="M8 41l367 1362q3 13 14 22t25 9h274q14 0 25 -9t14 -22l365 -1362q3 -15 -7.5 -28t-33.5 -13h-215q-29 0 -39 31l-64 211q-7 30 -31 30h-311q-24 0 -31 -30l-57 -211q-3 -13 -14 -22t-25 -9h-215q-23 0 -33.5 13t-7.5 28zM229 1597v185q0 17 12 29t29 12h185q17 0 29 -12 t12 -29v-185q0 -17 -12 -29t-29 -12h-185q-17 0 -29 12t-12 29zM438 582q-6 -23 17 -23h188q22 0 16 23l-98 491q-3 8 -10 8h-4q-7 0 -10 -8zM639 1597v185q0 17 12 29t29 12h184q17 0 29 -12t12 -29v-185q0 -17 -12 -29t-29 -12h-184q-17 0 -29 12t-12 29z" />
<glyph unicode="&#xc5;" horiz-adv-x="1099" d="M8 41l367 1362q3 13 14 22t25 9h274q14 0 25 -9t14 -22l365 -1362q3 -15 -7.5 -28t-33.5 -13h-215q-29 0 -39 31l-64 211q-7 30 -31 30h-311q-24 0 -31 -30l-57 -211q-3 -13 -14 -22t-25 -9h-215q-23 0 -33.5 13t-7.5 28zM332 1741q0 98 69.5 166.5t167.5 68.5t167 -68.5 t69 -166.5t-69 -168t-167 -70t-167.5 70t-69.5 168zM438 582q-6 -23 17 -23h188q22 0 16 23l-98 491q-3 8 -10 8h-4q-7 0 -10 -8zM504 1741q0 -29 18 -47.5t47 -18.5t47.5 18.5t18.5 47.5t-18.5 47t-47.5 18t-47 -18t-18 -47z" />
<glyph unicode="&#xc6;" horiz-adv-x="1587" d="M8 41l361 1339q4 18 22 36t47 18h1018q17 0 29 -12t12 -29v-205q0 -17 -12 -29t-29 -12h-477q-9 0 -15 -6t-6 -15v-245q0 -9 6 -15t15 -6h461q17 0 29 -12t12 -29v-205q0 -17 -12 -29t-29 -12h-461q-21 0 -21 -20v-246q0 -20 21 -20h485q17 0 29 -12t12 -29v-205 q0 -17 -12 -29t-29 -12h-751q-17 0 -29 12t-12 29v201q0 12 -9 21t-22 9h-250q-24 0 -31 -30l-57 -211q-3 -13 -14 -22t-25 -9h-215q-23 0 -33.5 13t-7.5 28zM438 582q-6 -23 17 -23h196q21 0 21 23v544q0 9 -6 15t-15 6h-76q-21 0 -26 -21z" />
<glyph unicode="&#xc7;" horiz-adv-x="1165" d="M94 717q0 158 15 287q11 93 49 174.5t98.5 143.5t148.5 98t191 36q212 0 349.5 -131.5t137.5 -335.5v-2q0 -16 -12 -28.5t-29 -12.5h-204q-17 0 -29 12t-12 29v2q0 69 -55 123.5t-146 54.5q-89 0 -140 -45.5t-59 -117.5q-15 -129 -15 -287t15 -287q8 -72 59 -118t140 -46 q87 0 144 53.5t57 122.5v2q0 17 12 30t29 13h204q17 0 29 -12t12 -29v-2q0 -205 -137 -336t-350 -131q-103 0 -191 36t-148.5 98.5t-98.5 144t-49 174.5q-15 129 -15 287zM440 -330l60 189q14 49 65 49h111q44 0 56.5 -24t4.5 -56l-43 -188q-11 -50 -65 -50h-127 q-45 0 -58 25.5t-4 54.5z" />
<glyph unicode="&#xc8;" horiz-adv-x="1048" d="M133 41v1352q0 17 12 29t29 12h744q17 0 28.5 -12t11.5 -29v-205q0 -17 -11.5 -29t-28.5 -12h-478q-20 0 -20 -21v-245q0 -21 20 -21h461q17 0 29 -12t12 -29v-205q0 -17 -12 -29t-29 -12h-461q-20 0 -20 -20v-246q0 -20 20 -20h486q17 0 29 -12t12 -29v-205 q0 -17 -12 -29t-29 -12h-752q-17 0 -29 12t-12 29zM182 1845.5q7 18.5 35 18.5h219q14 0 25.5 -6.5t15.5 -11t12 -15.5l168 -234q17 -25 6.5 -43t-32.5 -18h-142q-36 0 -61 25l-235 247q-18 19 -11 37.5z" />
<glyph unicode="&#xc9;" horiz-adv-x="1048" d="M133 41v1352q0 17 12 29t29 12h744q17 0 28.5 -12t11.5 -29v-205q0 -17 -11.5 -29t-28.5 -12h-478q-20 0 -20 -21v-245q0 -21 20 -21h461q17 0 29 -12t12 -29v-205q0 -17 -12 -29t-29 -12h-461q-20 0 -20 -20v-246q0 -20 20 -20h486q17 0 29 -12t12 -29v-205 q0 -17 -12 -29t-29 -12h-752q-17 0 -29 12t-12 29zM416 1554q-11 18 6 43l168 234q8 11 12 15.5t15.5 11t25.5 6.5h219q28 0 35.5 -18.5t-10.5 -37.5l-236 -247q-25 -25 -61 -25h-141q-22 0 -33 18z" />
<glyph unicode="&#xca;" horiz-adv-x="1048" d="M133 41v1352q0 17 12 29t29 12h744q17 0 28.5 -12t11.5 -29v-205q0 -17 -11.5 -29t-28.5 -12h-478q-20 0 -20 -21v-245q0 -21 20 -21h461q17 0 29 -12t12 -29v-205q0 -17 -12 -29t-29 -12h-461q-20 0 -20 -20v-246q0 -20 20 -20h486q17 0 29 -12t12 -29v-205 q0 -17 -12 -29t-29 -12h-752q-17 0 -29 12t-12 29zM155 1557q-5 21 7 30l244 252q25 25 61 25h127q34 0 59 -25l244 -252q12 -9 5 -30t-32 -21h-192q-40 0 -64 33l-71 90q-6 9 -14.5 9t-14.5 -9l-72 -90q-24 -33 -63 -33h-195q-24 0 -29 21z" />
<glyph unicode="&#xcb;" horiz-adv-x="1048" d="M133 41v1352q0 17 12 29t29 12h744q17 0 28.5 -12t11.5 -29v-205q0 -17 -11.5 -29t-28.5 -12h-478q-20 0 -20 -21v-245q0 -21 20 -21h461q17 0 29 -12t12 -29v-205q0 -17 -12 -29t-29 -12h-461q-20 0 -20 -20v-246q0 -20 20 -20h486q17 0 29 -12t12 -29v-205 q0 -17 -12 -29t-29 -12h-752q-17 0 -29 12t-12 29zM223 1597v185q0 17 12 29t29 12h185q17 0 28.5 -12t11.5 -29v-185q0 -17 -11.5 -29t-28.5 -12h-185q-17 0 -29 12t-12 29zM633 1597v185q0 17 12 29t29 12h184q17 0 29 -12t12 -29v-185q0 -17 -12 -29t-29 -12h-184 q-17 0 -29 12t-12 29z" />
<glyph unicode="&#xcc;" horiz-adv-x="552" d="M-60 1845.5q7 18.5 35 18.5h220q14 0 25.5 -6.5t15.5 -11t12 -15.5l168 -234q17 -25 6 -43t-33 -18h-141q-37 0 -62 25l-235 247q-18 19 -11 37.5zM133 41v1352q0 17 12 29t29 12h205q17 0 29 -12t12 -29v-1352q0 -17 -12 -29t-29 -12h-205q-17 0 -29 12t-12 29z" />
<glyph unicode="&#xcd;" horiz-adv-x="552" d="M133 41v1352q0 17 12 29t29 12h205q17 0 29 -12t12 -29v-1352q0 -17 -12 -29t-29 -12h-205q-17 0 -29 12t-12 29zM151.5 1554q-10.5 18 6.5 43l168 234q8 11 12 15.5t15.5 11t25.5 6.5h219q28 0 35.5 -18.5t-10.5 -37.5l-236 -247q-25 -25 -61 -25h-142q-22 0 -32.5 18z " />
<glyph unicode="&#xce;" horiz-adv-x="552" d="M-97 1557q-5 21 7 30l244 252q25 25 61 25h127q34 0 59 -25l244 -252q12 -9 5 -30t-32 -21h-192q-40 0 -64 33l-71 90q-6 9 -14.5 9t-14.5 -9l-72 -90q-24 -33 -63 -33h-195q-24 0 -29 21zM133 41v1352q0 17 12 29t29 12h205q17 0 29 -12t12 -29v-1352q0 -17 -12 -29 t-29 -12h-205q-17 0 -29 12t-12 29z" />
<glyph unicode="&#xcf;" horiz-adv-x="552" d="M-51 1597v185q0 17 12 29t29 12h184q17 0 29 -12t12 -29v-185q0 -17 -12 -29t-29 -12h-184q-17 0 -29 12t-12 29zM133 41v1352q0 17 12 29t29 12h205q17 0 29 -12t12 -29v-1352q0 -17 -12 -29t-29 -12h-205q-17 0 -29 12t-12 29zM358 1597v185q0 17 12 29t29 12h185 q17 0 29 -12t12 -29v-185q0 -17 -12 -29t-29 -12h-185q-17 0 -29 12t-12 29z" />
<glyph unicode="&#xd0;" horiz-adv-x="1169" d="M-4 614v205q0 17 12 29t29 12h76q20 0 20 21v512q0 17 12 29t29 12h430q183 0 308.5 -131t148.5 -322q31 -264 0 -528q-23 -191 -148.5 -322t-308.5 -131h-430q-17 0 -29 12t-12 29v512q0 20 -20 20h-76q-17 0 -29 12t-12 29zM420 307q0 -20 20 -20h164q68 0 114 48 t54 118q31 264 0 528q-8 70 -54 118t-114 48h-164q-20 0 -20 -21v-245q0 -21 20 -21h164q17 0 29 -12t12 -29v-205q0 -17 -12 -29t-29 -12h-164q-20 0 -20 -20v-246z" />
<glyph unicode="&#xd1;" horiz-adv-x="1187" d="M133 41v1352q0 17 12 29t29 12h244q39 0 51 -37l281 -779q3 -9 10.5 -6.5t7.5 11.5v770q0 17 12 29t29 12h205q17 0 29 -12t12 -29v-1352q0 -17 -12 -29t-29 -12h-242q-42 0 -55 35l-279 719q-3 9 -10.5 7t-7.5 -11v-709q0 -17 -12 -29t-29 -12h-205q-17 0 -29 12t-12 29 zM295 1593v123q0 41 42.5 73t102.5 32q65 0 181.5 -26t187.5 -26q60 0 94 43q12 17 31.5 8.5t19.5 -36.5v-123q0 -41 -42.5 -73t-102.5 -32q-65 0 -182 26t-187 26q-57 0 -94 -43q-12 -15 -31.5 -7t-19.5 35z" />
<glyph unicode="&#xd2;" d="M94 717q0 158 15 287q11 93 49 174.5t98.5 143.5t148.5 98t191 36t191 -36t148.5 -98t98.5 -143.5t49 -174.5q15 -129 15 -287t-15 -287q-11 -93 -49 -174.5t-98.5 -144t-148.5 -98.5t-191 -36t-191 36t-148.5 98.5t-98.5 144t-49 174.5q-15 129 -15 287zM259.5 1845.5 q7.5 18.5 35.5 18.5h219q14 0 25.5 -6.5t15.5 -11t12 -15.5l168 -234q17 -25 6.5 -43t-32.5 -18h-142q-36 0 -61 25l-236 247q-18 19 -10.5 37.5zM382 717q0 -158 15 -287q8 -72 59 -118t140 -46t140 46t59 118q15 129 15 287t-15 287q-8 72 -59 117.5t-140 45.5t-140 -45.5 t-59 -117.5q-15 -129 -15 -287z" />
<glyph unicode="&#xd3;" d="M94 717q0 158 15 287q11 93 49 174.5t98.5 143.5t148.5 98t191 36t191 -36t148.5 -98t98.5 -143.5t49 -174.5q15 -129 15 -287t-15 -287q-11 -93 -49 -174.5t-98.5 -144t-148.5 -98.5t-191 -36t-191 36t-148.5 98.5t-98.5 144t-49 174.5q-15 129 -15 287zM382 717 q0 -158 15 -287q8 -72 59 -118t140 -46t140 46t59 118q15 129 15 287t-15 287q-8 72 -59 117.5t-140 45.5t-140 -45.5t-59 -117.5q-15 -129 -15 -287zM471 1554q-11 18 6 43l168 234q8 11 12 15.5t15.5 11t25.5 6.5h220q28 0 35 -18.5t-11 -37.5l-235 -247q-25 -25 -62 -25 h-141q-22 0 -33 18z" />
<glyph unicode="&#xd4;" d="M94 717q0 158 15 287q11 93 49 174.5t98.5 143.5t148.5 98t191 36t191 -36t148.5 -98t98.5 -143.5t49 -174.5q15 -129 15 -287t-15 -287q-11 -93 -49 -174.5t-98.5 -144t-148.5 -98.5t-191 -36t-191 36t-148.5 98.5t-98.5 144t-49 174.5q-15 129 -15 287zM231 1557 q-5 21 7 30l243 252q25 25 62 25h127q34 0 59 -25l244 -252q12 -9 5 -30t-32 -21h-192q-40 0 -64 33l-72 90q-6 9 -14 9t-14 -9l-72 -90q-24 -33 -63 -33h-195q-24 0 -29 21zM382 717q0 -158 15 -287q8 -72 59 -118t140 -46t140 46t59 118q15 129 15 287t-15 287 q-8 72 -59 117.5t-140 45.5t-140 -45.5t-59 -117.5q-15 -129 -15 -287z" />
<glyph unicode="&#xd5;" d="M94 717q0 158 15 287q11 93 49 174.5t98.5 143.5t148.5 98t191 36t191 -36t148.5 -98t98.5 -143.5t49 -174.5q15 -129 15 -287t-15 -287q-11 -93 -49 -174.5t-98.5 -144t-148.5 -98.5t-191 -36t-191 36t-148.5 98.5t-98.5 144t-49 174.5q-15 129 -15 287zM276 1593v123 q0 41 43 73t103 32q65 0 181.5 -26t187.5 -26q60 0 94 43q12 17 31.5 8.5t19.5 -36.5v-123q0 -41 -42.5 -73t-102.5 -32q-65 0 -182 26t-187 26q-57 0 -94 -43q-12 -15 -32 -7t-20 35zM382 717q0 -158 15 -287q8 -72 59 -118t140 -46t140 46t59 118q15 129 15 287t-15 287 q-8 72 -59 117.5t-140 45.5t-140 -45.5t-59 -117.5q-15 -129 -15 -287z" />
<glyph unicode="&#xd6;" d="M94 717q0 158 15 287q11 93 49 174.5t98.5 143.5t148.5 98t191 36t191 -36t148.5 -98t98.5 -143.5t49 -174.5q15 -129 15 -287t-15 -287q-11 -93 -49 -174.5t-98.5 -144t-148.5 -98.5t-191 -36t-191 36t-148.5 98.5t-98.5 144t-49 174.5q-15 129 -15 287zM268 1597v185 q0 17 12 29t29 12h185q17 0 29 -12t12 -29v-185q0 -17 -12 -29t-29 -12h-185q-17 0 -29 12t-12 29zM382 717q0 -158 15 -287q8 -72 59 -118t140 -46t140 46t59 118q15 129 15 287t-15 287q-8 72 -59 117.5t-140 45.5t-140 -45.5t-59 -117.5q-15 -129 -15 -287zM678 1597v185 q0 17 12 29t29 12h184q17 0 29 -12t12 -29v-185q0 -17 -12 -29t-29 -12h-184q-17 0 -29 12t-12 29z" />
<glyph unicode="&#xd7;" horiz-adv-x="1036" d="M103 267.5q0 17.5 12 29.5l200 201q14 14 0 28l-200 201q-12 12 -12 29.5t12 29.5l129 129q11 11 28.5 11.5t28.5 -11.5l201 -202q14 -14 28 0l203 202q12 12 30 12t30 -12l129 -129q10 -10 10 -27.5t-10 -29.5l-203 -203q-17 -14 0 -28l203 -203q10 -12 10 -29.5 t-10 -27.5l-129 -129q-12 -12 -30 -12t-30 12l-203 202q-14 14 -28 0l-201 -202q-11 -12 -28.5 -11.5t-28.5 11.5l-129 129q-12 12 -12 29.5z" />
<glyph unicode="&#xd8;" horiz-adv-x="1212" d="M96 18q-12 18 0 39l84 140q10 15 2 30q-50 87 -63 203q-15 129 -15 287t15 287q11 93 49 174.5t98.5 143.5t148.5 98t191 36q145 0 260 -72q1 0 3.5 -1.5t4 -2t4 -1.5t4.5 -0.5t5 1t5.5 3t4.5 6.5l10 14q19 31 39 31h131q21 0 33 -19t0 -39l-82 -135q-4 -7 -5 -13t0 -9 t3 -6.5t2 -4.5q50 -88 66 -204q15 -129 15 -287t-15 -287q-11 -93 -49 -174.5t-99 -144t-149 -98.5t-191 -36q-157 0 -272 76q-15 7 -21 -4l-10 -18q-19 -31 -43 -31h-131q-21 0 -33 18zM393 578q0 -7 4.5 -9.5t10.5 6.5l321 533q11 20 -2 27q-50 32 -121 32 q-89 0 -139.5 -45.5t-58.5 -117.5q-25 -197 -15 -426zM475 319q-7 -12 4 -18q50 -35 127 -35q89 0 140 46t59 118q22 197 12 426q0 9 -4 12t-10 -6z" />
<glyph unicode="&#xd9;" d="M111 430v963q0 17 12 29t29 12h206q17 0 29 -12t12 -29v-963q0 -70 53.5 -117t141.5 -47q91 0 145 47t54 117v963q0 17 12 29t29 12h206q17 0 29 -12t12 -29v-963q0 -189 -139 -321t-348 -132q-207 0 -345 132.5t-138 320.5zM261.5 1845.5q7.5 18.5 35.5 18.5h219 q14 0 25.5 -6.5t15.5 -11t12 -15.5l168 -234q17 -25 6.5 -43t-32.5 -18h-142q-36 0 -61 25l-236 247q-18 19 -10.5 37.5z" />
<glyph unicode="&#xda;" d="M111 430v963q0 17 12 29t29 12h206q17 0 29 -12t12 -29v-963q0 -70 53.5 -117t141.5 -47q91 0 145 47t54 117v963q0 17 12 29t29 12h206q17 0 29 -12t12 -29v-963q0 -189 -139 -321t-348 -132q-207 0 -345 132.5t-138 320.5zM473 1554q-11 18 6 43l168 234q8 11 12 15.5 t15.5 11t25.5 6.5h220q28 0 35 -18.5t-11 -37.5l-235 -247q-25 -25 -62 -25h-141q-22 0 -33 18z" />
<glyph unicode="&#xdb;" d="M111 430v963q0 17 12 29t29 12h206q17 0 29 -12t12 -29v-963q0 -70 53.5 -117t141.5 -47q91 0 145 47t54 117v963q0 17 12 29t29 12h206q17 0 29 -12t12 -29v-963q0 -189 -139 -321t-348 -132q-207 0 -345 132.5t-138 320.5zM233 1557q-5 21 7 30l243 252q25 25 62 25 h127q34 0 59 -25l244 -252q12 -9 5 -30t-32 -21h-192q-40 0 -64 33l-71 90q-6 9 -14.5 9t-14.5 -9l-72 -90q-24 -33 -63 -33h-195q-24 0 -29 21z" />
<glyph unicode="&#xdc;" d="M111 430v963q0 17 12 29t29 12h206q17 0 29 -12t12 -29v-963q0 -70 53.5 -117t141.5 -47q91 0 145 47t54 117v963q0 17 12 29t29 12h206q17 0 29 -12t12 -29v-963q0 -189 -139 -321t-348 -132q-207 0 -345 132.5t-138 320.5zM270 1597v185q0 17 12 29t29 12h185 q17 0 29 -12t12 -29v-185q0 -17 -12 -29t-29 -12h-185q-17 0 -29 12t-12 29zM680 1597v185q0 17 12 29t29 12h184q17 0 29 -12t12 -29v-185q0 -17 -12 -29t-29 -12h-184q-17 0 -29 12t-12 29z" />
<glyph unicode="&#xdd;" horiz-adv-x="1060" d="M25 1376q-9 23 1 40.5t31 17.5h226q28 0 39 -31l196 -567q3 -9 12.5 -9t12.5 9l196 567q11 31 39 31h226q21 0 31 -17.5t1 -40.5l-362 -913v-422q0 -17 -12 -29t-29 -12h-205q-17 0 -29 12t-12 29v422zM391 1554q-11 18 6 43l168 234q8 11 12 15.5t15.5 11t25.5 6.5h220 q28 0 35 -18.5t-11 -37.5l-235 -247q-25 -25 -62 -25h-141q-22 0 -33 18z" />
<glyph unicode="&#xde;" horiz-adv-x="1105" d="M133 41v1352q0 17 12 29t29 12h205q17 0 29 -12t12 -29v-164q0 -21 20 -21h144q177 0 303.5 -126.5t126.5 -303.5v-102q0 -178 -126.5 -304t-303.5 -126h-144q-20 0 -20 -21v-184q0 -17 -12 -29t-29 -12h-205q-17 0 -29 12t-12 29zM420 553q0 -21 20 -21h144q59 0 101 42 t42 102v102q0 59 -42.5 101.5t-100.5 42.5h-144q-20 0 -20 -21v-348z" />
<glyph unicode="&#xdf;" horiz-adv-x="1099" d="M133 41v985q0 179 128.5 302.5t309.5 123.5q182 0 309.5 -123.5t127.5 -302.5q0 -133 -105 -262q-18 -25 2 -45q123 -126 123 -293q0 -192 -131.5 -309t-325.5 -117h-32q-17 0 -29 12t-12 29v186q0 17 12 29t29 12h32q83 0 136 41t53 117q0 84 -53 129t-136 45h-24 q-17 0 -29 12t-12 29v182q0 17 12 29t29 12h24q71 0 120.5 46t49.5 116t-47 114t-123 44q-77 0 -123.5 -42.5t-46.5 -115.5v-985q0 -17 -12 -29t-29 -12h-186q-17 0 -29 12t-12 29z" />
<glyph unicode="&#xe0;" horiz-adv-x="1048" d="M88 315q0 55 22.5 110t64.5 102.5t111 77.5t154 30h209q21 0 21 20v33q0 61 -43.5 93t-114.5 32q-19 0 -38.5 -3t-42 -11t-39 -24.5t-21.5 -39.5q-6 -25 -16.5 -32t-39.5 -7h-147q-17 0 -29 12t-12 29q0 127 108.5 218.5t286.5 91.5q189 0 299.5 -97.5t110.5 -273.5v-635 q0 -17 -12 -29t-29 -12h-103q-17 0 -28 14q-3 4 -9 16.5t-13 18.5t-19 6q-11 0 -33 -12t-46.5 -27t-69.5 -27t-97 -12q-180 0 -282.5 89t-102.5 249zM200.5 1477q7.5 18 35.5 18h219q14 0 25.5 -6.5t15.5 -11t12 -15.5l168 -233q17 -25 6 -43.5t-33 -18.5h-141q-37 0 -62 25 l-235 248q-18 19 -10.5 37zM338 315q0 -54 37.5 -81t97.5 -27q207 0 207 141v49q0 9 -6 15t-15 6h-217q-40 0 -65.5 -20.5t-32 -41.5t-6.5 -41z" />
<glyph unicode="&#xe1;" horiz-adv-x="1048" d="M88 315q0 55 22.5 110t64.5 102.5t111 77.5t154 30h209q21 0 21 20v33q0 61 -43.5 93t-114.5 32q-19 0 -38.5 -3t-42 -11t-39 -24.5t-21.5 -39.5q-6 -25 -16.5 -32t-39.5 -7h-147q-17 0 -29 12t-12 29q0 127 108.5 218.5t286.5 91.5q189 0 299.5 -97.5t110.5 -273.5v-635 q0 -17 -12 -29t-29 -12h-103q-17 0 -28 14q-3 4 -9 16.5t-13 18.5t-19 6q-11 0 -33 -12t-46.5 -27t-69.5 -27t-97 -12q-180 0 -282.5 89t-102.5 249zM338 315q0 -54 37.5 -81t97.5 -27q207 0 207 141v49q0 9 -6 15t-15 6h-217q-40 0 -65.5 -20.5t-32 -41.5t-6.5 -41z M393 1185.5q-11 18.5 6 43.5l168 233q24 33 54 33h219q28 0 35 -18t-11 -37l-235 -248q-25 -25 -62 -25h-141q-22 0 -33 18.5z" />
<glyph unicode="&#xe2;" horiz-adv-x="1048" d="M88 315q0 55 22.5 110t64.5 102.5t111 77.5t154 30h209q21 0 21 20v33q0 61 -43.5 93t-114.5 32q-19 0 -38.5 -3t-42 -11t-39 -24.5t-21.5 -39.5q-6 -25 -16.5 -32t-39.5 -7h-147q-17 0 -29 12t-12 29q0 127 108.5 218.5t286.5 91.5q189 0 299.5 -97.5t110.5 -273.5v-635 q0 -17 -12 -29t-29 -12h-103q-17 0 -28 14q-3 4 -9 16.5t-13 18.5t-19 6q-11 0 -33 -12t-46.5 -27t-69.5 -27t-97 -12q-180 0 -282.5 89t-102.5 249zM153 1188.5q-5 21.5 7 30.5l243 251q25 25 62 25h127q34 0 59 -25l244 -251q12 -9 5 -30.5t-32 -21.5h-192q-40 0 -64 33 l-71 90q-6 9 -14.5 9t-14.5 -9l-72 -90q-24 -33 -63 -33h-195q-24 0 -29 21.5zM338 315q0 -54 37.5 -81t97.5 -27q207 0 207 141v49q0 9 -6 15t-15 6h-217q-40 0 -65.5 -20.5t-32 -41.5t-6.5 -41z" />
<glyph unicode="&#xe3;" horiz-adv-x="1048" d="M88 315q0 55 22.5 110t64.5 102.5t111 77.5t154 30h209q21 0 21 20v33q0 61 -43.5 93t-114.5 32q-19 0 -38.5 -3t-42 -11t-39 -24.5t-21.5 -39.5q-6 -25 -16.5 -32t-39.5 -7h-147q-17 0 -29 12t-12 29q0 127 108.5 218.5t286.5 91.5q189 0 299.5 -97.5t110.5 -273.5v-635 q0 -17 -12 -29t-29 -12h-103q-17 0 -28 14q-3 4 -9 16.5t-13 18.5t-19 6q-11 0 -33 -12t-46.5 -27t-69.5 -27t-97 -12q-180 0 -282.5 89t-102.5 249zM199 1225v123q0 41 42.5 72.5t102.5 31.5q64 0 181 -25.5t188 -25.5q60 0 94 43q12 16 31.5 7.5t19.5 -36.5v-123 q0 -41 -42.5 -72.5t-102.5 -31.5q-65 0 -182 25.5t-187 25.5q-57 0 -94 -43q-12 -15 -31.5 -6.5t-19.5 35.5zM338 315q0 -54 37.5 -81t97.5 -27q207 0 207 141v49q0 9 -6 15t-15 6h-217q-40 0 -65.5 -20.5t-32 -41.5t-6.5 -41z" />
<glyph unicode="&#xe4;" horiz-adv-x="1048" d="M88 315q0 55 22.5 110t64.5 102.5t111 77.5t154 30h209q21 0 21 20v33q0 61 -43.5 93t-114.5 32q-19 0 -38.5 -3t-42 -11t-39 -24.5t-21.5 -39.5q-6 -25 -16.5 -32t-39.5 -7h-147q-17 0 -29 12t-12 29q0 127 108.5 218.5t286.5 91.5q189 0 299.5 -97.5t110.5 -273.5v-635 q0 -17 -12 -29t-29 -12h-103q-17 0 -28 14q-3 4 -9 16.5t-13 18.5t-19 6q-11 0 -33 -12t-46.5 -27t-69.5 -27t-97 -12q-180 0 -282.5 89t-102.5 249zM190 1229v184q0 17 12 29t29 12h185q17 0 29 -12t12 -29v-184q0 -17 -12 -29t-29 -12h-185q-17 0 -29 12t-12 29zM338 315 q0 -54 37.5 -81t97.5 -27q207 0 207 141v49q0 9 -6 15t-15 6h-217q-40 0 -65.5 -20.5t-32 -41.5t-6.5 -41zM600 1229v184q0 17 12 29t29 12h184q17 0 29 -12t12 -29v-184q0 -17 -12 -29t-29 -12h-184q-17 0 -29 12t-12 29z" />
<glyph unicode="&#xe5;" horiz-adv-x="1048" d="M88 315q0 55 22.5 110t64.5 102.5t111 77.5t154 30h209q21 0 21 20v33q0 61 -43.5 93t-114.5 32q-19 0 -38.5 -3t-42 -11t-39 -24.5t-21.5 -39.5q-6 -25 -16.5 -32t-39.5 -7h-147q-17 0 -29 12t-12 29q0 127 108.5 218.5t286.5 91.5q189 0 299.5 -97.5t110.5 -273.5v-635 q0 -17 -12 -29t-29 -12h-103q-17 0 -28 14q-3 4 -9 16.5t-13 18.5t-19 6q-11 0 -33 -12t-46.5 -27t-69.5 -27t-97 -12q-180 0 -282.5 89t-102.5 249zM299 1372q0 98 70 167t168 69t166.5 -69t68.5 -167t-68.5 -167.5t-166.5 -69.5t-168 69.5t-70 167.5zM338 315 q0 -54 37.5 -81t97.5 -27q207 0 207 141v49q0 9 -6 15t-15 6h-217q-40 0 -65.5 -20.5t-32 -41.5t-6.5 -41zM471 1372q0 -29 18.5 -47t47.5 -18t47 18t18 47t-18 47.5t-47 18.5t-47.5 -18.5t-18.5 -47.5z" />
<glyph unicode="&#xe6;" horiz-adv-x="1667" d="M96 315q0 55 22.5 110t64.5 102.5t111.5 77.5t154.5 30h208q21 0 21 20v33q0 61 -43.5 93t-114.5 32q-19 0 -38.5 -3t-42 -11t-39 -24.5t-21.5 -39.5q-6 -25 -16 -32t-39 -7h-148q-17 0 -29 12t-12 29q0 127 108.5 218.5t286.5 91.5q74 0 147 -26t130 -73q31 -27 61 0 q114 99 279 99q188 0 303 -107.5t115 -298.5v-170q0 -17 -12 -29t-29 -12h-527q-13 0 -21.5 -8.5t-8.5 -22.5q0 -82 52 -132t128 -50q124 0 162 94q13 35 47 35h170q17 0 28 -10.5t7 -30.5q-28 -148 -137.5 -238t-276.5 -90q-159 0 -273 93q-33 28 -77 0q-137 -93 -316 -93 q-180 0 -282.5 89t-102.5 249zM346 315q0 -54 37.5 -81t97.5 -27q207 0 207 141v49q0 21 -20 21h-217q-31 0 -53 -11.5t-32.5 -29t-15 -33t-4.5 -29.5zM969 653q0 -18 20 -18h311q21 0 21 18q0 73 -51 112.5t-123 39.5q-83 0 -130.5 -44.5t-47.5 -107.5z" />
<glyph unicode="&#xe7;" horiz-adv-x="1019" d="M86 512q0 92 8 154q21 169 132.5 275t293.5 106q114 0 208 -46.5t152 -139.5t58 -216q0 -18 -9 -29.5t-26 -11.5h-182q-36 0 -39 33q-9 143 -164 143q-76 0 -113 -27.5t-45 -86.5q-8 -61 -8 -154t8 -154q13 -114 160 -114q72 0 111.5 31.5t50.5 111.5q6 33 39 33h182 q17 0 26 -11.5t9 -29.5q0 -121 -58 -214t-152 -140.5t-208 -47.5q-182 0 -293.5 106t-132.5 275q-8 62 -8 154zM344 -330l59 189q14 49 66 49h111q44 0 56.5 -24t4.5 -56l-43 -188q-11 -50 -66 -50h-126q-45 0 -58 25.5t-4 54.5z" />
<glyph unicode="&#xe8;" horiz-adv-x="1021" d="M86 512q0 92 8 154q21 168 132 274.5t292 106.5q188 0 303 -107.5t115 -298.5v-170q0 -17 -12 -29t-29 -12h-526q-13 0 -22 -9t-9 -22q0 -82 51.5 -128t128.5 -46q64 0 103.5 19.5t58.5 66.5q13 35 47 35h170q18 0 29 -11t6 -34q-37 -148 -143 -236t-271 -88 q-181 0 -292 106.5t-132 274.5q-8 62 -8 154zM204.5 1477q7.5 18 35.5 18h219q14 0 25.5 -6.5t15.5 -11t12 -15.5l168 -233q17 -25 6 -43.5t-33 -18.5h-141q-36 0 -61 25l-236 248q-18 19 -10.5 37zM340 676q0 -19 20 -19h312q20 0 20 19q0 62 -51 95.5t-123 33.5 q-86 0 -132 -34.5t-46 -94.5z" />
<glyph unicode="&#xe9;" horiz-adv-x="1021" d="M86 512q0 92 8 154q21 168 132 274.5t292 106.5q188 0 303 -107.5t115 -298.5v-170q0 -17 -12 -29t-29 -12h-526q-13 0 -22 -9t-9 -22q0 -82 51.5 -128t128.5 -46q64 0 103.5 19.5t58.5 66.5q13 35 47 35h170q18 0 29 -11t6 -34q-37 -148 -143 -236t-271 -88 q-181 0 -292 106.5t-132 274.5q-8 62 -8 154zM340 676q0 -19 20 -19h312q20 0 20 19q0 62 -51 95.5t-123 33.5q-86 0 -132 -34.5t-46 -94.5zM397 1185.5q-11 18.5 6 43.5l168 233q24 33 54 33h219q28 0 35 -18t-11 -37l-235 -248q-25 -25 -62 -25h-141q-22 0 -33 18.5z" />
<glyph unicode="&#xea;" horiz-adv-x="1021" d="M86 512q0 92 8 154q21 168 132 274.5t292 106.5q188 0 303 -107.5t115 -298.5v-170q0 -17 -12 -29t-29 -12h-526q-13 0 -22 -9t-9 -22q0 -82 51.5 -128t128.5 -46q64 0 103.5 19.5t58.5 66.5q13 35 47 35h170q18 0 29 -11t6 -34q-37 -148 -143 -236t-271 -88 q-181 0 -292 106.5t-132 274.5q-8 62 -8 154zM157 1188.5q-5 21.5 7 30.5l244 251q25 25 61 25h127q34 0 59 -25l244 -251q12 -9 5 -30.5t-32 -21.5h-192q-40 0 -64 33l-71 90q-6 9 -14.5 9t-14.5 -9l-72 -90q-24 -33 -63 -33h-195q-24 0 -29 21.5zM340 676q0 -19 20 -19 h312q20 0 20 19q0 62 -51 95.5t-123 33.5q-86 0 -132 -34.5t-46 -94.5z" />
<glyph unicode="&#xeb;" horiz-adv-x="1021" d="M86 512q0 92 8 154q21 168 132 274.5t292 106.5q188 0 303 -107.5t115 -298.5v-170q0 -17 -12 -29t-29 -12h-526q-13 0 -22 -9t-9 -22q0 -82 51.5 -128t128.5 -46q64 0 103.5 19.5t58.5 66.5q13 35 47 35h170q18 0 29 -11t6 -34q-37 -148 -143 -236t-271 -88 q-181 0 -292 106.5t-132 274.5q-8 62 -8 154zM207 1229v184q0 17 12 29t29 12h184q17 0 29 -12t12 -29v-184q0 -17 -12 -29t-29 -12h-184q-17 0 -29 12t-12 29zM340 676q0 -19 20 -19h312q20 0 20 19q0 62 -51 95.5t-123 33.5q-86 0 -132 -34.5t-46 -94.5zM616 1229v184 q0 17 12 29t29 12h185q17 0 29 -12t12 -29v-184q0 -17 -12 -29t-29 -12h-185q-17 0 -29 12t-12 29z" />
<glyph unicode="&#xec;" horiz-adv-x="552" d="M-70 1477q7 18 35 18h219q30 0 54 -33l168 -233q17 -25 6 -43.5t-33 -18.5h-141q-37 0 -62 25l-235 248q-18 19 -11 37zM143 33v958q0 12 10 22.5t23 10.5h201q13 0 23 -10.5t10 -22.5v-958q0 -12 -10 -22.5t-23 -10.5h-201q-13 0 -23 10.5t-10 22.5z" />
<glyph unicode="&#xed;" horiz-adv-x="552" d="M121 1185.5q-11 18.5 6 43.5l168 233q8 11 12 15.5t15.5 11t25.5 6.5h219q29 0 36 -18t-11 -37l-236 -248q-25 -25 -61 -25h-141q-22 0 -33 18.5zM143 33v958q0 12 10 22.5t23 10.5h201q13 0 23 -10.5t10 -22.5v-958q0 -12 -10 -22.5t-23 -10.5h-201q-13 0 -23 10.5 t-10 22.5z" />
<glyph unicode="&#xee;" horiz-adv-x="552" d="M-97 1188.5q-5 21.5 7 30.5l244 251q25 25 61 25h127q34 0 59 -25l244 -251q12 -9 5 -30.5t-32 -21.5h-192q-40 0 -64 33l-71 90q-6 9 -14.5 9t-14.5 -9l-72 -90q-24 -33 -63 -33h-195q-24 0 -29 21.5zM143 33v958q0 12 10 22.5t23 10.5h201q13 0 23 -10.5t10 -22.5v-958 q0 -12 -10 -22.5t-23 -10.5h-201q-13 0 -23 10.5t-10 22.5z" />
<glyph unicode="&#xef;" horiz-adv-x="552" d="M-61 1229v184q0 17 12 29t29 12h184q17 0 29 -12t12 -29v-184q0 -17 -12 -29t-29 -12h-184q-17 0 -29 12t-12 29zM143 33v958q0 12 10 22.5t23 10.5h201q13 0 23 -10.5t10 -22.5v-958q0 -12 -10 -22.5t-23 -10.5h-201q-13 0 -23 10.5t-10 22.5zM348 1229v184q0 17 12 29 t29 12h184q17 0 29 -12t12 -29v-184q0 -17 -12 -29t-29 -12h-184q-17 0 -29 12t-12 29z" />
<glyph unicode="&#xf0;" horiz-adv-x="1126" d="M55 426v72q0 188 133.5 316t323.5 128q55 0 94 -20q17 -10 32 -2.5t15 28.5q0 58 -32 117q-8 17 -21 8l-137 -94q-15 -12 -36 -2.5t-21 31.5v82q0 15 1 21.5t7.5 16.5t21.5 19q12 9 8.5 14.5t-12.5 5.5h-129q-17 0 -29 12t-12 29v185q0 17 12 29t29 12h135q149 0 256 -76 q10 -5 19 2l147 84q14 11 32.5 1t18.5 -30v-125q0 -19 -5.5 -28t-20.5 -21l-31 -20q-16 -12 -10 -21q34 -53 82 -217q30 -105 39 -269.5t-7 -291.5q-11 -96 -41.5 -174t-82.5 -140t-134 -96.5t-188 -34.5q-210 0 -333.5 127.5t-123.5 321.5zM330 422q6 -80 54.5 -128 t127.5 -48t127.5 48t54.5 128q3 39 0 80q-6 81 -55 132.5t-127 51.5t-127 -51.5t-55 -132.5q-3 -41 0 -80z" />
<glyph unicode="&#xf1;" horiz-adv-x="1075" d="M123 41v942q0 17 12 29t29 12h102q23 0 37 -14q2 -2 13 -14t20 -16.5t22 -4.5q23 0 54 18t75 36t97 18q161 0 270 -110t109 -271v-625q0 -17 -12 -29t-29 -12h-185q-17 0 -29 12t-12 29v627q0 53 -40.5 86.5t-112.5 33.5q-70 0 -112 -32.5t-42 -79.5v-635q0 -17 -12 -29 t-29 -12h-184q-17 0 -29 12t-12 29zM207 1225v123q0 41 42.5 72.5t102.5 31.5q64 0 181 -25.5t188 -25.5q60 0 94 43q12 16 31.5 7.5t19.5 -36.5v-123q0 -41 -42.5 -72.5t-102.5 -31.5q-65 0 -182 25.5t-187 25.5q-57 0 -94 -43q-12 -15 -31.5 -6.5t-19.5 35.5z" />
<glyph unicode="&#xf2;" horiz-adv-x="1038" d="M86 512q0 92 8 154q21 168 132 274.5t292 106.5q182 0 293.5 -106t132.5 -275q8 -61 8 -154t-8 -154q-21 -168 -132 -274.5t-292 -106.5q-182 0 -293.5 106t-132.5 275q-8 62 -8 154zM188 1477q7 18 35 18h219q30 0 54 -33l168 -233q17 -25 6 -43.5t-33 -18.5h-141 q-37 0 -62 25l-235 248q-18 19 -11 37zM351 511.5q0 -92.5 9 -153.5q16 -114 158 -114q143 0 160 114q9 61 9 154t-9 154q-17 114 -160 114q-75 0 -112 -27.5t-46 -86.5q-9 -62 -9 -154.5z" />
<glyph unicode="&#xf3;" horiz-adv-x="1038" d="M86 512q0 92 8 154q21 168 132 274.5t292 106.5q182 0 293.5 -106t132.5 -275q8 -61 8 -154t-8 -154q-21 -168 -132 -274.5t-292 -106.5q-182 0 -293.5 106t-132.5 275q-8 62 -8 154zM351 511.5q0 -92.5 9 -153.5q16 -114 158 -114q143 0 160 114q9 61 9 154t-9 154 q-17 114 -160 114q-75 0 -112 -27.5t-46 -86.5q-9 -62 -9 -154.5zM401.5 1185.5q-10.5 18.5 6.5 43.5l167 233q24 33 54 33h219q28 0 35 -18t-11 -37l-235 -248q-25 -25 -62 -25h-141q-22 0 -32.5 18.5z" />
<glyph unicode="&#xf4;" horiz-adv-x="1038" d="M86 512q0 92 8 154q21 168 132 274.5t292 106.5q182 0 293.5 -106t132.5 -275q8 -61 8 -154t-8 -154q-21 -168 -132 -274.5t-292 -106.5q-182 0 -293.5 106t-132.5 275q-8 62 -8 154zM161 1188.5q-5 21.5 7 30.5l244 251q25 25 61 25h127q34 0 59 -25l244 -251 q12 -9 5.5 -30.5t-31.5 -21.5h-193q-39 0 -63 33l-72 90q-6 9 -14.5 9t-14.5 -9l-71 -90q-24 -33 -64 -33h-195q-24 0 -29 21.5zM351 511.5q0 -92.5 9 -153.5q16 -114 158 -114q143 0 160 114q9 61 9 154t-9 154q-17 114 -160 114q-75 0 -112 -27.5t-46 -86.5 q-9 -62 -9 -154.5z" />
<glyph unicode="&#xf5;" horiz-adv-x="1038" d="M86 512q0 92 8 154q21 168 132 274.5t292 106.5q182 0 293.5 -106t132.5 -275q8 -61 8 -154t-8 -154q-21 -168 -132 -274.5t-292 -106.5q-182 0 -293.5 106t-132.5 275q-8 62 -8 154zM205 1225v123q0 41 42.5 72.5t102.5 31.5q64 0 181 -25.5t188 -25.5q60 0 94 43 q12 16 31.5 7.5t19.5 -36.5v-123q0 -41 -42.5 -72.5t-102.5 -31.5q-64 0 -181.5 25.5t-187.5 25.5q-57 0 -94 -43q-12 -15 -31.5 -6.5t-19.5 35.5zM351 511.5q0 -92.5 9 -153.5q16 -114 158 -114q143 0 160 114q9 61 9 154t-9 154q-17 114 -160 114q-75 0 -112 -27.5 t-46 -86.5q-9 -62 -9 -154.5z" />
<glyph unicode="&#xf6;" horiz-adv-x="1038" d="M86 512q0 92 8 154q21 168 132 274.5t292 106.5q182 0 293.5 -106t132.5 -275q8 -61 8 -154t-8 -154q-21 -168 -132 -274.5t-292 -106.5q-182 0 -293.5 106t-132.5 275q-8 62 -8 154zM199 1229v184q0 17 12 29t29 12h184q17 0 29 -12t12 -29v-184q0 -17 -12 -29t-29 -12 h-184q-17 0 -29 12t-12 29zM351 511.5q0 -92.5 9 -153.5q16 -114 158 -114q143 0 160 114q9 61 9 154t-9 154q-17 114 -160 114q-75 0 -112 -27.5t-46 -86.5q-9 -62 -9 -154.5zM608 1229v184q0 17 12 29t29 12h185q17 0 28.5 -12t11.5 -29v-184q0 -17 -11.5 -29t-28.5 -12 h-185q-17 0 -29 12t-12 29z" />
<glyph unicode="&#xf7;" horiz-adv-x="1126" d="M102 434v162q0 17 12 29t29 12h840q17 0 29 -12t12 -29v-162q0 -17 -12 -29t-29 -12h-840q-17 0 -29 12t-12 29zM416 41v211q0 17 12 29t29 12h211q17 0 29 -12t12 -29v-211q0 -17 -12 -29t-29 -12h-211q-17 0 -29 12t-12 29zM416 772v211q0 17 12 29t29 12h211 q17 0 29 -12t12 -29v-211q0 -17 -12 -29t-29 -12h-211q-17 0 -29 12t-12 29z" />
<glyph unicode="&#xf8;" horiz-adv-x="1071" d="M44.5 19q-8.5 19 6.5 38l99 121q11 15 4 29q-35 78 -43 151q-7 62 -7 154t7 154q21 168 132 274.5t292 106.5q134 0 237 -64q13 -6 21 2l8 8q28 31 49 31h131q21 0 31 -19t-4 -38l-95 -121q-7 -9 -2 -19q38 -74 50 -161q7 -61 7 -154t-7 -154q-21 -168 -132 -274.5 t-292 -106.5q-141 0 -242 66q-13 13 -25 -2l-12 -14q-21 -27 -49 -27h-135q-21 0 -29.5 19zM367 477q0 -8 4.5 -11t13.5 7l223 281q10 13 -6 18q-24 8 -67 8q-75 0 -112 -27.5t-46 -86.5q-13 -81 -10 -189zM457 276q-14 -16 4 -22q33 -10 74 -10q142 0 159 114q12 74 8 201 q0 8 -3 10.5t-11 -6.5z" />
<glyph unicode="&#xf9;" horiz-adv-x="1075" d="M113 358v625q0 17 12 29t29 12h184q17 0 29 -12t12 -29v-627q0 -53 40.5 -86.5t112.5 -33.5q70 0 112 32.5t42 79.5v635q0 17 12 29t29 12h184q17 0 29 -12t12 -29v-942q0 -17 -12 -29t-29 -12h-102q-27 0 -47 20q-25 21 -45 21q-23 0 -51.5 -16t-69.5 -32t-94 -16 q-162 0 -275.5 110.5t-113.5 270.5zM186 1477q7 18 35 18h219q30 0 54 -33l168 -233q17 -25 6 -43.5t-33 -18.5h-141q-37 0 -62 25l-235 248q-18 19 -11 37z" />
<glyph unicode="&#xfa;" horiz-adv-x="1075" d="M113 358v625q0 17 12 29t29 12h184q17 0 29 -12t12 -29v-627q0 -53 40.5 -86.5t112.5 -33.5q70 0 112 32.5t42 79.5v635q0 17 12 29t29 12h184q17 0 29 -12t12 -29v-942q0 -17 -12 -29t-29 -12h-102q-27 0 -47 20q-25 21 -45 21q-23 0 -51.5 -16t-69.5 -32t-94 -16 q-162 0 -275.5 110.5t-113.5 270.5zM397 1185.5q-11 18.5 6 43.5l168 233q24 33 54 33h219q28 0 35 -18t-11 -37l-235 -248q-25 -25 -62 -25h-141q-22 0 -33 18.5z" />
<glyph unicode="&#xfb;" horiz-adv-x="1075" d="M113 358v625q0 17 12 29t29 12h184q17 0 29 -12t12 -29v-627q0 -53 40.5 -86.5t112.5 -33.5q70 0 112 32.5t42 79.5v635q0 17 12 29t29 12h184q17 0 29 -12t12 -29v-942q0 -17 -12 -29t-29 -12h-102q-27 0 -47 20q-25 21 -45 21q-23 0 -51.5 -16t-69.5 -32t-94 -16 q-162 0 -275.5 110.5t-113.5 270.5zM157 1188.5q-5 21.5 7 30.5l244 251q25 25 61 25h127q34 0 59 -25l244 -251q12 -9 5 -30.5t-32 -21.5h-192q-40 0 -64 33l-71 90q-6 9 -14.5 9t-14.5 -9l-72 -90q-24 -33 -63 -33h-195q-24 0 -29 21.5z" />
<glyph unicode="&#xfc;" horiz-adv-x="1075" d="M113 358v625q0 17 12 29t29 12h184q17 0 29 -12t12 -29v-627q0 -53 40.5 -86.5t112.5 -33.5q70 0 112 32.5t42 79.5v635q0 17 12 29t29 12h184q17 0 29 -12t12 -29v-942q0 -17 -12 -29t-29 -12h-102q-27 0 -47 20q-25 21 -45 21q-23 0 -51.5 -16t-69.5 -32t-94 -16 q-162 0 -275.5 110.5t-113.5 270.5zM195 1229v184q0 17 12 29t29 12h184q17 0 29 -12t12 -29v-184q0 -17 -12 -29t-29 -12h-184q-17 0 -29 12t-12 29zM604 1229v184q0 17 12 29t29 12h184q17 0 29 -12t12 -29v-184q0 -17 -12 -29t-29 -12h-184q-17 0 -29 12t-12 29z" />
<glyph unicode="&#xfd;" horiz-adv-x="993" d="M14 977q-6 16 5 31.5t34 15.5h211q28 0 39 -31l180 -581q5 -12 13.5 -12t11.5 12l166 581q8 31 39 31h207q23 0 34 -15.5t4 -31.5l-481 -1356q-11 -31 -39 -31h-188q-23 0 -34.5 16t-4.5 32l143 382q8 25 0 46zM393 1185.5q-11 18.5 6 43.5l168 233q24 33 54 33h219 q28 0 35 -18t-11 -37l-235 -248q-25 -25 -62 -25h-141q-22 0 -33 18.5z" />
<glyph unicode="&#xfe;" horiz-adv-x="1028" d="M111 -369v1782q0 17 12 29t29 12h184q17 0 29 -12t12 -29v-340q0 -32 18 -42.5t43 -0.5q60 25 123 25q158 0 267.5 -112.5t121.5 -276.5q11 -154 0 -308q-12 -164 -121.5 -276.5t-267.5 -112.5q-63 0 -123 25q-25 10 -43 -0.5t-18 -42.5v-320q0 -17 -12 -29t-29 -12h-184 q-17 0 -29 12t-12 29zM375 358q9 -122 155 -122q71 0 111 34t43 88q11 154 0 308q-3 54 -43 88t-111 34q-72 0 -111 -33t-44 -89q-11 -154 0 -308z" />
<glyph unicode="&#xff;" horiz-adv-x="993" d="M14 977q-6 16 5 31.5t34 15.5h211q28 0 39 -31l180 -581q5 -12 13.5 -12t11.5 12l166 581q8 31 39 31h207q23 0 34 -15.5t4 -31.5l-481 -1356q-11 -31 -39 -31h-188q-23 0 -34.5 16t-4.5 32l143 382q8 25 0 46zM168 1229v184q0 17 12 29t29 12h184q17 0 29 -12t12 -29 v-184q0 -17 -12 -29t-29 -12h-184q-17 0 -29 12t-12 29zM578 1229v184q0 17 11.5 29t28.5 12h185q17 0 29 -12t12 -29v-184q0 -17 -12 -29t-29 -12h-185q-17 0 -28.5 12t-11.5 29z" />
<glyph unicode="&#x152;" horiz-adv-x="1720" d="M104 717q0 158 15 287q11 93 49 174.5t98.5 143.5t148.5 98t191 36q134 0 252 -67q14 -7 14 4q0 17 12 29t29 12h676q17 0 29 -12t12 -29v-205q0 -17 -12 -29t-29 -12h-477q-20 0 -20 -21v-245q0 -21 20 -21h461q17 0 29 -12t12 -29v-205q0 -17 -12 -29t-29 -12h-461 q-20 0 -20 -20v-246q0 -20 20 -20h485q17 0 29 -12t12 -29v-205q0 -17 -12 -29t-29 -12h-684q-17 0 -29 12t-12 29q0 11 -14 2q-106 -66 -252 -66q-103 0 -191 36t-148.5 98.5t-98.5 144t-49 174.5q-15 129 -15 287zM393 717q0 -158 15 -287q8 -72 58.5 -118t139.5 -46 t140 46t59 118q15 129 15 287t-15 287q-8 72 -59 117.5t-140 45.5t-139.5 -45.5t-58.5 -117.5q-15 -129 -15 -287z" />
<glyph unicode="&#x153;" horiz-adv-x="1652" d="M86 512q0 92 8 154q21 168 132 274.5t292 106.5q162 0 281 -101q35 -30 67 -2q122 103 283 103q188 0 303 -107.5t115 -298.5v-170q0 -17 -12 -29t-29 -12h-527q-13 0 -21.5 -8.5t-8.5 -22.5q0 -82 52 -132t128 -50q124 0 162 94q13 35 47 35h170q17 0 28 -10.5t7 -30.5 q-28 -148 -137.5 -238t-276.5 -90q-164 0 -283 101q-32 28 -67 -2q-114 -99 -279 -99q-182 0 -293.5 106t-132.5 275q-8 62 -8 154zM352 512q0 -93 8 -154q14 -122 158 -122q74 0 114 33.5t46 88.5q8 61 8 154t-8 154q-13 114 -160 114q-76 0 -113 -27.5t-45 -86.5 q-8 -61 -8 -154zM971 676q0 -19 20 -19h312q20 0 20 19q0 62 -51 95.5t-123 33.5q-86 0 -132 -34.5t-46 -94.5z" />
<glyph unicode="&#x178;" horiz-adv-x="1060" d="M25 1376q-9 23 1 40.5t31 17.5h226q28 0 39 -31l196 -567q3 -9 12.5 -9t12.5 9l196 567q11 31 39 31h226q21 0 31 -17.5t1 -40.5l-362 -913v-422q0 -17 -12 -29t-29 -12h-205q-17 0 -29 12t-12 29v422zM188 1597v185q0 17 12 29t29 12h185q17 0 29 -12t12 -29v-185 q0 -17 -12 -29t-29 -12h-185q-17 0 -29 12t-12 29zM598 1597v185q0 17 12 29t29 12h184q17 0 29 -12t12 -29v-185q0 -17 -12 -29t-29 -12h-184q-17 0 -29 12t-12 29z" />
<glyph unicode="&#x2c6;" horiz-adv-x="811" d="M37 1188.5q-5 21.5 6 30.5l244 251q25 25 61 25h127q35 0 60 -25l243 -251q12 -9 5.5 -30.5t-31.5 -21.5h-193q-39 0 -63 33l-72 90q-6 9 -14.5 9t-14.5 -9l-71 -90q-24 -33 -64 -33h-194q-24 0 -29 21.5z" />
<glyph unicode="&#x2dc;" horiz-adv-x="1007" d="M205 1225v123q0 41 42.5 72.5t102.5 31.5q64 0 181 -25.5t188 -25.5q60 0 94 43q12 16 31.5 7.5t19.5 -36.5v-123q0 -41 -42.5 -72.5t-102.5 -31.5q-64 0 -181.5 25.5t-187.5 25.5q-57 0 -94 -43q-12 -15 -31.5 -6.5t-19.5 35.5z" />
<glyph unicode="&#x2000;" horiz-adv-x="988" />
<glyph unicode="&#x2001;" horiz-adv-x="1976" />
<glyph unicode="&#x2002;" horiz-adv-x="988" />
<glyph unicode="&#x2003;" horiz-adv-x="1976" />
<glyph unicode="&#x2004;" horiz-adv-x="658" />
<glyph unicode="&#x2005;" horiz-adv-x="494" />
<glyph unicode="&#x2006;" horiz-adv-x="329" />
<glyph unicode="&#x2007;" horiz-adv-x="329" />
<glyph unicode="&#x2008;" horiz-adv-x="247" />
<glyph unicode="&#x2009;" horiz-adv-x="395" />
<glyph unicode="&#x200a;" horiz-adv-x="109" />
<glyph unicode="&#x2010;" horiz-adv-x="845" d="M102 446v203q0 17 12 29t29 12h559q17 0 29 -12t12 -29v-203q0 -17 -12 -28.5t-29 -11.5h-559q-17 0 -29 11.5t-12 28.5z" />
<glyph unicode="&#x2011;" horiz-adv-x="845" d="M102 446v203q0 17 12 29t29 12h559q17 0 29 -12t12 -29v-203q0 -17 -12 -28.5t-29 -11.5h-559q-17 0 -29 11.5t-12 28.5z" />
<glyph unicode="&#x2012;" horiz-adv-x="845" d="M102 446v203q0 17 12 29t29 12h559q17 0 29 -12t12 -29v-203q0 -17 -12 -28.5t-29 -11.5h-559q-17 0 -29 11.5t-12 28.5z" />
<glyph unicode="&#x2013;" horiz-adv-x="1167" d="M143 442v183q0 17 12 29t29 12h840q17 0 29 -12t12 -29v-183q0 -17 -12 -29t-29 -12h-840q-17 0 -29 12t-12 29z" />
<glyph unicode="&#x2014;" horiz-adv-x="1454" d="M129 442v183q0 17 12 29t29 12h1141q17 0 29 -12t12 -29v-183q0 -17 -12 -29t-29 -12h-1141q-17 0 -29 12t-12 29z" />
<glyph unicode="&#x2018;" horiz-adv-x="526" d="M92 840v239q0 84 45 142l131 172q27 41 70 41h41q31 0 44.5 -25t-1.5 -53l-111 -203q-6 -10 1.5 -18.5t17.5 -8.5h49q17 0 29 -12t12 -29v-245q0 -17 -12 -29t-29 -12h-246q-17 0 -29 12t-12 29z" />
<glyph unicode="&#x2019;" horiz-adv-x="526" d="M98.5 824q-13.5 25 1.5 53l111 202q6 10 -1 18.5t-17 8.5h-50q-17 0 -29 12t-12 29v246q0 17 12 29t29 12h246q17 0 29 -12t12 -29v-240q0 -83 -45 -141l-131 -172q-27 -41 -70 -41h-41q-31 0 -44.5 25z" />
<glyph unicode="&#x201a;" horiz-adv-x="530" d="M105 -282q-14 25 1 53l111 202q6 10 -1 18.5t-17 8.5h-49q-17 0 -29 12t-12 29v246q0 17 12 29t29 12h245q17 0 29 -12t12 -29v-240q0 -83 -45 -141l-131 -172q-27 -41 -70 -41h-40q-31 0 -45 25z" />
<glyph unicode="&#x201c;" horiz-adv-x="976" d="M92 840v239q0 84 45 142l131 172q27 41 70 41h41q31 0 44.5 -25t-1.5 -53l-111 -203q-6 -10 1.5 -18.5t17.5 -8.5h49q17 0 29 -12t12 -29v-245q0 -17 -12 -29t-29 -12h-246q-17 0 -29 12t-12 29zM543 840v239q0 84 45 142l131 172q27 41 69 41h41q31 0 44.5 -25t-1.5 -53 l-110 -203q-6 -10 1 -18.5t17 -8.5h49q17 0 29 -12t12 -29v-245q0 -17 -12 -29t-29 -12h-245q-17 0 -29 12t-12 29z" />
<glyph unicode="&#x201d;" horiz-adv-x="976" d="M98.5 824q-13.5 25 1.5 53l111 202q6 10 -1 18.5t-17 8.5h-50q-17 0 -29 12t-12 29v246q0 17 12 29t29 12h246q17 0 29 -12t12 -29v-240q0 -83 -45 -141l-131 -172q-27 -41 -70 -41h-41q-31 0 -44.5 25zM549.5 824q-13.5 25 1.5 53l111 202q6 10 -1.5 18.5t-17.5 8.5h-49 q-17 0 -29 12t-12 29v246q0 17 12 29t29 12h246q17 0 29 -12t12 -29v-240q0 -83 -45 -141l-131 -172q-27 -41 -70 -41h-41q-31 0 -44.5 25z" />
<glyph unicode="&#x201e;" horiz-adv-x="985" d="M98.5 -282q-13.5 25 1.5 53l111 202q6 10 -1 18.5t-17 8.5h-50q-17 0 -29 12t-12 29v246q0 17 12 29t29 12h246q17 0 29 -12t12 -29v-240q0 -83 -45 -141l-131 -172q-27 -41 -70 -41h-41q-31 0 -44.5 25zM549.5 -282q-13.5 25 1.5 53l111 202q6 10 -1.5 18.5t-17.5 8.5 h-49q-17 0 -29 12t-12 29v246q0 17 12 29t29 12h246q17 0 29 -12t12 -29v-240q0 -83 -45 -141l-131 -172q-27 -41 -70 -41h-41q-31 0 -44.5 25z" />
<glyph unicode="&#x2022;" horiz-adv-x="579" d="M102 397v293q0 17 12 29t29 12h293q17 0 29 -12t12 -29v-293q0 -17 -12 -29t-29 -12h-293q-17 0 -29 12t-12 29z" />
<glyph unicode="&#x2026;" horiz-adv-x="1615" d="M102 41v246q0 17 12 29t29 12h246q17 0 29 -12t12 -29v-246q0 -17 -12 -29t-29 -12h-246q-17 0 -29 12t-12 29zM643 41v246q0 17 12 29t29 12h246q17 0 29 -12t12 -29v-246q0 -17 -12 -29t-29 -12h-246q-17 0 -29 12t-12 29zM1186 41v246q0 17 12 29t29 12h246 q17 0 28.5 -12t11.5 -29v-246q0 -17 -11.5 -29t-28.5 -12h-246q-17 0 -29 12t-12 29z" />
<glyph unicode="&#x202f;" horiz-adv-x="395" />
<glyph unicode="&#x2039;" horiz-adv-x="673" d="M104 532.5q0 11.5 11 28.5l196 330q19 31 51 31h164q31 0 40.5 -18t-7.5 -50l-174 -297q-9 -13 -9 -23.5t9 -25.5l174 -297q17 -32 7.5 -50t-40.5 -18h-164q-32 0 -51 31l-196 330q-11 17 -11 28.5z" />
<glyph unicode="&#x203a;" horiz-adv-x="673" d="M107 161q-10 18 8 50l174 297q9 15 9 25t-9 24l-174 297q-18 32 -8 50t40 18h164q32 0 51 -31l197 -330q11 -17 11 -28.5t-11 -28.5l-197 -330q-19 -31 -51 -31h-164q-30 0 -40 18z" />
<glyph unicode="&#x205f;" horiz-adv-x="494" />
<glyph unicode="&#x20ac;" horiz-adv-x="1126" d="M-35 512v127q0 17 12 29t29 12h80q16 0 16 16v80q0 10 -12 10h-84q-17 0 -29 12t-12 29v127q0 17 12 29t29 12h94q6 0 12.5 4.5t6.5 10.5q12 92 50.5 172t99 141.5t148 97t189.5 35.5q213 0 350.5 -132t137.5 -337q0 -17 -12 -29t-29 -12h-205q-17 0 -28 11.5t-13 29.5 q-6 81 -60 130.5t-141 49.5t-136 -43.5t-62 -113.5q-3 -15 10 -15h223q17 0 29 -12t12 -29v-127q0 -17 -12 -29t-29 -12h-233q-17 0 -17 -16v-70q0 -20 19 -20h231q17 0 29 -12t12 -29v-127q0 -17 -12 -29t-29 -12h-215q-11 0 -15 -8.5t-3 -32.5q6 -72 57 -118t141 -46 q87 0 141 49.5t60 130.5q2 18 13 29.5t28 11.5h205q17 0 29 -12t12 -29q0 -205 -137.5 -337t-350.5 -132q-103 0 -191 36t-148.5 98.5t-98.5 144t-49 174.5q-3 27 -7 34t-16 7h-90q-17 0 -29 12t-12 29z" />
<glyph unicode="&#x2122;" horiz-adv-x="1437" d="M51 1274v139q0 8 6 14.5t15 6.5h471q7 0 13.5 -6.5t6.5 -14.5v-139q0 -8 -6.5 -14.5t-13.5 -6.5h-135q-11 0 -11 -10v-506q0 -9 -6 -14.5t-14 -5.5h-139q-8 0 -14.5 5.5t-6.5 14.5v506q0 10 -10 10h-135q-9 0 -15 6.5t-6 14.5zM614 737v676q0 7 7 14t14 7h201 q16 0 22 -19l113 -407q1 -4 5 -4t5 4l113 407q3 19 20 19h201q9 0 14.5 -6.5t5.5 -14.5v-676q0 -20 -20 -20h-121q-20 0 -20 20v389q0 6 -7 5l-2 -3l-127 -395q-5 -16 -20 -16h-84q-18 0 -23 16l-125 395q-1 2 -3 2.5t-3.5 -0.5t-1.5 -4v-389q0 -9 -6 -14.5t-14 -5.5h-123 q-8 0 -14.5 5.5t-6.5 14.5z" />
<glyph unicode="&#xe000;" horiz-adv-x="1024" d="M0 0v1024h1024v-1024h-1024z" />
<glyph unicode="&#xfb03;" horiz-adv-x="1912" d="M10 813v164q0 17 12 29t29 12h164q21 0 21 20v41q0 158 114 266.5t275 108.5h123q17 0 28.5 -12t11.5 -29v-184q0 -17 -11.5 -29t-28.5 -12h-123q-52 0 -87.5 -31.5t-35.5 -81.5v-37q0 -20 20 -20h336q21 0 21 20v41q0 158 114 266.5t275 108.5h481q17 0 29 -12t12 -29 v-184q0 -17 -12 -29t-29 -12h-481q-52 0 -87.5 -31.5t-35.5 -81.5v-37q0 -20 20 -20h592q13 0 23 -10.5t10 -22.5v-952q0 -12 -10 -22.5t-23 -10.5h-201q-13 0 -22.5 10.5t-9.5 22.5v719q0 20 -21 20h-338q-20 0 -20 -20v-711q0 -17 -12 -29t-29 -12h-184q-17 0 -29 12 t-12 29v711q0 20 -21 20h-336q-20 0 -20 -20v-711q0 -17 -12 -29t-29 -12h-185q-17 0 -28.5 12t-11.5 29v711q0 20 -21 20h-164q-17 0 -29 12t-12 29z" />
<glyph unicode="&#xfb04;" horiz-adv-x="1951" d="M10 813v164q0 17 12 29t29 12h164q21 0 21 20v41q0 158 114 266.5t275 108.5h123q17 0 28.5 -12t11.5 -29v-184q0 -17 -11.5 -29t-28.5 -12h-123q-52 0 -87.5 -31.5t-35.5 -81.5v-37q0 -20 20 -20h334q21 0 21 20v41q0 158 114 266.5t275 108.5h102q17 0 29 -12t12 -29 v-184q0 -17 -12 -29t-29 -12h-102q-52 0 -87.5 -31.5t-35.5 -81.5v-37q0 -20 20 -20h369q20 0 20 20v375q0 17 12 29t29 12h185q17 0 29 -12t12 -29v-1372q0 -17 -12 -29t-29 -12h-185q-17 0 -29 12t-12 29v711q0 20 -20 20h-369q-20 0 -20 -20v-711q0 -17 -12 -29t-29 -12 h-184q-17 0 -29 12t-12 29v711q0 20 -21 20h-334q-20 0 -20 -20v-711q0 -17 -12 -29t-29 -12h-185q-17 0 -28.5 12t-11.5 29v711q0 20 -21 20h-164q-17 0 -29 12t-12 29z" />
</font>
</defs>
</svg>
