<?xml version="1.0" encoding="utf-8"?>
<!-- Generator: Adobe Illustrator 16.0.0, SVG Export Plug-In . SVG Version: 6.00 Build 0)  -->
<!DOCTYPE svg PUBLIC "-//W3C//DTD SVG 1.1//EN" "http://www.w3.org/Graphics/SVG/1.1/DTD/svg11.dtd">
<svg version="1.1" id="Layer_1" xmlns="http://www.w3.org/2000/svg" xmlns:xlink="http://www.w3.org/1999/xlink" x="0px" y="0px"
	 width="40px" height="40px" viewBox="0 0 40 40" enable-background="new 0 0 40 40" xml:space="preserve">
<g>
	<path fill="#FFFFFF" d="M20.005,8.075c-6.432,0-11.664,5.232-11.664,11.663c0,6.431,5.232,11.663,11.664,11.663
		c6.431,0,11.663-5.231,11.663-11.663C31.668,13.307,26.436,8.075,20.005,8.075z M20.005,29.9c-5.604,0-10.164-4.559-10.164-10.163
		s4.56-10.163,10.164-10.163c5.603,0,10.163,4.559,10.163,10.163C30.168,25.341,25.609,29.9,20.005,29.9z"/>
	<path fill="#FFFFFF" d="M22.449,23.613h-1.456V15.05c0.003-0.195-0.068-0.392-0.218-0.54c-0.061-0.061-0.133-0.101-0.206-0.137
		c-0.013-0.006-0.022-0.018-0.035-0.023c-0.185-0.077-0.394-0.078-0.578,0c-0.08,0.033-0.148,0.083-0.211,0.14
		c-0.009,0.009-0.021,0.011-0.031,0.021l-0.001,0.001l0,0l-2.682,2.683c-0.293,0.293-0.293,0.769,0,1.061
		c0.146,0.147,0.338,0.22,0.53,0.22c0.191,0,0.383-0.074,0.531-0.22l1.401-1.401v6.76h-1.455c-0.414,0-0.75,0.336-0.75,0.75
		s0.336,0.75,0.75,0.75h4.411c0.414,0,0.75-0.336,0.75-0.75S22.863,23.613,22.449,23.613z"/>
</g>
</svg>
