<?xml version="1.0" encoding="utf-8"?>
<!-- Generator: Adobe Illustrator 16.0.0, SVG Export Plug-In . SVG Version: 6.00 Build 0)  -->
<!DOCTYPE svg PUBLIC "-//W3C//DTD SVG 1.1//EN" "http://www.w3.org/Graphics/SVG/1.1/DTD/svg11.dtd">
<svg version="1.1" id="Layer_1" xmlns="http://www.w3.org/2000/svg" xmlns:xlink="http://www.w3.org/1999/xlink" x="0px" y="0px"
	 width="40px" height="40px" viewBox="0 0 40 40" enable-background="new 0 0 40 40" xml:space="preserve">
<g>
	<path fill="#FFFFFF" d="M20,14.051c-2.522,0-4.574,2.038-4.574,4.543c0,2.506,2.052,4.543,4.574,4.543
		c2.521,0,4.575-2.037,4.575-4.543C24.575,16.089,22.521,14.051,20,14.051z M20,21.636c-1.695,0-3.074-1.365-3.074-3.043
		c0-1.678,1.379-3.043,3.074-3.043c1.695,0,3.075,1.366,3.075,3.043C23.075,20.271,21.695,21.636,20,21.636z"/>
	<path fill="#FFFFFF" d="M19.999,8.861c-5.421,0-9.832,4.378-9.832,9.758c0,5.238,8.889,13.701,9.267,14.059
		c0.145,0.137,0.33,0.205,0.516,0.205c0.184,0,0.368-0.068,0.512-0.201c0.382-0.357,9.37-8.822,9.37-14.062
		C29.832,13.238,25.421,8.861,19.999,8.861z M19.953,31.093c-2.718-2.679-8.285-8.903-8.285-12.474c0-4.553,3.738-8.258,8.332-8.258
		c4.596,0,8.333,3.704,8.333,8.258C28.333,22.189,22.7,28.416,19.953,31.093z"/>
</g>
</svg>
