<?xml version="1.0" encoding="utf-8"?>
<!-- Generator: Adobe Illustrator 16.0.0, SVG Export Plug-In . SVG Version: 6.00 Build 0)  -->
<!DOCTYPE svg PUBLIC "-//W3C//DTD SVG 1.1//EN" "http://www.w3.org/Graphics/SVG/1.1/DTD/svg11.dtd">
<svg version="1.1" id="Layer_1" xmlns="http://www.w3.org/2000/svg" xmlns:xlink="http://www.w3.org/1999/xlink" x="0px" y="0px"
	 width="40px" height="40px" viewBox="0 0 40 40" enable-background="new 0 0 40 40" xml:space="preserve">
<path fill="#FFFFFF" d="M32.618,12.155c-0.293-0.293-0.768-0.293-1.061,0l-9.782,9.782l-4.22-4.22c-0.293-0.293-0.768-0.293-1.061,0
	L6.37,27.843c-0.293,0.293-0.293,0.768,0,1.061c0.146,0.146,0.338,0.22,0.53,0.22s0.384-0.073,0.53-0.22l9.595-9.595l4.22,4.22
	c0.146,0.146,0.338,0.22,0.53,0.22s0.384-0.073,0.53-0.22l10.312-10.312C32.911,12.923,32.911,12.448,32.618,12.155z"/>
</svg>
