<?xml version="1.0" encoding="utf-8"?>
<!-- Generator: Adobe Illustrator 16.0.0, SVG Export Plug-In . SVG Version: 6.00 Build 0)  -->
<!DOCTYPE svg PUBLIC "-//W3C//DTD SVG 1.1//EN" "http://www.w3.org/Graphics/SVG/1.1/DTD/svg11.dtd">
<svg version="1.1" id="Layer_1" xmlns="http://www.w3.org/2000/svg" xmlns:xlink="http://www.w3.org/1999/xlink" x="0px" y="0px"
	 width="40px" height="40px" viewBox="0 0 40 40" enable-background="new 0 0 40 40" xml:space="preserve">
<path fill="#FFFFFF" d="M28.483,12.701c-0.027-0.067-0.073-0.124-0.119-0.179c-0.016-0.021-0.023-0.045-0.042-0.064
	c-0.028-0.028-0.064-0.041-0.097-0.064c-0.047-0.035-0.091-0.074-0.145-0.096c-0.095-0.04-0.194-0.059-0.294-0.059H16.773
	c-0.414,0-0.75,0.336-0.75,0.75c0,0.414,0.336,0.75,0.75,0.75h9.208L11.679,28.041c-0.293,0.293-0.293,0.768,0,1.061
	c0.146,0.147,0.338,0.221,0.53,0.221s0.384-0.073,0.53-0.219l14.303-14.304v9.209c0,0.414,0.336,0.75,0.75,0.75
	s0.75-0.336,0.75-0.75v-11.02c0,0,0,0,0,0C28.542,12.891,28.521,12.793,28.483,12.701z"/>
</svg>
