<?xml version="1.0" encoding="utf-8"?>
<!-- Generator: Adobe Illustrator 16.0.0, SVG Export Plug-In . SVG Version: 6.00 Build 0)  -->
<!DOCTYPE svg PUBLIC "-//W3C//DTD SVG 1.1//EN" "http://www.w3.org/Graphics/SVG/1.1/DTD/svg11.dtd">
<svg version="1.1" id="Layer_1" xmlns="http://www.w3.org/2000/svg" xmlns:xlink="http://www.w3.org/1999/xlink" x="0px" y="0px"
	 width="133.283px" height="56.163px" viewBox="0 0 133.283 56.163" enable-background="new 0 0 133.283 56.163"
	 xml:space="preserve">
<g>
	<path fill="#FFFFFF" d="M16.008,47.609h-4.171c-0.255,0-0.506-0.061-0.734-0.174L0.908,42.338C0.352,42.059,0,41.49,0,40.869
		v-6.244c0-0.357,0.117-0.706,0.333-0.991l6.651-8.787c0.847-1.31,7.16-9.031,38.658-10.275L61.912,3.814
		c0.068-0.045,0.139-0.085,0.213-0.119c0.32-0.149,7.998-3.646,22.108-3.283c3.548,0.091,7.242,0.425,10.98,0.992
		c2.597,0.395,5.266,0.91,7.932,1.533c3.657,0.855,7.42,1.938,11.183,3.22c0.19,0.065,0.368,0.165,0.522,0.293l15.294,12.766
		c0.336,0.28,0.546,0.682,0.584,1.118l0.548,6.28l1.802,3.265c0.221,0.399,0.266,0.872,0.123,1.306l-4.521,13.764
		c-0.198,0.604-0.725,1.037-1.354,1.117l-7.312,0.924c-0.91,0.113-1.721-0.524-1.835-1.424c-0.113-0.898,0.523-1.721,1.423-1.834
		l6.282-0.793l3.973-12.099l-1.624-2.943c-0.111-0.201-0.179-0.422-0.199-0.651l-0.519-5.947L112.981,9.167
		c-3.564-1.204-7.124-2.224-10.584-3.033c-2.582-0.604-5.165-1.103-7.676-1.484c-3.604-0.547-7.16-0.869-10.572-0.956
		C71.733,3.379,64.523,6.242,63.605,6.63L47.069,17.563c-0.251,0.166-0.543,0.26-0.844,0.271c-31.03,1.154-36.446,8.74-36.497,8.816
		c-0.018,0.027-0.062,0.094-0.082,0.12l-6.362,8.406v4.679l8.942,4.472h3.783c0.907,0,1.642,0.734,1.642,1.641
		C17.65,46.874,16.915,47.609,16.008,47.609z"/>
</g>
<g>
	<path fill="#FFFFFF" d="M107.658,47.609h-79.11c-0.907,0-1.642-0.735-1.642-1.643c0-0.906,0.735-1.641,1.642-1.641h79.11
		c0.906,0,1.642,0.734,1.642,1.641C109.3,46.874,108.564,47.609,107.658,47.609z"/>
</g>
<g>
	<path fill="#FFFFFF" d="M65.658,46.182c-0.245,0-0.486-0.107-0.648-0.316c-4.963-6.381-18.946-28.299-19.539-29.229
		c-0.244-0.382-0.131-0.889,0.251-1.133s0.89-0.131,1.133,0.251C47,15.981,61.39,38.537,66.305,44.857
		c0.278,0.358,0.214,0.874-0.144,1.152C66.012,46.126,65.834,46.182,65.658,46.182z"/>
</g>
<g>
	<path fill="#FFFFFF" d="M102.558,46.729c-0.229,0-0.458-0.096-0.62-0.282c-9.94-11.464-19.862-25.768-27.106-36.212
		c-1.717-2.474-3.302-4.759-4.727-6.778c-0.262-0.37-0.174-0.882,0.196-1.144c0.374-0.261,0.884-0.172,1.144,0.197
		c1.428,2.022,3.016,4.311,4.734,6.789c7.224,10.414,17.116,24.675,26.999,36.071c0.297,0.343,0.26,0.861-0.083,1.158
		C102.939,46.664,102.748,46.729,102.558,46.729z"/>
</g>
<g>
	<path fill="#FFFFFF" d="M48.132,46.789c-0.26,0-0.516-0.124-0.675-0.354C47.335,46.26,35.212,28.715,30.71,17.701
		c-0.172-0.419,0.029-0.898,0.449-1.07c0.421-0.173,0.899,0.03,1.07,0.449c4.436,10.85,16.457,28.246,16.577,28.42
		c0.258,0.373,0.166,0.885-0.207,1.143C48.456,46.74,48.293,46.789,48.132,46.789z"/>
</g>
<g>
	<path fill="#FFFFFF" d="M40.474,34.888c-0.286,0-0.563-0.149-0.714-0.415c-0.224-0.395-0.086-0.896,0.308-1.119
		c0.133-0.076,13.285-7.546,15.36-9.126c0.762-0.581,1.587-1.425,2.544-2.402c1.643-1.68,3.687-3.771,6.68-5.874
		c5.68-3.995,10.28-6.966,10.326-6.995c0.379-0.246,0.888-0.136,1.134,0.245s0.136,0.889-0.245,1.134
		c-0.045,0.029-4.618,2.983-10.271,6.958c-2.869,2.017-4.855,4.047-6.451,5.679c-1.001,1.024-1.865,1.908-2.723,2.561
		c-2.162,1.647-14.999,8.938-15.543,9.248C40.75,34.854,40.611,34.888,40.474,34.888z"/>
</g>
<g>
	<path fill="#FFFFFF" d="M89.085,29.725c-0.325,0-0.634-0.196-0.762-0.517c-0.168-0.42,0.036-0.898,0.457-1.066
		c0.293-0.117,29.354-11.747,34.002-13.464c0.427-0.156,0.897,0.06,1.054,0.485c0.157,0.425-0.06,0.896-0.485,1.054
		c-4.626,1.71-33.668,13.331-33.961,13.448C89.29,29.705,89.187,29.725,89.085,29.725z"/>
</g>
<g>
	<path fill="#FFFFFF" d="M22.033,30.674c-5.632,0-10.196,4.564-10.196,10.195s10.14,15.294,10.14,15.294S32.229,46.5,32.229,40.869
		S27.664,30.674,22.033,30.674 M22.033,45.967c-2.816,0-5.098-2.282-5.098-5.098c0-2.816,2.282-5.098,5.098-5.098
		c2.815,0,5.098,2.281,5.098,5.098C27.131,43.685,24.848,45.967,22.033,45.967"/>
</g>
<g>
	<path fill="#FFFFFF" d="M113.798,30.674c-5.631,0-10.195,4.564-10.195,10.195s10.141,15.294,10.141,15.294
		s10.251-9.663,10.251-15.294S119.43,30.674,113.798,30.674 M113.798,45.967c-2.815,0-5.098-2.282-5.098-5.098
		c0-2.816,2.282-5.098,5.098-5.098c2.816,0,5.099,2.281,5.099,5.098C118.896,43.685,116.614,45.967,113.798,45.967"/>
</g>
</svg>
