<?xml version="1.0" encoding="utf-8"?>
<!-- Generator: Adobe Illustrator 16.0.0, SVG Export Plug-In . SVG Version: 6.00 Build 0)  -->
<!DOCTYPE svg PUBLIC "-//W3C//DTD SVG 1.1//EN" "http://www.w3.org/Graphics/SVG/1.1/DTD/svg11.dtd">
<svg version="1.1" id="Layer_1" xmlns="http://www.w3.org/2000/svg" xmlns:xlink="http://www.w3.org/1999/xlink" x="0px" y="0px"
	 width="85.416px" height="80.08px" viewBox="0 0 85.416 80.08" enable-background="new 0 0 85.416 80.08" xml:space="preserve">
<path fill="#30D874" d="M84.489,14.002C79.06,9.524,73.631,5.048,68.203,0.57c-2.761-2.276-8.161,2.824-5.042,5.396
	c2.697,2.225,5.395,4.449,8.092,6.674C35.787,14.353,3.146,40.438,0.02,77.28c-0.415,4.896,5.717,2.64,6.042-1.191
	C8.953,42.03,41.135,19.597,73.647,19.69c-3.48,2.748-6.961,5.496-10.441,8.244c-3.639,2.873-0.443,7.506,3.248,4.592
	c5.713-4.51,11.426-9.02,17.138-13.529C85.116,17.794,86.327,15.518,84.489,14.002z"/>
</svg>
