<?xml version="1.0" encoding="utf-8"?>
<!-- Generator: Adobe Illustrator 16.0.0, SVG Export Plug-In . SVG Version: 6.00 Build 0)  -->
<!DOCTYPE svg PUBLIC "-//W3C//DTD SVG 1.1//EN" "http://www.w3.org/Graphics/SVG/1.1/DTD/svg11.dtd">
<svg version="1.1" id="Layer_1" xmlns="http://www.w3.org/2000/svg" xmlns:xlink="http://www.w3.org/1999/xlink" x="0px" y="0px"
   width="109.474px" height="80.115px" viewBox="0 0 109.474 80.115" enable-background="new 0 0 109.474 80.115"
   xml:space="preserve">
<path fill="#30D874" d="M107.939,13.355c-7.118-4.143-13.881-8.857-21-13c-3.459-2.013-5.741,5.091-2.633,6.899
  c3.432,1.997,6.781,4.129,10.127,6.264c-39.949,2.29-87.177,20.59-94.362,63.695c-0.808,4.844,5.474,2.958,6.103-0.817
  c6.784-40.695,56.769-55.707,93.242-56.114c-3.797,4.728-7.092,9.812-9.888,15.266c-1.723,3.36,1.956,8.869,4.188,4.515
  c3.846-7.501,8.545-14.288,14.445-20.322C109.729,18.139,110.165,14.649,107.939,13.355z"/>
</svg>
