<?xml version="1.0" encoding="utf-8"?>
<!-- Generator: Adobe Illustrator 17.0.0, SVG Export Plug-In . SVG Version: 6.00 Build 0)  -->
<!DOCTYPE svg PUBLIC "-//W3C//DTD SVG 1.1//EN" "http://www.w3.org/Graphics/SVG/1.1/DTD/svg11.dtd">
<svg version="1.1" id="Слой_1" xmlns="http://www.w3.org/2000/svg" xmlns:xlink="http://www.w3.org/1999/xlink" x="0px" y="0px"
	 width="33.865px" height="113.221px" viewBox="0 0 33.865 113.221" enable-background="new 0 0 33.865 113.221"
	 xml:space="preserve">
<g>
	<g>
		<g>
			<path fill="#FFFFFF" d="M33.834,27.937c-1.025-8.244-2.049-16.489-3.074-24.733c-0.295-2.371-1.962-3.713-4.357-3.023
				C19.235,2.243,12.068,4.306,4.901,6.368c-4.654,1.339-5.686,10.563,0.326,8.833c7.167-2.063,14.334-4.125,21.501-6.188
				c-1.452-1.008-2.905-2.016-4.357-3.023c1.025,8.244,2.049,16.489,3.074,24.733C26.217,36.933,34.433,32.763,33.834,27.937
				L33.834,27.937z"/>
		</g>
	</g>
	<g>
		<g>
			<path fill="#FFFFFF" d="M28.411,104.337C-0.775,81.792,4.562,37.154,27.25,11.929c1.514-1.683,2.869-4.392,1.354-6.546
				c-1.375-1.956-4.362-1.338-5.781,0.239C-3.324,34.694-11.567,86.075,22.71,112.553C26.652,115.598,32.392,107.413,28.411,104.337
				L28.411,104.337z"/>
		</g>
	</g>
</g>
</svg>
