<?xml version="1.0" encoding="utf-8"?>
<!-- Generator: Adobe Illustrator 17.0.0, SVG Export Plug-In . SVG Version: 6.00 Build 0)  -->
<!DOCTYPE svg PUBLIC "-//W3C//DTD SVG 1.1//EN" "http://www.w3.org/Graphics/SVG/1.1/DTD/svg11.dtd">
<svg version="1.1" id="Слой_1" xmlns="http://www.w3.org/2000/svg" xmlns:xlink="http://www.w3.org/1999/xlink" x="0px" y="0px"
	 width="472.404px" height="196.202px" viewBox="0 0 472.404 196.202" enable-background="new 0 0 472.404 196.202"
	 xml:space="preserve">
<g>
	
		<path fill="none" stroke="#08344D" stroke-width="7.7526" stroke-linecap="round" stroke-linejoin="round" stroke-miterlimit="10" d="
		M163.741,55.923c0,0,51.303,79.824,68.979,102.367"/>
	
		<path fill="none" stroke="#08344D" stroke-width="7.7526" stroke-linecap="round" stroke-linejoin="round" stroke-miterlimit="10" d="
		M111.745,60.12c16.002,38.811,58.959,100.297,58.959,100.297"/>
	
		<path fill="none" stroke="#08344D" stroke-width="7.7526" stroke-linecap="round" stroke-linejoin="round" stroke-miterlimit="10" d="
		M143.604,118.651c0,0,47.096-26.518,54.672-32.244c7.578-5.727,15.875-17.357,32.551-28.986
		c20.285-14.148,36.436-24.486,36.436-24.486"/>
	
		<polyline fill="none" stroke="#08344D" stroke-width="12.4042" stroke-linecap="round" stroke-linejoin="round" stroke-miterlimit="10" points="
		381.341,160.417 150.515,160.417 101.837,160.417 	"/>
	
		<path fill="none" stroke="#08344D" stroke-width="12.4042" stroke-linecap="round" stroke-linejoin="round" stroke-miterlimit="10" d="
		M55.337,160.417H42.278L6.202,142.522v-21.918l23.689-31.043c0,0,17.348-29.344,133.85-33.639
		c58.932-38.646,58.932-38.646,58.932-38.646s26.523-12.234,75.629-10.984c11.492,0.291,24.215,1.32,38.131,3.416
		c8.74,1.316,17.947,3.057,27.613,5.299c12.279,2.844,25.295,6.504,39.02,11.143l54.119,44.803l2.041,23.26l6.977,12.525
		l-15.996,48.311l-27.786,4.359"/>
	
		<path fill="none" stroke="#08344D" stroke-width="7.7526" stroke-linecap="round" stroke-linejoin="round" stroke-miterlimit="10" d="
		M250.823,9.557c26.697,37.498,69.219,101.186,112.467,150.656"/>
	
		<path fill="none" stroke="#08344D" stroke-width="7.7526" stroke-linecap="round" stroke-linejoin="round" stroke-miterlimit="10" d="
		M315.616,100.528c0,0,103.648-41.146,120.244-47.229"/>
	<path fill="#08344D" d="M78.356,106.737c-19.928,0-36.078,16.021-36.078,35.785c0,19.764,35.881,53.68,35.881,53.68
		s36.277-33.916,36.277-53.68C114.436,122.759,98.282,106.737,78.356,106.737z M78.356,160.417c-9.963,0-18.041-8.014-18.041-17.895
		c0-9.881,8.078-17.891,18.041-17.891s18.041,8.01,18.041,17.891C96.397,152.403,88.319,160.417,78.356,160.417z"/>
	<path fill="#08344D" d="M403.065,106.737c-19.926,0-36.08,16.021-36.08,35.785c0,19.764,35.883,53.68,35.883,53.68
		s36.275-33.916,36.275-53.68C439.144,122.759,422.989,106.737,403.065,106.737z M403.065,160.417
		c-9.967,0-18.041-8.014-18.041-17.895c0-9.881,8.074-17.891,18.041-17.891c9.963,0,18.037,8.01,18.037,17.891
		C421.103,152.403,413.028,160.417,403.065,160.417z"/>
</g>
</svg>
