<?xml version="1.0" encoding="utf-8"?>
<!-- Generator: Adobe Illustrator 17.0.0, SVG Export Plug-In . SVG Version: 6.00 Build 0)  -->
<!DOCTYPE svg PUBLIC "-//W3C//DTD SVG 1.1//EN" "http://www.w3.org/Graphics/SVG/1.1/DTD/svg11.dtd">
<svg version="1.1" id="Слой_1" xmlns="http://www.w3.org/2000/svg" xmlns:xlink="http://www.w3.org/1999/xlink" x="0px" y="0px"
	 width="319.469px" height="140.566px" viewBox="0 0 319.469 140.566" enable-background="new 0 0 319.469 140.566"
	 xml:space="preserve">
<g>
	
		<polyline fill="none" stroke="#08344D" stroke-width="8" stroke-linecap="round" stroke-linejoin="round" stroke-miterlimit="10" points="
		240.496,110.216 72.179,110.216 67.497,110.216 	"/>
	<path fill="none" stroke="#08344D" stroke-width="8" stroke-linecap="round" stroke-linejoin="round" stroke-miterlimit="10" d="
		M30.29,108.089l-6.164-0.717l-19.921-4.776c0,0-0.462-16.157,0-21.358c0.181-2.037,6.611-20.025,7.223-21.877
		c0.725-2.192,24.862-7.045,51.358-13.442c2.286-2.562,34.178-34.509,34.178-34.509l15.997-3.36c0,0,75.539-9.192,179.453,0.127
		l13.805,21.931l3.927,33.503l0.256,18.136l5.067,6.567l-1.186,12.466l-5.443,4.84l-32.559,3.772"/>
	<path fill="none" stroke="#08344D" stroke-width="5" stroke-linecap="round" stroke-linejoin="round" stroke-miterlimit="10" d="
		M68.382,101.226c6.152-3.43,15.902-7.986,27.505-10.28c20.037-3.961,112.967-23.085,162.56-39.298
		c42.104-13.764,47.772-21.542,47.772-21.542"/>
	<path fill="none" stroke="#08344D" stroke-width="5" stroke-linecap="round" stroke-linejoin="round" stroke-miterlimit="10" d="
		M199.955,4c0,0,38.05,91.996,42.089,106.216"/>
	
		<line fill="none" stroke="#08344D" stroke-width="5" stroke-linecap="round" stroke-linejoin="round" stroke-miterlimit="10" x1="234.076" y1="4" x2="265.372" y2="88.914"/>
	
		<line fill="none" stroke="#08344D" stroke-width="5" stroke-linecap="round" stroke-linejoin="round" stroke-miterlimit="10" x1="148.472" y1="5.286" x2="98.217" y2="66.248"/>
	
		<polyline fill="none" stroke="#08344D" stroke-width="5" stroke-linecap="round" stroke-linejoin="round" stroke-miterlimit="10" points="
		98.217,90.482 98.217,66.248 62.786,45.917 	"/>
	<path fill="#08344D" d="M49.688,82.319c-12.868,0-23.299,10.432-23.299,23.299s23.172,34.948,23.172,34.948
		s23.426-22.081,23.426-34.948S62.555,82.319,49.688,82.319z M49.688,117.267c-6.435,0-11.649-5.216-11.649-11.649
		c0-6.434,5.215-11.649,11.649-11.649c6.434,0,11.649,5.216,11.649,11.649C61.337,112.051,56.121,117.267,49.688,117.267z"/>
	<path fill="#08344D" d="M258.447,82.319c-12.868,0-23.299,10.432-23.299,23.299s23.173,34.948,23.173,34.948
		s23.425-22.081,23.425-34.948S271.314,82.319,258.447,82.319z M258.447,117.267c-6.435,0-11.649-5.216-11.649-11.649
		c0-6.434,5.215-11.649,11.649-11.649c6.434,0,11.65,5.216,11.65,11.649C270.097,112.051,264.88,117.267,258.447,117.267z"/>
</g>
</svg>
