<?xml version="1.0" encoding="utf-8"?>
<!-- Generator: Adobe Illustrator 17.0.0, SVG Export Plug-In . SVG Version: 6.00 Build 0)  -->
<!DOCTYPE svg PUBLIC "-//W3C//DTD SVG 1.1//EN" "http://www.w3.org/Graphics/SVG/1.1/DTD/svg11.dtd">
<svg version="1.1" id="Слой_1" xmlns="http://www.w3.org/2000/svg" xmlns:xlink="http://www.w3.org/1999/xlink" x="0px" y="0px"
	 width="13.688px" height="15.146px" viewBox="0 0 13.688 15.146" enable-background="new 0 0 13.688 15.146" xml:space="preserve">
<g>
	<g>
		<path fill="#08344D" d="M3.39,3.785c-3.054,2.956-4.355,8.776,0.399,10.892c4.508,2.006,8.633-2.829,9.674-6.664
			c0.978-3.605-1.362-6.787-4.702-7.777c-3.847-1.14-7.346,2.039-8.537,5.428c-0.299,0.85-0.511,2.594,0.809,2.718
			c1.268,0.119,2.364-1.348,2.729-2.388c0.326-0.929,1.508-0.875,2.38-0.789c1.409,0.14,2.549,1.036,3.229,2.232
			c0.797,1.402-0.19,2.184-1.488,2.491c-0.922,0.218-1.931-0.252-2.569-0.889c-0.337-0.337-0.523-0.73-0.669-1.172
			C4.484,7.371,4.718,7.446,4.486,7.67c0.91-0.88,1.761-2.28,1.389-3.607C5.53,2.837,4.131,3.068,3.39,3.785L3.39,3.785z"/>
	</g>
</g>
</svg>
