<?xml version="1.0" encoding="utf-8"?>
<!-- Generator: Adobe Illustrator 17.0.0, SVG Export Plug-In . SVG Version: 6.00 Build 0)  -->
<!DOCTYPE svg PUBLIC "-//W3C//DTD SVG 1.1//EN" "http://www.w3.org/Graphics/SVG/1.1/DTD/svg11.dtd">
<svg version="1.1" id="Слой_1" xmlns="http://www.w3.org/2000/svg" xmlns:xlink="http://www.w3.org/1999/xlink" x="0px" y="0px"
	 width="13.623px" height="13.792px" viewBox="0 0 13.623 13.792" enable-background="new 0 0 13.623 13.792" xml:space="preserve">
<g>
	<path fill="#5BB56E" d="M3.065,5.147c-2.943,2.131,0.912,5.783,3.247,6.088c2.842,0.304,4.973-2.233,5.276-4.973
		c0.507-5.074-5.885-4.161-8.321-1.725"/>
	<g>
		<path fill="#5BB56E" d="M2.517,3.204C0.975,4.473-0.094,6.36,0.007,8.396c0.089,1.806,1.33,3.202,2.686,4.256
			c3.582,2.784,7.818,0.006,9.694-3.372c1.466-2.639,2.251-7.528-1.303-8.9c-2.779-1.072-6.3,0.273-8.364,2.215
			C1.801,3.459,0.962,4.888,1.331,6.202c0.347,1.237,1.737,0.981,2.485,0.278C4.938,5.425,9.35,3.915,9.599,6.588
			c0.15,1.61-1.18,2.305-2.626,2.038c-0.72-0.133-1.532-0.775-2.039-1.272c-0.273-0.268-0.49-0.58-0.702-0.896
			C3.62,5.548,4.528,6.338,3.613,7.09c0.957-0.787,1.742-2.351,1.389-3.607C4.641,2.197,3.294,2.566,2.517,3.204L2.517,3.204z"/>
	</g>
</g>
</svg>
