<?xml version="1.0" encoding="utf-8"?>
<!-- Generator: Adobe Illustrator 17.0.0, SVG Export Plug-In . SVG Version: 6.00 Build 0)  -->
<!DOCTYPE svg PUBLIC "-//W3C//DTD SVG 1.1//EN" "http://www.w3.org/Graphics/SVG/1.1/DTD/svg11.dtd">
<svg version="1.1" id="Слой_1" xmlns="http://www.w3.org/2000/svg" xmlns:xlink="http://www.w3.org/1999/xlink" x="0px" y="0px"
	 width="13.59px" height="13.867px" viewBox="0 0 13.59 13.867" enable-background="new 0 0 13.59 13.867" xml:space="preserve">
<g>
	<g>
		<path fill="#08344D" d="M6.095,0.717c-4.049,0.582-6.836,4.53-5.92,8.542c0.758,3.32,4.26,5.304,7.476,4.382
			c4.326-1.24,7.413-6.624,5.209-10.8c-0.772-1.463-2.105-2.504-3.743-2.79c-2.051-0.359-4.029,1.246-5.14,2.783
			C3.32,3.741,2.498,5.3,3.273,6.392C4.009,7.43,5.495,6.475,6.031,5.734C6.157,5.547,6.294,5.37,6.442,5.201
			C6.349,5.314,6.172,5.392,6.565,5.175c0.098-0.054,0.556-0.032,0.86,0.022C8.16,5.325,8.755,6.03,9.145,6.608
			c0.204,0.302,0.304,0.626,0.399,0.978c0.081,0.3-0.016,0.67,0.034,0.523c0.169-0.499,0.004-0.066-0.274,0.162
			C8.957,8.557,8.478,8.666,8.054,8.761C6.434,9.124,4.978,7.853,4.253,6.545C4.17,6.396,4.058,5.972,3.999,5.714
			c0.08,0.351-0.004-0.293-0.005-0.316c0.005,0.578,0.17-0.457-0.057,0.249C3.712,6.352,4.176,5.457,3.731,6.013
			c-0.09,0.113-0.553,0.404-0.069,0.114C4.1,5.865,4.654,5.807,5.149,5.736C7.217,5.439,8.97,0.304,6.095,0.717L6.095,0.717z"/>
	</g>
</g>
</svg>
