<?xml version="1.0" encoding="utf-8"?>
<!-- Generator: Adobe Illustrator 15.1.0, SVG Export Plug-In . SVG Version: 6.00 Build 0)  -->
<!DOCTYPE svg PUBLIC "-//W3C//DTD SVG 1.1//EN" "http://www.w3.org/Graphics/SVG/1.1/DTD/svg11.dtd">
<svg version="1.1" id="Layer_1" xmlns="http://www.w3.org/2000/svg" xmlns:xlink="http://www.w3.org/1999/xlink" x="0px" y="0px"
	 width="100px" height="100px" viewBox="0 0 100 100" enable-background="new 0 0 100 100" xml:space="preserve">
<g>
	<g>
		<polygon fill="#30D874" points="20,20 0,20 20,0 		"/>
		<rect x="20" fill="#30D874" width="20" height="20"/>
		<rect x="40" fill="#30D874" width="20" height="20"/>
		<polygon fill="#30D874" points="60,20 60,0 80,0 		"/>
	</g>
	<g>
		<rect y="20" fill="#30D874" width="20" height="20"/>
		<rect x="20" y="20" fill="#30D874" width="20" height="20"/>
		<polygon fill="#30D874" points="40,40 40,20 60,20 		"/>
		<polygon fill="#30D874" points="100,40 80,40 100,20 		"/>
	</g>
	<g>
		<rect y="40" fill="#30D874" width="20" height="20"/>
		<polygon fill="#30D874" points="20,60 20,40 40,40 		"/>
		<polygon fill="#30D874" points="80,60 60,60 80,40 		"/>
		<rect x="80" y="40" fill="#30D874" width="20" height="20"/>
	</g>
	<g>
		<polygon fill="#30D874" points="0,80 0,60 20,60 		"/>
		<polygon fill="#30D874" points="60,80 40,80 60,60 		"/>
		<rect x="60" y="60" fill="#30D874" width="20" height="20"/>
		<rect x="80" y="60" fill="#30D874" width="20" height="20"/>
	</g>
	<g>
		<polygon fill="#30D874" points="40,100 20,100 40,80 		"/>
		<rect x="40" y="80" fill="#30D874" width="20" height="20"/>
		<rect x="60" y="80" fill="#30D874" width="20" height="20"/>
		<polygon fill="#30D874" points="80,100 80,80 100,80 		"/>
	</g>
</g>
</svg>
