<?xml version="1.0" encoding="utf-8"?>
<!-- Generator: Adobe Illustrator 17.0.0, SVG Export Plug-In . SVG Version: 6.00 Build 0)  -->
<!DOCTYPE svg PUBLIC "-//W3C//DTD SVG 1.1//EN" "http://www.w3.org/Graphics/SVG/1.1/DTD/svg11.dtd">
<svg version="1.1" id="Слой_1" xmlns="http://www.w3.org/2000/svg" xmlns:xlink="http://www.w3.org/1999/xlink" x="0px" y="0px"
	 width="91.929px" height="84.271px" viewBox="0 0 91.929 84.271" enable-background="new 0 0 91.929 84.271" xml:space="preserve">
<g>
	<g>
		<g>
			<path fill="#FFFFFF" d="M67,52.955C72.97,58.734,78.94,64.512,84.91,70.29c0.543-2.676,1.086-5.351,1.629-8.027
				c-5.959,4.485-11.917,8.969-17.876,13.454c-1.932,1.454-3.587,3.836-2.795,6.387c0.686,2.21,3.455,2.793,5.238,1.451
				c5.959-4.485,11.917-8.969,17.876-13.454c2.528-1.903,4.273-5.468,1.629-8.027c-5.97-5.778-11.939-11.557-17.909-17.335
				C69.203,41.353,63.39,49.461,67,52.955L67,52.955z"/>
		</g>
	</g>
	<g>
		<g>
			<path fill="#FFFFFF" d="M0,5.913C0.519,47.848,44.306,72.86,82.597,69.516c4.677-0.408,7.552-9.753,1.812-9.252
				C49.948,63.273,8.862,41.382,8.389,3.127C8.311-3.105-0.059,1.118,0,5.913L0,5.913z"/>
		</g>
	</g>
</g>
</svg>
