<?xml version="1.0" encoding="utf-8"?>
<!-- Generator: Adobe Illustrator 17.0.0, SVG Export Plug-In . SVG Version: 6.00 Build 0)  -->
<!DOCTYPE svg PUBLIC "-//W3C//DTD SVG 1.1//EN" "http://www.w3.org/Graphics/SVG/1.1/DTD/svg11.dtd">
<svg version="1.1" id="Слой_1" xmlns="http://www.w3.org/2000/svg" xmlns:xlink="http://www.w3.org/1999/xlink" x="0px" y="0px"
	 width="62.735px" height="60.015px" viewBox="0 0 62.735 60.015" enable-background="new 0 0 62.735 60.015" xml:space="preserve">
<g>
	<g>
		<path fill="#5BB56E" d="M23.644,32.02c3.522-3.469,7.255-6.713,10.779-10.18c-2.3-0.625-4.6-1.251-6.9-1.876
			c-0.063,6.86-1.679,14.437,0.171,21.151c1.01,3.666,8.799,2.293,7.652-1.87c-1.653-5.999,0.115-13.419,0.171-19.567
			c0.029-3.102-5.146-3.601-6.9-1.876c-3.525,3.467-7.257,6.711-10.779,10.18C14.274,31.493,20.87,34.752,23.644,32.02L23.644,32.02
			z"/>
	</g>
</g>
<g>
	<g>
		<path fill="#5BB56E" d="M33.017,1.087c-14.3-0.41-27.29,6.815-31.611,20.984c-3.494,11.455-0.499,25.422,9.248,32.941
			c13.253,10.225,33.738,3.324,44.2-7.68c14.44-15.187,8.731-46.039-14.62-47.275c-4.081-0.216-8.211,0.228-12.282,0.447
			c-3.886,0.209-5.976,7.272-0.978,7.003c8.56-0.461,16.964-1.687,23.255,5.298c6.821,7.574,7.493,19.596,2.135,28.015
			c-6.743,10.595-25.338,16.248-36.071,8.517C8.459,43.696,5.855,33.164,7.641,24.056C9.803,13.023,19.72,7.818,30.296,8.122
			C34.018,8.228,37.574,1.218,33.017,1.087L33.017,1.087z"/>
	</g>
</g>
</svg>
