<?xml version="1.0" encoding="iso-8859-1"?>
<!-- Generator: Adobe Illustrator 17.0.0, SVG Export Plug-In . SVG Version: 6.00 Build 0)  -->
<!DOCTYPE svg PUBLIC "-//W3C//DTD SVG 1.1//EN" "http://www.w3.org/Graphics/SVG/1.1/DTD/svg11.dtd">
<svg version="1.1" id="&#x421;&#x43B;&#x43E;&#x439;_1"
	 xmlns="http://www.w3.org/2000/svg" xmlns:xlink="http://www.w3.org/1999/xlink" x="0px" y="0px" width="265.487px"
	 height="169.805px" viewBox="0 0 265.487 169.805" enable-background="new 0 0 265.487 169.805" xml:space="preserve">
<g>
	<g>
		<g>
			<path fill="#30D874" d="M26.999,125.567c-7.951,5.69-15.902,11.38-23.854,17.07c-1.791,1.282-4.508,5.116-2.346,7.312
				c6.158,6.254,12.316,12.508,18.474,18.762c3.785,3.844,10.446-3.423,7.135-6.786c-6.158-6.254-12.316-12.508-18.474-18.762
				c-0.782,2.437-1.564,4.875-2.346,7.312c7.951-5.69,15.902-11.38,23.853-17.07c1.959-1.402,3.575-3.876,2.795-6.387
				C31.538,124.77,28.805,124.274,26.999,125.567L26.999,125.567z"/>
		</g>
	</g>
	<g>
		<g>
			<path fill="#30D874" d="M93.931,119.473c-20.71,21.724-53.824,28.655-82.454,21.787c-4.662-1.118-9.045,7.815-3.859,9.059
				c31.576,7.574,67.975-0.659,90.739-24.539C102.241,121.705,98.473,114.708,93.931,119.473L93.931,119.473z"/>
		</g>
	</g>
</g>
<g>
	<g>
		<path fill="#30D874" d="M254.672,56.247c-0.439,46.843-54.988,63.065-93.339,65.736c-21.435,1.493-42.995-0.916-63.715-6.516
			c-18.805-5.082-38.771-13.55-52.153-28.188c-10.15-11.103-16.171-29.636-6.857-42.507c10.607-14.659,31.717-19.95,48.419-23.361
			c22.39-4.574,45.854-5.797,68.658-4.907c18.46,0.721,37.745,3.61,55.017,10.465c0.4,0.159,0.799,0.322,1.193,0.495
			c5.773,2.546,12.964-10.58,7.5-12.99c-13.019-5.742-27.761-8.489-41.765-10.29c-23.819-3.062-48.597-1.849-72.373,1.176
			C70.059,9.837,19.531,25.529,23.459,70.267c3.614,41.16,55.141,57.605,89.113,63.304c42.229,7.085,93.694,1.456,127.112-27.6
			c16.258-14.136,25.601-34.205,25.803-55.728c0.031-3.259-2.745-4.717-5.511-3.182C256.817,48.815,254.706,52.678,254.672,56.247
			L254.672,56.247z"/>
	</g>
</g>
<g>
	<g>
		<path fill="#30D874" d="M205.597,13.835c22.06,4.842,48.706,16.136,49.075,42.412c0.045,3.234,2.693,4.747,5.511,3.182
			c3.104-1.723,5.353-5.641,5.303-9.186c-0.431-30.668-28.353-44.342-54.73-50.131C205.144-1.12,198.87,12.358,205.597,13.835
			L205.597,13.835z"/>
	</g>
</g>
</svg>
