<?xml version="1.0" encoding="iso-8859-1"?>
<!-- Generator: Adobe Illustrator 17.0.0, SVG Export Plug-In . SVG Version: 6.00 Build 0)  -->
<!DOCTYPE svg PUBLIC "-//W3C//DTD SVG 1.1//EN" "http://www.w3.org/Graphics/SVG/1.1/DTD/svg11.dtd">
<svg version="1.1" id="&#x421;&#x43B;&#x43E;&#x439;_1"
	 xmlns="http://www.w3.org/2000/svg" xmlns:xlink="http://www.w3.org/1999/xlink" x="0px" y="0px" width="242.378px"
	 height="200.576px" viewBox="0 0 242.378 200.576" enable-background="new 0 0 242.378 200.576" xml:space="preserve">
<g>
	<g>
		<g>
			<path fill="#30D874" d="M205.873,164.135c7.951,5.69,15.902,11.38,23.854,17.07c0.212-2.42,0.425-4.841,0.637-7.261
				c-6.158,6.254-12.316,12.508-18.474,18.762c-3.964,4.026-0.19,10.995,4.426,6.307c6.158-6.254,12.316-12.508,18.474-18.762
				c1.739-1.766,3.162-5.455,0.637-7.261c-7.951-5.69-15.902-11.38-23.854-17.07C207.504,153.007,201.791,161.214,205.873,164.135
				L205.873,164.135z"/>
		</g>
	</g>
	<g>
		<g>
			<path fill="#30D874" d="M120.413,121.217c7.821,49.03,62.938,70.194,107.146,59.529c4.726-1.14,5.757-10.3-0.326-8.833
				c-39.197,9.456-91.401-9.402-98.432-53.482C127.817,112.26,119.646,116.407,120.413,121.217L120.413,121.217z"/>
		</g>
	</g>
</g>
<g>
	<g>
		<path fill="#30D874" d="M108.103,0C70.398,0.094,8.877,5.398,0.791,52.369c-3.309,19.221,3.93,38.742,18.553,51.344
			c15.538,13.39,37.713,18.109,57.479,20.688c22.21,2.899,44.988,2.912,67.313,1.424c20.429-1.361,41.3-4.213,60.323-12.134
			c16.83-7.007,31.807-19.268,36.479-37.581c4.494-17.615-1.755-34.555-15.685-45.817c-11.378-9.199-26.259-13.791-40.284-17.064
			c-16.85-3.932-34.253-5.451-51.51-6.072c-27.699-0.997-57.81,0.597-83.581,11.964c-5.286,2.332-7.995,15.986,0.208,12.368
			c0.223-0.098,0.449-0.192,0.674-0.285c-2.038,0.844,0.596-0.213,1.066-0.388c2.948-1.101,5.953-2.045,8.973-2.928
			c10.334-3.022,20.979-4.925,31.668-6.132c23.611-2.665,48.428-1.196,71.891,2.288c19.157,2.845,39.798,7.777,54.961,20.53
			c11.922,10.027,16.237,27.84,7.781,40.959c-8.835,13.707-30.263,19.098-45.387,22.286c-20.259,4.27-41.15,5.234-61.801,5.134
			c-23.023-0.112-47.061-1.526-68.99-9.097c-17.668-6.101-33.475-17.397-38.455-36.207c-2.056-7.766-2.715-17.601,0.875-25.032
			c3.73-7.721,10.948-12.697,18.387-16.494c21.362-10.905,47.706-12.342,71.213-12.4C108.816,13.708,114.534-0.016,108.103,0
			L108.103,0z"/>
	</g>
</g>
</svg>
