<?xml version="1.0" encoding="utf-8"?>
<!-- Generator: Adobe Illustrator 17.0.0, SVG Export Plug-In . SVG Version: 6.00 Build 0)  -->
<!DOCTYPE svg PUBLIC "-//W3C//DTD SVG 1.1//EN" "http://www.w3.org/Graphics/SVG/1.1/DTD/svg11.dtd">
<svg version="1.1" id="Слой_1" xmlns="http://www.w3.org/2000/svg" xmlns:xlink="http://www.w3.org/1999/xlink" x="0px" y="0px"
	 width="91.967px" height="84.382px" viewBox="0 0 91.967 84.382" enable-background="new 0 0 91.967 84.382" xml:space="preserve">
<g>
	<g>
		<g>
			<path fill="#FFFFFF" d="M19.903,45.681C13.934,51.46,7.964,57.238,1.994,63.016c-1.828,1.769-3.079,5.424-0.637,7.261
				c5.959,4.485,11.917,8.969,17.876,13.454c3.987,3.001,9.717-5.193,5.701-8.216c-5.959-4.485-11.917-8.969-17.876-13.454
				c-0.212,2.42-0.425,4.841-0.637,7.261c5.97-5.778,11.939-11.557,17.909-17.335C28.408,48.04,24.625,41.111,19.903,45.681
				L19.903,45.681z"/>
		</g>
	</g>
	<g>
		<g>
			<path fill="#FFFFFF" d="M83.579,5.901C83.117,43.211,42.48,63.142,9.37,60.251c-4.698-0.41-7.617,8.745-1.812,9.252
				c39.601,3.459,83.879-23.561,84.409-66.388C92.044-3.102,83.638,1.128,83.579,5.901L83.579,5.901z"/>
		</g>
	</g>
</g>
</svg>
