<?xml version="1.0" encoding="iso-8859-1"?>
<!-- Generator: Adobe Illustrator 17.0.0, SVG Export Plug-In . SVG Version: 6.00 Build 0)  -->
<!DOCTYPE svg PUBLIC "-//W3C//DTD SVG 1.1//EN" "http://www.w3.org/Graphics/SVG/1.1/DTD/svg11.dtd">
<svg version="1.1" id="&#x421;&#x43B;&#x43E;&#x439;_1"
	 xmlns="http://www.w3.org/2000/svg" xmlns:xlink="http://www.w3.org/1999/xlink" x="0px" y="0px" width="204.81px"
	 height="170.461px" viewBox="0 0 204.81 170.461" enable-background="new 0 0 204.81 170.461" xml:space="preserve">
<g>
	<g>
		<g>
			<path fill="#30D874" d="M173.646,139.404c6.757,4.835,13.513,9.671,20.27,14.506c0.212-2.42,0.425-4.841,0.637-7.261
				c-5.232,5.314-10.465,10.628-15.697,15.942c-3.964,4.026-0.19,10.995,4.426,6.307c5.232-5.314,10.465-10.628,15.697-15.942
				c1.739-1.766,3.162-5.455,0.637-7.261c-6.757-4.835-13.513-9.671-20.27-14.506C175.277,128.276,169.565,136.484,173.646,139.404
				L173.646,139.404z"/>
		</g>
	</g>
	<g>
		<g>
			<path fill="#30D874" d="M100.827,102.527c6.785,42.054,53.694,60.155,91.7,51.039c4.728-1.134,5.759-10.292-0.326-8.833
				c-32.987,7.913-77-7.89-82.986-44.992C108.22,93.573,100.051,97.718,100.827,102.527L100.827,102.527z"/>
		</g>
	</g>
</g>
<g>
	<g>
		<path fill="#30D874" d="M90.739,0C67.96,0.067,43.116,1.877,22.844,13.279C5.328,23.13-2.366,40.676,0.633,60.256
			c6.852,44.727,69.127,46.37,103.412,45.996c20.395-0.223,41.351-1.851,60.892-8.02c16.798-5.303,33.411-15.637,38.274-33.622
			c12.065-44.617-47.125-55.4-78.158-57.833C97.622,4.627,67.19,4.879,41.531,16.18c-3.966,1.747-5.998,11.986,0.156,9.276
			c0.254-0.112,1.148-0.469,0.058-0.031c0.862-0.346,1.734-0.664,2.608-0.979c3.464-1.246,7.006-2.266,10.566-3.196
			c12.272-3.204,24.934-4.715,37.596-5.042c22.018-0.569,44.883,1.107,66.167,6.977c16.011,4.415,35.64,13.815,37.623,32.458
			c1.993,18.737-15.158,27.956-30.587,32.827c-19.632,6.198-40.804,7.422-61.26,7.516c-22.554,0.104-46.642-0.991-67.707-9.824
			C18.996,78.717,5.905,62.991,8.059,42.833c2.129-19.931,26.643-26.577,42.999-29.654c11.79-2.218,23.836-2.852,35.812-2.888
			C91.274,10.279,95.562-0.014,90.739,0L90.739,0z"/>
	</g>
</g>
</svg>
