<?xml version="1.0" encoding="utf-8"?>
<!-- Generator: Adobe Illustrator 17.0.0, SVG Export Plug-In . SVG Version: 6.00 Build 0)  -->
<!DOCTYPE svg PUBLIC "-//W3C//DTD SVG 1.1//EN" "http://www.w3.org/Graphics/SVG/1.1/DTD/svg11.dtd">
<svg version="1.1" id="Слой_1" xmlns="http://www.w3.org/2000/svg" xmlns:xlink="http://www.w3.org/1999/xlink" x="0px" y="0px"
	 width="204.81px" height="191.133px" viewBox="0 0 204.81 191.133" enable-background="new 0 0 204.81 191.133"
	 xml:space="preserve">
<g>
	<g>
		<g>
			<path fill="#5BB56E" d="M101.954,156.274c-3.823,7.376-7.647,14.753-11.47,22.129c-1.034,1.994-0.453,4.748,1.799,5.499
				c7.075,2.358,14.15,4.716,21.226,7.074c4.534,1.511,8.967-7.356,3.859-9.059c-7.075-2.358-14.15-4.716-21.226-7.074
				c0.6,1.833,1.199,3.666,1.799,5.499c3.823-7.376,7.647-14.753,11.47-22.129c0.976-1.883,0.518-4.895-1.799-5.499
				C105.068,152.051,102.995,154.265,101.954,156.274L101.954,156.274z"/>
		</g>
	</g>
	<g>
		<g>
			<path fill="#5BB56E" d="M149.828,96.813c11.388,35.592-19.334,67.624-52.153,75.563c-4.725,1.143-5.756,10.304,0.326,8.833
				c38.239-9.25,72.924-48.5,59.859-89.332C156.096,86.361,148.392,92.325,149.828,96.813L149.828,96.813z"/>
		</g>
	</g>
</g>
<g>
	<g>
		<path fill="#5BB56E" d="M90.739,0C67.96,0.067,43.116,1.877,22.844,13.279C5.328,23.13-2.366,40.676,0.633,60.256
			c6.852,44.727,69.127,46.37,103.412,45.996c20.395-0.223,41.351-1.851,60.892-8.02c16.798-5.303,33.41-15.637,38.274-33.622
			c12.065-44.617-47.125-55.4-78.158-57.833C97.622,4.627,67.19,4.879,41.531,16.18c-3.966,1.747-5.998,11.986,0.156,9.276
			c0.254-0.112,1.148-0.469,0.058-0.031c0.862-0.346,1.734-0.664,2.608-0.979c3.464-1.246,7.006-2.266,10.566-3.196
			c12.272-3.204,24.934-4.715,37.596-5.042c22.018-0.569,44.883,1.107,66.167,6.977c16.011,4.415,35.64,13.815,37.623,32.458
			c1.993,18.737-15.158,27.956-30.587,32.827c-19.632,6.198-40.804,7.422-61.26,7.516c-22.554,0.104-46.642-0.991-67.707-9.824
			C18.996,78.717,5.905,62.991,8.059,42.833c2.129-19.931,26.643-26.577,42.999-29.654c11.79-2.218,23.836-2.852,35.812-2.888
			C91.274,10.279,95.562-0.014,90.739,0L90.739,0z"/>
	</g>
</g>
</svg>
