<?xml version="1.0" encoding="iso-8859-1"?>
<!-- Generator: Adobe Illustrator 17.0.0, SVG Export Plug-In . SVG Version: 6.00 Build 0)  -->
<!DOCTYPE svg PUBLIC "-//W3C//DTD SVG 1.1//EN" "http://www.w3.org/Graphics/SVG/1.1/DTD/svg11.dtd">
<svg version="1.1" id="&#x421;&#x43B;&#x43E;&#x439;_1"
	 xmlns="http://www.w3.org/2000/svg" xmlns:xlink="http://www.w3.org/1999/xlink" x="0px" y="0px" width="414.745px"
	 height="661.5px" viewBox="0 0 414.745 661.5" enable-background="new 0 0 414.745 661.5" xml:space="preserve">
<g>
	<rect x="6" y="0" opacity="0.07" fill="#08334C" width="408.745" height="661"/>
	<rect x="12" y="0.5" fill="#FFFFFF" width="396.745" height="661"/>
	<rect x="40.372" y="29" fill="#FFFFFF" stroke="#E5E5E5" stroke-width="2" stroke-miterlimit="10" width="340" height="604"/>
	<path opacity="0.07" fill="#08334C" d="M6,69.658c0,1.174-0.959,2.133-2.132,2.133H2.133C0.96,71.791,0,70.832,0,69.658V43.133
		C0,41.96,0.96,41,2.133,41h1.735C5.041,41,6,41.96,6,43.133V69.658z"/>
	<path opacity="0.07" fill="#08334C" d="M6,118.133c0,1.174-0.959,2.133-2.132,2.133H2.133c-1.173,0-2.133-0.959-2.133-2.133V91.607
		c0-1.173,0.96-2.133,2.133-2.133h1.735c1.173,0,2.132,0.96,2.132,2.133V118.133z"/>
	<path opacity="0.07" fill="#08334C" d="M6,166.607c0,1.173-0.959,2.133-2.132,2.133H2.133C0.96,168.74,0,167.78,0,166.607v-26.525
		c0-1.174,0.96-2.133,2.133-2.133h1.735c1.173,0,2.132,0.959,2.132,2.133V166.607z"/>
</g>
</svg>
